<svg width="16" height="16" viewBox="0 0 16 16" fill="none" xmlns="http://www.w3.org/2000/svg">
<path d="M16 7.72684C16.0001 8.20514 15.8618 8.67343 15.6016 9.07613C15.3414 9.47883 14.9702 9.79905 14.5321 9.99879C14.3565 9.69313 14.1356 9.41537 13.8768 9.17481C14.2639 9.07018 14.5933 8.81729 14.7925 8.47176C14.9917 8.12624 15.0444 7.71638 14.9389 7.33235C14.8334 6.94833 14.5784 6.6216 14.2301 6.42403C13.8817 6.22647 13.4685 6.17425 13.0813 6.27888C13.0116 6.29761 12.9387 6.30128 12.8675 6.28964C12.7962 6.278 12.7284 6.25132 12.6684 6.2114C12.6085 6.17149 12.5579 6.11927 12.5201 6.05828C12.4822 5.99729 12.4581 5.92895 12.4492 5.85789C12.3779 5.28523 12.1416 4.74511 11.7686 4.30228C11.3957 3.85945 10.9019 3.5327 10.3464 3.36119C9.79095 3.18969 9.19741 3.1807 8.63694 3.33532C8.07647 3.48994 7.57285 3.80159 7.18644 4.23293C6.75564 4.21332 6.324 4.24285 5.89999 4.32093C6.28662 3.61476 6.87863 3.04039 7.59896 2.67259C8.31928 2.30479 9.13456 2.16059 9.93867 2.25878C10.7428 2.35696 11.4984 2.69297 12.1073 3.22308C12.7162 3.75318 13.1501 4.45281 13.3525 5.23091C13.6937 5.21383 14.0348 5.26572 14.3551 5.38344C14.6755 5.50115 14.9684 5.68222 15.216 5.91566C15.4636 6.1491 15.6608 6.43003 15.7955 6.74138C15.9303 7.05273 15.9999 7.38801 16 7.72684Z" fill="#0085FF"/>
<path d="M7.13501 5.49879C8.24188 5.49858 9.30999 5.90645 10.1351 6.6444C10.9602 7.38236 11.4843 8.3986 11.6073 9.49879H11.6343C12.2972 9.49879 12.933 9.76219 13.4018 10.231C13.8705 10.6999 14.1339 11.3358 14.1339 11.9988C14.1339 12.6618 13.8705 13.2977 13.4018 13.7666C12.933 14.2354 12.2972 14.4988 11.6343 14.4988H3.13566C2.36115 14.4994 1.61643 14.2003 1.05739 13.6642C0.498354 13.128 0.16834 12.3964 0.13643 11.6224C0.10452 10.8484 0.373186 10.0921 0.886191 9.51173C1.3992 8.93138 2.11677 8.57199 2.8887 8.50879C3.19768 7.62903 3.77216 6.86693 4.5328 6.32775C5.29344 5.78857 6.20271 5.49891 7.13501 5.49879V5.49879ZM10.6344 9.99879C10.635 9.14631 10.3245 8.32293 9.76121 7.68317C9.19789 7.04342 8.42048 6.63128 7.5749 6.52413C6.72931 6.41697 5.8737 6.62216 5.16864 7.10117C4.46359 7.58019 3.95757 8.30011 3.74556 9.12579C3.71688 9.23754 3.65043 9.33593 3.5575 9.40428C3.46456 9.47263 3.35085 9.50673 3.23565 9.50079C2.97005 9.489 2.70477 9.5303 2.45532 9.62227C2.20587 9.71423 1.97726 9.85503 1.78286 10.0364C1.58846 10.2178 1.43218 10.4361 1.32316 10.6787C1.21413 10.9212 1.15455 11.183 1.14791 11.4488C1.14126 11.7146 1.18767 11.9791 1.28444 12.2268C1.38121 12.4744 1.52638 12.7003 1.71147 12.8912C1.89655 13.0821 2.11784 13.2341 2.36238 13.3385C2.60692 13.4428 2.86981 13.4973 3.13566 13.4988H11.6343C11.8469 13.4983 12.0571 13.4526 12.2507 13.3647C12.4443 13.2768 12.6171 13.1487 12.7574 12.9889C12.8978 12.8291 13.0026 12.6413 13.0649 12.438C13.1271 12.2346 13.1454 12.0203 13.1186 11.8093C13.0917 11.5984 13.0203 11.3955 12.9091 11.2142C12.7978 11.0329 12.6493 10.8774 12.4734 10.7579C12.2975 10.6384 12.0982 10.5577 11.8887 10.5211C11.6792 10.4846 11.4643 10.493 11.2583 10.5458C11.1839 10.5649 11.106 10.5665 11.0308 10.5506C10.9557 10.5347 10.8851 10.5017 10.8248 10.4541C10.7644 10.4065 10.7159 10.3456 10.6828 10.2762C10.6498 10.2068 10.6333 10.1307 10.6344 10.0538V9.99879Z" fill="#0085FF"/>
</svg>
