<svg width="128" height="128" viewBox="0 0 128 128" fill="none" xmlns="http://www.w3.org/2000/svg">
<g clip-path="url(#clip0_6_135)">
<path d="M97.6709 75.8596C98.4412 75.1675 98.7051 74.0722 98.3346 73.1053C97.964 72.1383 97.0356 71.4999 96.0001 71.4999H63.0623L68.2666 56.8628L74.3371 40.888C74.629 40.1197 74.5247 39.257 74.058 38.5804C73.5914 37.9039 72.822 37.4999 72.0001 37.4999H51.2001C50.2217 37.4999 49.3332 38.0707 48.9264 38.9605L29.7264 80.9605C29.3726 81.7344 29.4368 82.6352 29.8967 83.3511C30.3567 84.0671 31.1492 84.4999 32.0001 84.4999H55.8707L42.4689 119.097C42.0511 120.176 42.4278 121.4 43.3798 122.057C44.3319 122.714 45.6104 122.633 46.4709 121.86L97.6709 75.8596Z" fill="url(#paint0_linear_6_135)" stroke="url(#paint1_linear_6_135)" stroke-width="5" stroke-linecap="round" stroke-linejoin="round"/>
<g filter="url(#filter0_b_6_135)">
<path d="M94.9762 10.4601C101.28 16.2179 105.577 23.8415 107.239 32.2163C113.273 33.0313 118.771 36.1094 122.621 40.827C126.47 45.5445 128.383 51.5489 127.971 57.6239C127.559 63.6988 124.854 69.3901 120.402 73.5448C115.951 77.6996 110.087 80.0072 103.999 80.0003H27.9986C24.1883 79.9943 20.4192 79.2108 16.9223 77.6975C13.4253 76.1843 10.274 73.9732 7.66127 71.1997C5.04854 68.4262 3.02939 65.1486 1.72743 61.5676C0.425475 57.9866 -0.131889 54.1776 0.0894642 50.3737C0.310818 46.5698 1.30623 42.8511 3.01476 39.4453C4.72329 36.0395 7.10898 33.0182 10.0258 30.5665C12.9426 28.1147 16.3291 26.2841 19.9779 25.1867C23.6268 24.0893 27.4613 23.7482 31.2466 24.1843C34.622 16.3419 40.4177 9.78503 47.7863 5.47233C55.1549 1.15963 63.7099 -0.682697 72.2005 0.214721C80.6911 1.11214 88.672 4.70223 94.9762 10.4601Z" fill="url(#paint2_linear_6_135)"/>
<path d="M107.19 32.226L107.197 32.261L107.232 32.2658C113.253 33.0791 118.741 36.1508 122.582 40.8586C126.424 45.5663 128.332 51.5582 127.921 57.6205C127.51 63.6828 124.81 69.3622 120.368 73.5083C115.927 77.6544 110.075 79.9572 103.999 79.9503H27.9986C24.1951 79.9443 20.4328 79.1622 16.9421 77.6516C13.4514 76.1411 10.3057 73.934 7.69766 71.1654C5.0896 68.3969 3.07405 65.1252 1.77442 61.5506C0.47479 57.976 -0.0815785 54.1737 0.13938 50.3766C0.360338 46.5795 1.35397 42.8674 3.05945 39.4677C4.76493 36.068 7.14636 33.0521 10.0579 30.6047C12.9695 28.1574 16.35 26.33 19.9923 25.2346C23.6347 24.1391 27.4623 23.7986 31.2409 24.2339L31.2778 24.2382L31.2925 24.204C34.6637 16.3715 40.4521 9.82279 47.8115 5.51548C55.1709 1.20817 63.7153 -0.631852 72.1953 0.264444C80.6753 1.16074 88.6462 4.74635 94.9425 10.497C101.239 16.2477 105.53 23.8617 107.19 32.226Z" stroke="url(#paint3_linear_6_135)" stroke-opacity="0.15" stroke-width="0.1"/>
</g>
<path d="M40.0001 27.9999C44.0001 15.9999 56.0001 7.99989 72.0001 7.99989" stroke="#B0C3FF" stroke-opacity="0.28" stroke-width="2" stroke-linecap="round"/>
</g>
<defs>
<filter id="filter0_b_6_135" x="-15.9578" y="-16.0069" width="159.984" height="112.007" filterUnits="userSpaceOnUse" color-interpolation-filters="sRGB">
<feFlood flood-opacity="0" result="BackgroundImageFix"/>
<feGaussianBlur in="BackgroundImage" stdDeviation="8"/>
<feComposite in2="SourceAlpha" operator="in" result="effect1_backgroundBlur_6_135"/>
<feBlend mode="normal" in="SourceGraphic" in2="effect1_backgroundBlur_6_135" result="shape"/>
</filter>
<linearGradient id="paint0_linear_6_135" x1="63.4722" y1="41.3625" x2="63.4722" y2="121.362" gradientUnits="userSpaceOnUse">
<stop stop-color="#FFC107"/>
<stop offset="1" stop-color="#FF7A00"/>
</linearGradient>
<linearGradient id="paint1_linear_6_135" x1="64.0001" y1="39.9999" x2="64.0001" y2="120" gradientUnits="userSpaceOnUse">
<stop stop-color="#FFC107"/>
<stop offset="1" stop-color="#FF7A00"/>
</linearGradient>
<linearGradient id="paint2_linear_6_135" x1="-0.00128607" y1="0.000142866" x2="127.999" y2="80.0001" gradientUnits="userSpaceOnUse">
<stop stop-color="white" stop-opacity="0.56"/>
<stop offset="1" stop-color="#C4C4C4" stop-opacity="0"/>
</linearGradient>
<linearGradient id="paint3_linear_6_135" x1="64.0341" y1="-0.00694275" x2="64.0341" y2="80.0003" gradientUnits="userSpaceOnUse">
<stop stop-color="white"/>
<stop offset="1" stop-color="white" stop-opacity="0"/>
</linearGradient>
<clipPath id="clip0_6_135">
<rect width="128" height="128" fill="white"/>
</clipPath>
</defs>
</svg>
