<svg width="145" height="134" viewBox="0 0 145 134" fill="none" xmlns="http://www.w3.org/2000/svg">
<mask id="path-1-inside-1_5_2" fill="white">
<path d="M35 92C34.8177 92 34.6428 91.9276 34.5139 91.7986C34.3849 91.6697 34.3125 91.4948 34.3125 91.3125V89.5346L33.4243 90.4242C33.2952 90.5532 33.1201 90.6255 32.9377 90.6254C32.7553 90.6253 32.5804 90.5527 32.4514 90.4236C32.3225 90.2945 32.2502 90.1195 32.2503 89.937C32.2504 89.7546 32.323 89.5797 32.4521 89.4508L34.3125 87.5904V82.1908L29.6375 84.8899L28.9555 87.4336C28.9081 87.6098 28.7927 87.7599 28.6346 87.8509C28.4765 87.9419 28.2888 87.9664 28.1126 87.919C27.9365 87.8716 27.7864 87.7562 27.6954 87.5981C27.6044 87.44 27.5798 87.2523 27.6273 87.0761L27.9531 85.8634L26.4131 86.7516C26.2553 86.8414 26.0684 86.865 25.8932 86.8175C25.718 86.7699 25.5687 86.6549 25.4779 86.4977C25.3872 86.3405 25.3623 86.1538 25.4087 85.9782C25.4551 85.8027 25.569 85.6527 25.7256 85.5609L27.2656 84.6726L26.0501 84.3468C25.9629 84.3233 25.8812 84.2829 25.8096 84.2278C25.738 84.1727 25.6779 84.1041 25.6329 84.0258C25.5878 83.9476 25.5586 83.8612 25.5469 83.7716C25.5352 83.6821 25.5413 83.5911 25.5648 83.5039C25.5882 83.4167 25.6286 83.3349 25.6837 83.2633C25.7388 83.1917 25.8074 83.1317 25.8857 83.0866C25.9639 83.0416 26.0503 83.0123 26.1399 83.0006C26.2294 82.989 26.3204 82.995 26.4076 83.0185L28.9486 83.6991L33.625 81L28.95 78.3009L26.4063 78.9815C26.2313 79.0251 26.0461 78.9982 25.8908 78.9066C25.7354 78.815 25.6223 78.666 25.5758 78.4918C25.5292 78.3176 25.553 78.132 25.642 77.9752C25.731 77.8183 25.8781 77.7027 26.0515 77.6532L27.2656 77.3274L25.7256 76.4391C25.6468 76.3943 25.5776 76.3344 25.5221 76.2627C25.4665 76.191 25.4257 76.1091 25.4019 76.0216C25.3782 75.9341 25.372 75.8428 25.3837 75.7529C25.3954 75.6629 25.4247 75.5762 25.47 75.4977C25.5154 75.4192 25.5758 75.3504 25.6478 75.2953C25.7198 75.2403 25.802 75.2 25.8897 75.1768C25.9774 75.1536 26.0687 75.148 26.1586 75.1603C26.2484 75.1726 26.3349 75.2025 26.4131 75.2484L27.9531 76.1366L27.6273 74.9225C27.6022 74.8347 27.5949 74.7429 27.6058 74.6523C27.6166 74.5617 27.6454 74.4741 27.6904 74.3948C27.7355 74.3154 27.7958 74.2458 27.868 74.19C27.9403 74.1342 28.0228 74.0933 28.111 74.0698C28.1992 74.0462 28.2911 74.0405 28.3816 74.0528C28.472 74.0652 28.559 74.0954 28.6376 74.1418C28.7162 74.1881 28.7848 74.2497 28.8394 74.3228C28.894 74.3959 28.9334 74.4792 28.9555 74.5677L29.6361 77.1101L34.3125 79.8092V74.4096L32.4521 72.5492C32.3882 72.4854 32.3375 72.4096 32.3029 72.3262C32.2682 72.2428 32.2504 72.1533 32.2503 72.063C32.2502 71.9727 32.268 71.8832 32.3025 71.7997C32.337 71.7162 32.3876 71.6404 32.4514 71.5764C32.5153 71.5125 32.5911 71.4618 32.6745 71.4272C32.7579 71.3925 32.8474 71.3747 32.9377 71.3746C33.028 71.3746 33.1175 71.3923 33.201 71.4268C33.2845 71.4613 33.3603 71.5119 33.4243 71.5757L34.3125 72.4654V70.6875C34.3125 70.5052 34.3849 70.3303 34.5139 70.2014C34.6428 70.0724 34.8177 70 35 70C35.1823 70 35.3572 70.0724 35.4861 70.2014C35.6151 70.3303 35.6875 70.5052 35.6875 70.6875V72.4654L36.5771 71.5757C36.7062 71.4468 36.8812 71.3745 37.0637 71.3746C37.2461 71.3747 37.421 71.4473 37.5499 71.5764C37.6789 71.7055 37.7512 71.8805 37.7511 72.063C37.7509 72.2454 37.6783 72.4203 37.5493 72.5492L35.6875 74.4096V79.8092L40.3625 77.1101L41.0445 74.5664C41.0919 74.3902 41.2073 74.2401 41.3654 74.1491C41.5235 74.0581 41.7112 74.0336 41.8874 74.081C42.0635 74.1284 42.2136 74.2438 42.3046 74.4019C42.3957 74.56 42.4202 74.7477 42.3728 74.9239L42.0483 76.1366L43.5883 75.2484C43.7461 75.1586 43.933 75.135 44.1082 75.1825C44.2834 75.2301 44.4327 75.345 44.5234 75.5023C44.6142 75.6595 44.6391 75.8462 44.5927 76.0218C44.5463 76.1973 44.4324 76.3473 44.2758 76.4391L42.7358 77.3274L43.9499 77.6532C44.126 77.7007 44.2761 77.8161 44.3671 77.9742C44.4582 78.1322 44.4827 78.32 44.4353 78.4961C44.3878 78.6723 44.2724 78.8224 44.1143 78.9134C43.9563 79.0044 43.7685 79.0289 43.5924 78.9815L41.0514 78.3009L36.375 81L41.05 83.6991L43.5924 83.0185C43.7685 82.9713 43.9562 82.996 44.1141 83.0871C44.2721 83.1783 44.3873 83.3284 44.4346 83.5046C44.4818 83.6807 44.4571 83.8684 44.366 84.0263C44.2748 84.1843 44.1246 84.2995 43.9485 84.3468L42.7344 84.6726L44.2744 85.5609C44.431 85.6527 44.5449 85.8027 44.5913 85.9782C44.6377 86.1538 44.6128 86.3405 44.5221 86.4977C44.4313 86.6549 44.282 86.7699 44.1068 86.8175C43.9316 86.865 43.7447 86.8414 43.5869 86.7516L42.0469 85.8634L42.3714 87.0775C42.3964 87.1653 42.4037 87.2571 42.3928 87.3477C42.382 87.4383 42.3532 87.5259 42.3082 87.6052C42.2632 87.6846 42.2028 87.7542 42.1306 87.81C42.0584 87.8658 41.9758 87.9067 41.8876 87.9302C41.7995 87.9538 41.7075 87.9595 41.6171 87.9472C41.5267 87.9348 41.4396 87.9046 41.361 87.8582C41.2824 87.8119 41.2138 87.7503 41.1592 87.6772C41.1047 87.6041 41.0652 87.5208 41.0431 87.4323L40.3625 84.8899L35.6875 82.1908V87.5904L37.5479 89.4508C37.677 89.5797 37.7496 89.7546 37.7497 89.937C37.7498 90.1195 37.6775 90.2945 37.5486 90.4236C37.4197 90.5527 37.2447 90.6253 37.0623 90.6254C36.8799 90.6255 36.7048 90.5532 36.5758 90.4242L35.6861 89.5346V91.3125C35.6861 91.4948 35.6137 91.6697 35.4848 91.7986C35.3558 91.9276 35.181 92 34.9986 92H35Z"/>
</mask>
<path d="M35 92C34.8177 92 34.6428 91.9276 34.5139 91.7986C34.3849 91.6697 34.3125 91.4948 34.3125 91.3125V89.5346L33.4243 90.4242C33.2952 90.5532 33.1201 90.6255 32.9377 90.6254C32.7553 90.6253 32.5804 90.5527 32.4514 90.4236C32.3225 90.2945 32.2502 90.1195 32.2503 89.937C32.2504 89.7546 32.323 89.5797 32.4521 89.4508L34.3125 87.5904V82.1908L29.6375 84.8899L28.9555 87.4336C28.9081 87.6098 28.7927 87.7599 28.6346 87.8509C28.4765 87.9419 28.2888 87.9664 28.1126 87.919C27.9365 87.8716 27.7864 87.7562 27.6954 87.5981C27.6044 87.44 27.5798 87.2523 27.6273 87.0761L27.9531 85.8634L26.4131 86.7516C26.2553 86.8414 26.0684 86.865 25.8932 86.8175C25.718 86.7699 25.5687 86.6549 25.4779 86.4977C25.3872 86.3405 25.3623 86.1538 25.4087 85.9782C25.4551 85.8027 25.569 85.6527 25.7256 85.5609L27.2656 84.6726L26.0501 84.3468C25.9629 84.3233 25.8812 84.2829 25.8096 84.2278C25.738 84.1727 25.6779 84.1041 25.6329 84.0258C25.5878 83.9476 25.5586 83.8612 25.5469 83.7716C25.5352 83.6821 25.5413 83.5911 25.5648 83.5039C25.5882 83.4167 25.6286 83.3349 25.6837 83.2633C25.7388 83.1917 25.8074 83.1317 25.8857 83.0866C25.9639 83.0416 26.0503 83.0123 26.1399 83.0006C26.2294 82.989 26.3204 82.995 26.4076 83.0185L28.9486 83.6991L33.625 81L28.95 78.3009L26.4063 78.9815C26.2313 79.0251 26.0461 78.9982 25.8908 78.9066C25.7354 78.815 25.6223 78.666 25.5758 78.4918C25.5292 78.3176 25.553 78.132 25.642 77.9752C25.731 77.8183 25.8781 77.7027 26.0515 77.6532L27.2656 77.3274L25.7256 76.4391C25.6468 76.3943 25.5776 76.3344 25.5221 76.2627C25.4665 76.191 25.4257 76.1091 25.4019 76.0216C25.3782 75.9341 25.372 75.8428 25.3837 75.7529C25.3954 75.6629 25.4247 75.5762 25.47 75.4977C25.5154 75.4192 25.5758 75.3504 25.6478 75.2953C25.7198 75.2403 25.802 75.2 25.8897 75.1768C25.9774 75.1536 26.0687 75.148 26.1586 75.1603C26.2484 75.1726 26.3349 75.2025 26.4131 75.2484L27.9531 76.1366L27.6273 74.9225C27.6022 74.8347 27.5949 74.7429 27.6058 74.6523C27.6166 74.5617 27.6454 74.4741 27.6904 74.3948C27.7355 74.3154 27.7958 74.2458 27.868 74.19C27.9403 74.1342 28.0228 74.0933 28.111 74.0698C28.1992 74.0462 28.2911 74.0405 28.3816 74.0528C28.472 74.0652 28.559 74.0954 28.6376 74.1418C28.7162 74.1881 28.7848 74.2497 28.8394 74.3228C28.894 74.3959 28.9334 74.4792 28.9555 74.5677L29.6361 77.1101L34.3125 79.8092V74.4096L32.4521 72.5492C32.3882 72.4854 32.3375 72.4096 32.3029 72.3262C32.2682 72.2428 32.2504 72.1533 32.2503 72.063C32.2502 71.9727 32.268 71.8832 32.3025 71.7997C32.337 71.7162 32.3876 71.6404 32.4514 71.5764C32.5153 71.5125 32.5911 71.4618 32.6745 71.4272C32.7579 71.3925 32.8474 71.3747 32.9377 71.3746C33.028 71.3746 33.1175 71.3923 33.201 71.4268C33.2845 71.4613 33.3603 71.5119 33.4243 71.5757L34.3125 72.4654V70.6875C34.3125 70.5052 34.3849 70.3303 34.5139 70.2014C34.6428 70.0724 34.8177 70 35 70C35.1823 70 35.3572 70.0724 35.4861 70.2014C35.6151 70.3303 35.6875 70.5052 35.6875 70.6875V72.4654L36.5771 71.5757C36.7062 71.4468 36.8812 71.3745 37.0637 71.3746C37.2461 71.3747 37.421 71.4473 37.5499 71.5764C37.6789 71.7055 37.7512 71.8805 37.7511 72.063C37.7509 72.2454 37.6783 72.4203 37.5493 72.5492L35.6875 74.4096V79.8092L40.3625 77.1101L41.0445 74.5664C41.0919 74.3902 41.2073 74.2401 41.3654 74.1491C41.5235 74.0581 41.7112 74.0336 41.8874 74.081C42.0635 74.1284 42.2136 74.2438 42.3046 74.4019C42.3957 74.56 42.4202 74.7477 42.3728 74.9239L42.0483 76.1366L43.5883 75.2484C43.7461 75.1586 43.933 75.135 44.1082 75.1825C44.2834 75.2301 44.4327 75.345 44.5234 75.5023C44.6142 75.6595 44.6391 75.8462 44.5927 76.0218C44.5463 76.1973 44.4324 76.3473 44.2758 76.4391L42.7358 77.3274L43.9499 77.6532C44.126 77.7007 44.2761 77.8161 44.3671 77.9742C44.4582 78.1322 44.4827 78.32 44.4353 78.4961C44.3878 78.6723 44.2724 78.8224 44.1143 78.9134C43.9563 79.0044 43.7685 79.0289 43.5924 78.9815L41.0514 78.3009L36.375 81L41.05 83.6991L43.5924 83.0185C43.7685 82.9713 43.9562 82.996 44.1141 83.0871C44.2721 83.1783 44.3873 83.3284 44.4346 83.5046C44.4818 83.6807 44.4571 83.8684 44.366 84.0263C44.2748 84.1843 44.1246 84.2995 43.9485 84.3468L42.7344 84.6726L44.2744 85.5609C44.431 85.6527 44.5449 85.8027 44.5913 85.9782C44.6377 86.1538 44.6128 86.3405 44.5221 86.4977C44.4313 86.6549 44.282 86.7699 44.1068 86.8175C43.9316 86.865 43.7447 86.8414 43.5869 86.7516L42.0469 85.8634L42.3714 87.0775C42.3964 87.1653 42.4037 87.2571 42.3928 87.3477C42.382 87.4383 42.3532 87.5259 42.3082 87.6052C42.2632 87.6846 42.2028 87.7542 42.1306 87.81C42.0584 87.8658 41.9758 87.9067 41.8876 87.9302C41.7995 87.9538 41.7075 87.9595 41.6171 87.9472C41.5267 87.9348 41.4396 87.9046 41.361 87.8582C41.2824 87.8119 41.2138 87.7503 41.1592 87.6772C41.1047 87.6041 41.0652 87.5208 41.0431 87.4323L40.3625 84.8899L35.6875 82.1908V87.5904L37.5479 89.4508C37.677 89.5797 37.7496 89.7546 37.7497 89.937C37.7498 90.1195 37.6775 90.2945 37.5486 90.4236C37.4197 90.5527 37.2447 90.6253 37.0623 90.6254C36.8799 90.6255 36.7048 90.5532 36.5758 90.4242L35.6861 89.5346V91.3125C35.6861 91.4948 35.6137 91.6697 35.4848 91.7986C35.3558 91.9276 35.181 92 34.9986 92H35Z" fill="url(#paint0_linear_5_2)" stroke="url(#paint1_linear_5_2)" stroke-width="0.2" mask="url(#path-1-inside-1_5_2)"/>
<mask id="path-2-inside-2_5_2" fill="white">
<path d="M105 73C104.818 73 104.643 72.9276 104.514 72.7986C104.385 72.6697 104.313 72.4948 104.313 72.3125V70.5346L103.424 71.4242C103.295 71.5532 103.12 71.6255 102.938 71.6254C102.755 71.6253 102.58 71.5527 102.451 71.4236C102.323 71.2945 102.25 71.1195 102.25 70.937C102.25 70.7546 102.323 70.5797 102.452 70.4508L104.313 68.5904V63.1908L99.6375 65.8899L98.9555 68.4336C98.9081 68.6098 98.7927 68.7599 98.6346 68.8509C98.4765 68.9419 98.2888 68.9664 98.1126 68.919C97.9365 68.8716 97.7864 68.7562 97.6954 68.5981C97.6044 68.44 97.5798 68.2523 97.6273 68.0761L97.9531 66.8634L96.4131 67.7516C96.2553 67.8414 96.0684 67.865 95.8932 67.8175C95.718 67.7699 95.5687 67.6549 95.4779 67.4977C95.3872 67.3405 95.3623 67.1538 95.4087 66.9782C95.4551 66.8027 95.569 66.6527 95.7256 66.5609L97.2656 65.6726L96.0501 65.3468C95.9629 65.3233 95.8812 65.2829 95.8096 65.2278C95.738 65.1727 95.6779 65.1041 95.6329 65.0258C95.5878 64.9476 95.5586 64.8612 95.5469 64.7716C95.5352 64.6821 95.5413 64.5911 95.5648 64.5039C95.5882 64.4167 95.6286 64.3349 95.6837 64.2633C95.7388 64.1917 95.8074 64.1317 95.8857 64.0866C95.9639 64.0416 96.0503 64.0123 96.1399 64.0006C96.2294 63.989 96.3204 63.995 96.4076 64.0185L98.9486 64.6991L103.625 62L98.95 59.3009L96.4063 59.9815C96.2313 60.0251 96.0461 59.9982 95.8908 59.9066C95.7354 59.815 95.6223 59.666 95.5758 59.4918C95.5292 59.3176 95.553 59.132 95.642 58.9752C95.731 58.8183 95.8781 58.7027 96.0515 58.6532L97.2656 58.3274L95.7256 57.4391C95.6468 57.3943 95.5776 57.3344 95.5221 57.2627C95.4665 57.191 95.4257 57.1091 95.4019 57.0216C95.3782 56.9341 95.372 56.8428 95.3837 56.7529C95.3954 56.6629 95.4247 56.5762 95.47 56.4977C95.5154 56.4192 95.5758 56.3504 95.6478 56.2953C95.7198 56.2403 95.802 56.2 95.8897 56.1768C95.9774 56.1536 96.0687 56.148 96.1586 56.1603C96.2484 56.1726 96.3349 56.2025 96.4131 56.2484L97.9531 57.1366L97.6273 55.9225C97.6022 55.8347 97.5949 55.7429 97.6058 55.6523C97.6166 55.5617 97.6454 55.4741 97.6904 55.3948C97.7355 55.3154 97.7958 55.2458 97.868 55.19C97.9403 55.1342 98.0228 55.0933 98.111 55.0698C98.1992 55.0462 98.2911 55.0405 98.3816 55.0528C98.472 55.0652 98.559 55.0954 98.6376 55.1418C98.7162 55.1881 98.7848 55.2497 98.8394 55.3228C98.894 55.3959 98.9334 55.4792 98.9555 55.5677L99.6361 58.1101L104.313 60.8092V55.4096L102.452 53.5492C102.388 53.4854 102.337 53.4096 102.303 53.3262C102.268 53.2428 102.25 53.1533 102.25 53.063C102.25 52.9727 102.268 52.8832 102.302 52.7997C102.337 52.7162 102.388 52.6404 102.451 52.5764C102.515 52.5125 102.591 52.4618 102.675 52.4272C102.758 52.3925 102.847 52.3747 102.938 52.3746C103.028 52.3746 103.118 52.3923 103.201 52.4268C103.284 52.4613 103.36 52.5119 103.424 52.5757L104.313 53.4654V51.6875C104.313 51.5052 104.385 51.3303 104.514 51.2014C104.643 51.0724 104.818 51 105 51C105.182 51 105.357 51.0724 105.486 51.2014C105.615 51.3303 105.688 51.5052 105.688 51.6875V53.4654L106.577 52.5757C106.706 52.4468 106.881 52.3745 107.064 52.3746C107.246 52.3747 107.421 52.4473 107.55 52.5764C107.679 52.7055 107.751 52.8805 107.751 53.063C107.751 53.2454 107.678 53.4203 107.549 53.5492L105.688 55.4096V60.8092L110.363 58.1101L111.045 55.5664C111.092 55.3902 111.207 55.2401 111.365 55.1491C111.523 55.0581 111.711 55.0336 111.887 55.081C112.064 55.1284 112.214 55.2438 112.305 55.4019C112.396 55.56 112.42 55.7477 112.373 55.9239L112.048 57.1366L113.588 56.2484C113.746 56.1586 113.933 56.135 114.108 56.1825C114.283 56.2301 114.433 56.345 114.523 56.5023C114.614 56.6595 114.639 56.8462 114.593 57.0218C114.546 57.1973 114.432 57.3473 114.276 57.4391L112.736 58.3274L113.95 58.6532C114.126 58.7007 114.276 58.8161 114.367 58.9742C114.458 59.1322 114.483 59.32 114.435 59.4961C114.388 59.6723 114.272 59.8224 114.114 59.9134C113.956 60.0044 113.769 60.0289 113.592 59.9815L111.051 59.3009L106.375 62L111.05 64.6991L113.592 64.0185C113.769 63.9713 113.956 63.996 114.114 64.0871C114.272 64.1783 114.387 64.3284 114.435 64.5046C114.482 64.6807 114.457 64.8684 114.366 65.0263C114.275 65.1843 114.125 65.2995 113.949 65.3468L112.734 65.6726L114.274 66.5609C114.431 66.6527 114.545 66.8027 114.591 66.9782C114.638 67.1538 114.613 67.3405 114.522 67.4977C114.431 67.6549 114.282 67.7699 114.107 67.8175C113.932 67.865 113.745 67.8414 113.587 67.7516L112.047 66.8634L112.371 68.0775C112.396 68.1653 112.404 68.2571 112.393 68.3477C112.382 68.4383 112.353 68.5259 112.308 68.6052C112.263 68.6846 112.203 68.7542 112.131 68.81C112.058 68.8658 111.976 68.9067 111.888 68.9302C111.799 68.9538 111.707 68.9595 111.617 68.9472C111.527 68.9348 111.44 68.9046 111.361 68.8582C111.282 68.8119 111.214 68.7503 111.159 68.6772C111.105 68.6041 111.065 68.5208 111.043 68.4323L110.363 65.8899L105.688 63.1908V68.5904L107.548 70.4508C107.677 70.5797 107.75 70.7546 107.75 70.937C107.75 71.1195 107.677 71.2945 107.549 71.4236C107.42 71.5527 107.245 71.6253 107.062 71.6254C106.88 71.6255 106.705 71.5532 106.576 71.4242L105.686 70.5346V72.3125C105.686 72.4948 105.614 72.6697 105.485 72.7986C105.356 72.9276 105.181 73 104.999 73H105Z"/>
</mask>
<path d="M105 73C104.818 73 104.643 72.9276 104.514 72.7986C104.385 72.6697 104.313 72.4948 104.313 72.3125V70.5346L103.424 71.4242C103.295 71.5532 103.12 71.6255 102.938 71.6254C102.755 71.6253 102.58 71.5527 102.451 71.4236C102.323 71.2945 102.25 71.1195 102.25 70.937C102.25 70.7546 102.323 70.5797 102.452 70.4508L104.313 68.5904V63.1908L99.6375 65.8899L98.9555 68.4336C98.9081 68.6098 98.7927 68.7599 98.6346 68.8509C98.4765 68.9419 98.2888 68.9664 98.1126 68.919C97.9365 68.8716 97.7864 68.7562 97.6954 68.5981C97.6044 68.44 97.5798 68.2523 97.6273 68.0761L97.9531 66.8634L96.4131 67.7516C96.2553 67.8414 96.0684 67.865 95.8932 67.8175C95.718 67.7699 95.5687 67.6549 95.4779 67.4977C95.3872 67.3405 95.3623 67.1538 95.4087 66.9782C95.4551 66.8027 95.569 66.6527 95.7256 66.5609L97.2656 65.6726L96.0501 65.3468C95.9629 65.3233 95.8812 65.2829 95.8096 65.2278C95.738 65.1727 95.6779 65.1041 95.6329 65.0258C95.5878 64.9476 95.5586 64.8612 95.5469 64.7716C95.5352 64.6821 95.5413 64.5911 95.5648 64.5039C95.5882 64.4167 95.6286 64.3349 95.6837 64.2633C95.7388 64.1917 95.8074 64.1317 95.8857 64.0866C95.9639 64.0416 96.0503 64.0123 96.1399 64.0006C96.2294 63.989 96.3204 63.995 96.4076 64.0185L98.9486 64.6991L103.625 62L98.95 59.3009L96.4063 59.9815C96.2313 60.0251 96.0461 59.9982 95.8908 59.9066C95.7354 59.815 95.6223 59.666 95.5758 59.4918C95.5292 59.3176 95.553 59.132 95.642 58.9752C95.731 58.8183 95.8781 58.7027 96.0515 58.6532L97.2656 58.3274L95.7256 57.4391C95.6468 57.3943 95.5776 57.3344 95.5221 57.2627C95.4665 57.191 95.4257 57.1091 95.4019 57.0216C95.3782 56.9341 95.372 56.8428 95.3837 56.7529C95.3954 56.6629 95.4247 56.5762 95.47 56.4977C95.5154 56.4192 95.5758 56.3504 95.6478 56.2953C95.7198 56.2403 95.802 56.2 95.8897 56.1768C95.9774 56.1536 96.0687 56.148 96.1586 56.1603C96.2484 56.1726 96.3349 56.2025 96.4131 56.2484L97.9531 57.1366L97.6273 55.9225C97.6022 55.8347 97.5949 55.7429 97.6058 55.6523C97.6166 55.5617 97.6454 55.4741 97.6904 55.3948C97.7355 55.3154 97.7958 55.2458 97.868 55.19C97.9403 55.1342 98.0228 55.0933 98.111 55.0698C98.1992 55.0462 98.2911 55.0405 98.3816 55.0528C98.472 55.0652 98.559 55.0954 98.6376 55.1418C98.7162 55.1881 98.7848 55.2497 98.8394 55.3228C98.894 55.3959 98.9334 55.4792 98.9555 55.5677L99.6361 58.1101L104.313 60.8092V55.4096L102.452 53.5492C102.388 53.4854 102.337 53.4096 102.303 53.3262C102.268 53.2428 102.25 53.1533 102.25 53.063C102.25 52.9727 102.268 52.8832 102.302 52.7997C102.337 52.7162 102.388 52.6404 102.451 52.5764C102.515 52.5125 102.591 52.4618 102.675 52.4272C102.758 52.3925 102.847 52.3747 102.938 52.3746C103.028 52.3746 103.118 52.3923 103.201 52.4268C103.284 52.4613 103.36 52.5119 103.424 52.5757L104.313 53.4654V51.6875C104.313 51.5052 104.385 51.3303 104.514 51.2014C104.643 51.0724 104.818 51 105 51C105.182 51 105.357 51.0724 105.486 51.2014C105.615 51.3303 105.688 51.5052 105.688 51.6875V53.4654L106.577 52.5757C106.706 52.4468 106.881 52.3745 107.064 52.3746C107.246 52.3747 107.421 52.4473 107.55 52.5764C107.679 52.7055 107.751 52.8805 107.751 53.063C107.751 53.2454 107.678 53.4203 107.549 53.5492L105.688 55.4096V60.8092L110.363 58.1101L111.045 55.5664C111.092 55.3902 111.207 55.2401 111.365 55.1491C111.523 55.0581 111.711 55.0336 111.887 55.081C112.064 55.1284 112.214 55.2438 112.305 55.4019C112.396 55.56 112.42 55.7477 112.373 55.9239L112.048 57.1366L113.588 56.2484C113.746 56.1586 113.933 56.135 114.108 56.1825C114.283 56.2301 114.433 56.345 114.523 56.5023C114.614 56.6595 114.639 56.8462 114.593 57.0218C114.546 57.1973 114.432 57.3473 114.276 57.4391L112.736 58.3274L113.95 58.6532C114.126 58.7007 114.276 58.8161 114.367 58.9742C114.458 59.1322 114.483 59.32 114.435 59.4961C114.388 59.6723 114.272 59.8224 114.114 59.9134C113.956 60.0044 113.769 60.0289 113.592 59.9815L111.051 59.3009L106.375 62L111.05 64.6991L113.592 64.0185C113.769 63.9713 113.956 63.996 114.114 64.0871C114.272 64.1783 114.387 64.3284 114.435 64.5046C114.482 64.6807 114.457 64.8684 114.366 65.0263C114.275 65.1843 114.125 65.2995 113.949 65.3468L112.734 65.6726L114.274 66.5609C114.431 66.6527 114.545 66.8027 114.591 66.9782C114.638 67.1538 114.613 67.3405 114.522 67.4977C114.431 67.6549 114.282 67.7699 114.107 67.8175C113.932 67.865 113.745 67.8414 113.587 67.7516L112.047 66.8634L112.371 68.0775C112.396 68.1653 112.404 68.2571 112.393 68.3477C112.382 68.4383 112.353 68.5259 112.308 68.6052C112.263 68.6846 112.203 68.7542 112.131 68.81C112.058 68.8658 111.976 68.9067 111.888 68.9302C111.799 68.9538 111.707 68.9595 111.617 68.9472C111.527 68.9348 111.44 68.9046 111.361 68.8582C111.282 68.8119 111.214 68.7503 111.159 68.6772C111.105 68.6041 111.065 68.5208 111.043 68.4323L110.363 65.8899L105.688 63.1908V68.5904L107.548 70.4508C107.677 70.5797 107.75 70.7546 107.75 70.937C107.75 71.1195 107.677 71.2945 107.549 71.4236C107.42 71.5527 107.245 71.6253 107.062 71.6254C106.88 71.6255 106.705 71.5532 106.576 71.4242L105.686 70.5346V72.3125C105.686 72.4948 105.614 72.6697 105.485 72.7986C105.356 72.9276 105.181 73 104.999 73H105Z" fill="url(#paint2_linear_5_2)" stroke="url(#paint3_linear_5_2)" stroke-width="0.2" mask="url(#path-2-inside-2_5_2)"/>
<mask id="path-3-inside-3_5_2" fill="white">
<path d="M63 115C62.8177 115 62.6428 114.928 62.5139 114.799C62.3849 114.67 62.3125 114.495 62.3125 114.312V112.535L61.4243 113.424C61.2952 113.553 61.1201 113.626 60.9377 113.625C60.7553 113.625 60.5804 113.553 60.4514 113.424C60.3225 113.294 60.2502 113.119 60.2503 112.937C60.2504 112.755 60.323 112.58 60.4521 112.451L62.3125 110.59V105.191L57.6375 107.89L56.9555 110.434C56.9081 110.61 56.7927 110.76 56.6346 110.851C56.4765 110.942 56.2888 110.966 56.1126 110.919C55.9365 110.872 55.7864 110.756 55.6954 110.598C55.6044 110.44 55.5798 110.252 55.6273 110.076L55.9531 108.863L54.4131 109.752C54.2553 109.841 54.0684 109.865 53.8932 109.817C53.718 109.77 53.5687 109.655 53.4779 109.498C53.3872 109.341 53.3623 109.154 53.4087 108.978C53.4551 108.803 53.569 108.653 53.7256 108.561L55.2656 107.673L54.0501 107.347C53.9629 107.323 53.8812 107.283 53.8096 107.228C53.738 107.173 53.6779 107.104 53.6329 107.026C53.5878 106.948 53.5586 106.861 53.5469 106.772C53.5352 106.682 53.5413 106.591 53.5648 106.504C53.5882 106.417 53.6286 106.335 53.6837 106.263C53.7388 106.192 53.8074 106.132 53.8857 106.087C53.9639 106.042 54.0503 106.012 54.1399 106.001C54.2294 105.989 54.3204 105.995 54.4076 106.019L56.9486 106.699L61.625 104L56.95 101.301L54.4063 101.981C54.2313 102.025 54.0461 101.998 53.8908 101.907C53.7354 101.815 53.6223 101.666 53.5758 101.492C53.5292 101.318 53.553 101.132 53.642 100.975C53.731 100.818 53.8781 100.703 54.0515 100.653L55.2656 100.327L53.7256 99.4391C53.6468 99.3943 53.5776 99.3344 53.5221 99.2627C53.4665 99.191 53.4257 99.1091 53.4019 99.0216C53.3782 98.9341 53.372 98.8428 53.3837 98.7529C53.3954 98.6629 53.4247 98.5762 53.47 98.4977C53.5154 98.4192 53.5758 98.3504 53.6478 98.2953C53.7198 98.2403 53.802 98.2 53.8897 98.1768C53.9774 98.1536 54.0687 98.148 54.1586 98.1603C54.2484 98.1726 54.3349 98.2025 54.4131 98.2484L55.9531 99.1366L55.6273 97.9225C55.6022 97.8347 55.5949 97.7429 55.6058 97.6523C55.6166 97.5617 55.6454 97.4741 55.6904 97.3948C55.7355 97.3154 55.7958 97.2458 55.868 97.19C55.9403 97.1342 56.0228 97.0933 56.111 97.0698C56.1992 97.0462 56.2911 97.0405 56.3816 97.0528C56.472 97.0652 56.559 97.0954 56.6376 97.1418C56.7162 97.1881 56.7848 97.2497 56.8394 97.3228C56.894 97.3959 56.9334 97.4792 56.9555 97.5677L57.6361 100.11L62.3125 102.809V97.4096L60.4521 95.5492C60.3882 95.4854 60.3375 95.4096 60.3029 95.3262C60.2682 95.2428 60.2504 95.1533 60.2503 95.063C60.2502 94.9727 60.268 94.8832 60.3025 94.7997C60.337 94.7162 60.3876 94.6404 60.4514 94.5764C60.5153 94.5125 60.5911 94.4618 60.6745 94.4272C60.7579 94.3925 60.8474 94.3747 60.9377 94.3746C61.028 94.3746 61.1175 94.3923 61.201 94.4268C61.2845 94.4613 61.3603 94.5119 61.4243 94.5757L62.3125 95.4654V93.6875C62.3125 93.5052 62.3849 93.3303 62.5139 93.2014C62.6428 93.0724 62.8177 93 63 93C63.1823 93 63.3572 93.0724 63.4861 93.2014C63.6151 93.3303 63.6875 93.5052 63.6875 93.6875V95.4654L64.5771 94.5757C64.7062 94.4468 64.8812 94.3745 65.0637 94.3746C65.2461 94.3747 65.421 94.4473 65.5499 94.5764C65.6789 94.7055 65.7512 94.8805 65.7511 95.063C65.7509 95.2454 65.6783 95.4203 65.5493 95.5492L63.6875 97.4096V102.809L68.3625 100.11L69.0445 97.5664C69.0919 97.3902 69.2073 97.2401 69.3654 97.1491C69.5235 97.0581 69.7112 97.0336 69.8874 97.081C70.0635 97.1284 70.2136 97.2438 70.3046 97.4019C70.3957 97.56 70.4202 97.7477 70.3728 97.9239L70.0483 99.1366L71.5883 98.2484C71.7461 98.1586 71.933 98.135 72.1082 98.1825C72.2834 98.2301 72.4327 98.345 72.5234 98.5023C72.6142 98.6595 72.6391 98.8462 72.5927 99.0218C72.5463 99.1973 72.4324 99.3473 72.2758 99.4391L70.7358 100.327L71.9499 100.653C72.126 100.701 72.2761 100.816 72.3671 100.974C72.4582 101.132 72.4827 101.32 72.4353 101.496C72.3878 101.672 72.2724 101.822 72.1143 101.913C71.9563 102.004 71.7685 102.029 71.5924 101.981L69.0514 101.301L64.375 104L69.05 106.699L71.5924 106.019C71.7685 105.971 71.9562 105.996 72.1141 106.087C72.2721 106.178 72.3873 106.328 72.4346 106.505C72.4818 106.681 72.4571 106.868 72.366 107.026C72.2748 107.184 72.1246 107.3 71.9485 107.347L70.7344 107.673L72.2744 108.561C72.431 108.653 72.5449 108.803 72.5913 108.978C72.6377 109.154 72.6128 109.341 72.5221 109.498C72.4313 109.655 72.282 109.77 72.1068 109.817C71.9316 109.865 71.7447 109.841 71.5869 109.752L70.0469 108.863L70.3714 110.077C70.3964 110.165 70.4037 110.257 70.3928 110.348C70.382 110.438 70.3532 110.526 70.3082 110.605C70.2632 110.685 70.2028 110.754 70.1306 110.81C70.0584 110.866 69.9758 110.907 69.8876 110.93C69.7995 110.954 69.7075 110.96 69.6171 110.947C69.5267 110.935 69.4396 110.905 69.361 110.858C69.2824 110.812 69.2138 110.75 69.1592 110.677C69.1047 110.604 69.0652 110.521 69.0431 110.432L68.3625 107.89L63.6875 105.191V110.59L65.5479 112.451C65.677 112.58 65.7496 112.755 65.7497 112.937C65.7498 113.119 65.6775 113.294 65.5486 113.424C65.4197 113.553 65.2447 113.625 65.0623 113.625C64.8799 113.626 64.7048 113.553 64.5758 113.424L63.6861 112.535V114.312C63.6861 114.495 63.6137 114.67 63.4848 114.799C63.3558 114.928 63.181 115 62.9986 115H63Z"/>
</mask>
<path d="M63 115C62.8177 115 62.6428 114.928 62.5139 114.799C62.3849 114.67 62.3125 114.495 62.3125 114.312V112.535L61.4243 113.424C61.2952 113.553 61.1201 113.626 60.9377 113.625C60.7553 113.625 60.5804 113.553 60.4514 113.424C60.3225 113.294 60.2502 113.119 60.2503 112.937C60.2504 112.755 60.323 112.58 60.4521 112.451L62.3125 110.59V105.191L57.6375 107.89L56.9555 110.434C56.9081 110.61 56.7927 110.76 56.6346 110.851C56.4765 110.942 56.2888 110.966 56.1126 110.919C55.9365 110.872 55.7864 110.756 55.6954 110.598C55.6044 110.44 55.5798 110.252 55.6273 110.076L55.9531 108.863L54.4131 109.752C54.2553 109.841 54.0684 109.865 53.8932 109.817C53.718 109.77 53.5687 109.655 53.4779 109.498C53.3872 109.341 53.3623 109.154 53.4087 108.978C53.4551 108.803 53.569 108.653 53.7256 108.561L55.2656 107.673L54.0501 107.347C53.9629 107.323 53.8812 107.283 53.8096 107.228C53.738 107.173 53.6779 107.104 53.6329 107.026C53.5878 106.948 53.5586 106.861 53.5469 106.772C53.5352 106.682 53.5413 106.591 53.5648 106.504C53.5882 106.417 53.6286 106.335 53.6837 106.263C53.7388 106.192 53.8074 106.132 53.8857 106.087C53.9639 106.042 54.0503 106.012 54.1399 106.001C54.2294 105.989 54.3204 105.995 54.4076 106.019L56.9486 106.699L61.625 104L56.95 101.301L54.4063 101.981C54.2313 102.025 54.0461 101.998 53.8908 101.907C53.7354 101.815 53.6223 101.666 53.5758 101.492C53.5292 101.318 53.553 101.132 53.642 100.975C53.731 100.818 53.8781 100.703 54.0515 100.653L55.2656 100.327L53.7256 99.4391C53.6468 99.3943 53.5776 99.3344 53.5221 99.2627C53.4665 99.191 53.4257 99.1091 53.4019 99.0216C53.3782 98.9341 53.372 98.8428 53.3837 98.7529C53.3954 98.6629 53.4247 98.5762 53.47 98.4977C53.5154 98.4192 53.5758 98.3504 53.6478 98.2953C53.7198 98.2403 53.802 98.2 53.8897 98.1768C53.9774 98.1536 54.0687 98.148 54.1586 98.1603C54.2484 98.1726 54.3349 98.2025 54.4131 98.2484L55.9531 99.1366L55.6273 97.9225C55.6022 97.8347 55.5949 97.7429 55.6058 97.6523C55.6166 97.5617 55.6454 97.4741 55.6904 97.3948C55.7355 97.3154 55.7958 97.2458 55.868 97.19C55.9403 97.1342 56.0228 97.0933 56.111 97.0698C56.1992 97.0462 56.2911 97.0405 56.3816 97.0528C56.472 97.0652 56.559 97.0954 56.6376 97.1418C56.7162 97.1881 56.7848 97.2497 56.8394 97.3228C56.894 97.3959 56.9334 97.4792 56.9555 97.5677L57.6361 100.11L62.3125 102.809V97.4096L60.4521 95.5492C60.3882 95.4854 60.3375 95.4096 60.3029 95.3262C60.2682 95.2428 60.2504 95.1533 60.2503 95.063C60.2502 94.9727 60.268 94.8832 60.3025 94.7997C60.337 94.7162 60.3876 94.6404 60.4514 94.5764C60.5153 94.5125 60.5911 94.4618 60.6745 94.4272C60.7579 94.3925 60.8474 94.3747 60.9377 94.3746C61.028 94.3746 61.1175 94.3923 61.201 94.4268C61.2845 94.4613 61.3603 94.5119 61.4243 94.5757L62.3125 95.4654V93.6875C62.3125 93.5052 62.3849 93.3303 62.5139 93.2014C62.6428 93.0724 62.8177 93 63 93C63.1823 93 63.3572 93.0724 63.4861 93.2014C63.6151 93.3303 63.6875 93.5052 63.6875 93.6875V95.4654L64.5771 94.5757C64.7062 94.4468 64.8812 94.3745 65.0637 94.3746C65.2461 94.3747 65.421 94.4473 65.5499 94.5764C65.6789 94.7055 65.7512 94.8805 65.7511 95.063C65.7509 95.2454 65.6783 95.4203 65.5493 95.5492L63.6875 97.4096V102.809L68.3625 100.11L69.0445 97.5664C69.0919 97.3902 69.2073 97.2401 69.3654 97.1491C69.5235 97.0581 69.7112 97.0336 69.8874 97.081C70.0635 97.1284 70.2136 97.2438 70.3046 97.4019C70.3957 97.56 70.4202 97.7477 70.3728 97.9239L70.0483 99.1366L71.5883 98.2484C71.7461 98.1586 71.933 98.135 72.1082 98.1825C72.2834 98.2301 72.4327 98.345 72.5234 98.5023C72.6142 98.6595 72.6391 98.8462 72.5927 99.0218C72.5463 99.1973 72.4324 99.3473 72.2758 99.4391L70.7358 100.327L71.9499 100.653C72.126 100.701 72.2761 100.816 72.3671 100.974C72.4582 101.132 72.4827 101.32 72.4353 101.496C72.3878 101.672 72.2724 101.822 72.1143 101.913C71.9563 102.004 71.7685 102.029 71.5924 101.981L69.0514 101.301L64.375 104L69.05 106.699L71.5924 106.019C71.7685 105.971 71.9562 105.996 72.1141 106.087C72.2721 106.178 72.3873 106.328 72.4346 106.505C72.4818 106.681 72.4571 106.868 72.366 107.026C72.2748 107.184 72.1246 107.3 71.9485 107.347L70.7344 107.673L72.2744 108.561C72.431 108.653 72.5449 108.803 72.5913 108.978C72.6377 109.154 72.6128 109.341 72.5221 109.498C72.4313 109.655 72.282 109.77 72.1068 109.817C71.9316 109.865 71.7447 109.841 71.5869 109.752L70.0469 108.863L70.3714 110.077C70.3964 110.165 70.4037 110.257 70.3928 110.348C70.382 110.438 70.3532 110.526 70.3082 110.605C70.2632 110.685 70.2028 110.754 70.1306 110.81C70.0584 110.866 69.9758 110.907 69.8876 110.93C69.7995 110.954 69.7075 110.96 69.6171 110.947C69.5267 110.935 69.4396 110.905 69.361 110.858C69.2824 110.812 69.2138 110.75 69.1592 110.677C69.1047 110.604 69.0652 110.521 69.0431 110.432L68.3625 107.89L63.6875 105.191V110.59L65.5479 112.451C65.677 112.58 65.7496 112.755 65.7497 112.937C65.7498 113.119 65.6775 113.294 65.5486 113.424C65.4197 113.553 65.2447 113.625 65.0623 113.625C64.8799 113.626 64.7048 113.553 64.5758 113.424L63.6861 112.535V114.312C63.6861 114.495 63.6137 114.67 63.4848 114.799C63.3558 114.928 63.181 115 62.9986 115H63Z" fill="url(#paint4_linear_5_2)" stroke="url(#paint5_linear_5_2)" stroke-width="0.2" mask="url(#path-3-inside-3_5_2)"/>
<mask id="path-4-inside-4_5_2" fill="white">
<path d="M90 132C89.8177 132 89.6428 131.928 89.5139 131.799C89.3849 131.67 89.3125 131.495 89.3125 131.312V129.535L88.4243 130.424C88.2952 130.553 88.1201 130.626 87.9377 130.625C87.7553 130.625 87.5804 130.553 87.4514 130.424C87.3225 130.294 87.2502 130.119 87.2503 129.937C87.2504 129.755 87.323 129.58 87.4521 129.451L89.3125 127.59V122.191L84.6375 124.89L83.9555 127.434C83.9081 127.61 83.7927 127.76 83.6346 127.851C83.4765 127.942 83.2888 127.966 83.1126 127.919C82.9365 127.872 82.7864 127.756 82.6954 127.598C82.6044 127.44 82.5798 127.252 82.6273 127.076L82.9531 125.863L81.4131 126.752C81.2553 126.841 81.0684 126.865 80.8932 126.817C80.718 126.77 80.5687 126.655 80.4779 126.498C80.3872 126.341 80.3623 126.154 80.4087 125.978C80.4551 125.803 80.569 125.653 80.7256 125.561L82.2656 124.673L81.0501 124.347C80.9629 124.323 80.8812 124.283 80.8096 124.228C80.738 124.173 80.6779 124.104 80.6329 124.026C80.5878 123.948 80.5586 123.861 80.5469 123.772C80.5352 123.682 80.5413 123.591 80.5648 123.504C80.5882 123.417 80.6286 123.335 80.6837 123.263C80.7388 123.192 80.8074 123.132 80.8857 123.087C80.9639 123.042 81.0503 123.012 81.1399 123.001C81.2294 122.989 81.3204 122.995 81.4076 123.019L83.9486 123.699L88.625 121L83.95 118.301L81.4063 118.981C81.2313 119.025 81.0461 118.998 80.8908 118.907C80.7354 118.815 80.6223 118.666 80.5758 118.492C80.5292 118.318 80.553 118.132 80.642 117.975C80.731 117.818 80.8781 117.703 81.0515 117.653L82.2656 117.327L80.7256 116.439C80.6468 116.394 80.5776 116.334 80.5221 116.263C80.4665 116.191 80.4257 116.109 80.4019 116.022C80.3782 115.934 80.372 115.843 80.3837 115.753C80.3954 115.663 80.4247 115.576 80.47 115.498C80.5154 115.419 80.5758 115.35 80.6478 115.295C80.7198 115.24 80.802 115.2 80.8897 115.177C80.9774 115.154 81.0687 115.148 81.1586 115.16C81.2484 115.173 81.3349 115.203 81.4131 115.248L82.9531 116.137L82.6273 114.922C82.6022 114.835 82.5949 114.743 82.6058 114.652C82.6166 114.562 82.6454 114.474 82.6904 114.395C82.7355 114.315 82.7958 114.246 82.868 114.19C82.9403 114.134 83.0228 114.093 83.111 114.07C83.1992 114.046 83.2911 114.04 83.3816 114.053C83.472 114.065 83.559 114.095 83.6376 114.142C83.7162 114.188 83.7848 114.25 83.8394 114.323C83.894 114.396 83.9334 114.479 83.9555 114.568L84.6361 117.11L89.3125 119.809V114.41L87.4521 112.549C87.3882 112.485 87.3375 112.41 87.3029 112.326C87.2682 112.243 87.2504 112.153 87.2503 112.063C87.2502 111.973 87.268 111.883 87.3025 111.8C87.337 111.716 87.3876 111.64 87.4514 111.576C87.5153 111.513 87.5911 111.462 87.6745 111.427C87.7579 111.393 87.8474 111.375 87.9377 111.375C88.028 111.375 88.1175 111.392 88.201 111.427C88.2845 111.461 88.3603 111.512 88.4243 111.576L89.3125 112.465V110.688C89.3125 110.505 89.3849 110.33 89.5139 110.201C89.6428 110.072 89.8177 110 90 110C90.1823 110 90.3572 110.072 90.4861 110.201C90.6151 110.33 90.6875 110.505 90.6875 110.688V112.465L91.5771 111.576C91.7062 111.447 91.8812 111.374 92.0637 111.375C92.2461 111.375 92.421 111.447 92.5499 111.576C92.6789 111.706 92.7512 111.881 92.7511 112.063C92.7509 112.245 92.6783 112.42 92.5493 112.549L90.6875 114.41V119.809L95.3625 117.11L96.0445 114.566C96.0919 114.39 96.2073 114.24 96.3654 114.149C96.5235 114.058 96.7112 114.034 96.8874 114.081C97.0635 114.128 97.2136 114.244 97.3046 114.402C97.3957 114.56 97.4202 114.748 97.3728 114.924L97.0483 116.137L98.5883 115.248C98.7461 115.159 98.933 115.135 99.1082 115.183C99.2834 115.23 99.4327 115.345 99.5234 115.502C99.6142 115.659 99.6391 115.846 99.5927 116.022C99.5463 116.197 99.4324 116.347 99.2758 116.439L97.7358 117.327L98.9499 117.653C99.126 117.701 99.2761 117.816 99.3671 117.974C99.4582 118.132 99.4827 118.32 99.4353 118.496C99.3878 118.672 99.2724 118.822 99.1143 118.913C98.9563 119.004 98.7685 119.029 98.5924 118.981L96.0514 118.301L91.375 121L96.05 123.699L98.5924 123.019C98.7685 122.971 98.9562 122.996 99.1141 123.087C99.2721 123.178 99.3873 123.328 99.4346 123.505C99.4818 123.681 99.4571 123.868 99.366 124.026C99.2748 124.184 99.1246 124.3 98.9485 124.347L97.7344 124.673L99.2744 125.561C99.431 125.653 99.5449 125.803 99.5913 125.978C99.6377 126.154 99.6128 126.341 99.5221 126.498C99.4313 126.655 99.282 126.77 99.1068 126.817C98.9316 126.865 98.7447 126.841 98.5869 126.752L97.0469 125.863L97.3714 127.077C97.3964 127.165 97.4037 127.257 97.3928 127.348C97.382 127.438 97.3532 127.526 97.3082 127.605C97.2632 127.685 97.2028 127.754 97.1306 127.81C97.0584 127.866 96.9758 127.907 96.8876 127.93C96.7995 127.954 96.7075 127.96 96.6171 127.947C96.5267 127.935 96.4396 127.905 96.361 127.858C96.2824 127.812 96.2138 127.75 96.1592 127.677C96.1047 127.604 96.0652 127.521 96.0431 127.432L95.3625 124.89L90.6875 122.191V127.59L92.5479 129.451C92.677 129.58 92.7496 129.755 92.7497 129.937C92.7498 130.119 92.6775 130.294 92.5486 130.424C92.4197 130.553 92.2447 130.625 92.0623 130.625C91.8799 130.626 91.7048 130.553 91.5758 130.424L90.6861 129.535V131.312C90.6861 131.495 90.6137 131.67 90.4848 131.799C90.3558 131.928 90.181 132 89.9986 132H90Z"/>
</mask>
<path d="M90 132C89.8177 132 89.6428 131.928 89.5139 131.799C89.3849 131.67 89.3125 131.495 89.3125 131.312V129.535L88.4243 130.424C88.2952 130.553 88.1201 130.626 87.9377 130.625C87.7553 130.625 87.5804 130.553 87.4514 130.424C87.3225 130.294 87.2502 130.119 87.2503 129.937C87.2504 129.755 87.323 129.58 87.4521 129.451L89.3125 127.59V122.191L84.6375 124.89L83.9555 127.434C83.9081 127.61 83.7927 127.76 83.6346 127.851C83.4765 127.942 83.2888 127.966 83.1126 127.919C82.9365 127.872 82.7864 127.756 82.6954 127.598C82.6044 127.44 82.5798 127.252 82.6273 127.076L82.9531 125.863L81.4131 126.752C81.2553 126.841 81.0684 126.865 80.8932 126.817C80.718 126.77 80.5687 126.655 80.4779 126.498C80.3872 126.341 80.3623 126.154 80.4087 125.978C80.4551 125.803 80.569 125.653 80.7256 125.561L82.2656 124.673L81.0501 124.347C80.9629 124.323 80.8812 124.283 80.8096 124.228C80.738 124.173 80.6779 124.104 80.6329 124.026C80.5878 123.948 80.5586 123.861 80.5469 123.772C80.5352 123.682 80.5413 123.591 80.5648 123.504C80.5882 123.417 80.6286 123.335 80.6837 123.263C80.7388 123.192 80.8074 123.132 80.8857 123.087C80.9639 123.042 81.0503 123.012 81.1399 123.001C81.2294 122.989 81.3204 122.995 81.4076 123.019L83.9486 123.699L88.625 121L83.95 118.301L81.4063 118.981C81.2313 119.025 81.0461 118.998 80.8908 118.907C80.7354 118.815 80.6223 118.666 80.5758 118.492C80.5292 118.318 80.553 118.132 80.642 117.975C80.731 117.818 80.8781 117.703 81.0515 117.653L82.2656 117.327L80.7256 116.439C80.6468 116.394 80.5776 116.334 80.5221 116.263C80.4665 116.191 80.4257 116.109 80.4019 116.022C80.3782 115.934 80.372 115.843 80.3837 115.753C80.3954 115.663 80.4247 115.576 80.47 115.498C80.5154 115.419 80.5758 115.35 80.6478 115.295C80.7198 115.24 80.802 115.2 80.8897 115.177C80.9774 115.154 81.0687 115.148 81.1586 115.16C81.2484 115.173 81.3349 115.203 81.4131 115.248L82.9531 116.137L82.6273 114.922C82.6022 114.835 82.5949 114.743 82.6058 114.652C82.6166 114.562 82.6454 114.474 82.6904 114.395C82.7355 114.315 82.7958 114.246 82.868 114.19C82.9403 114.134 83.0228 114.093 83.111 114.07C83.1992 114.046 83.2911 114.04 83.3816 114.053C83.472 114.065 83.559 114.095 83.6376 114.142C83.7162 114.188 83.7848 114.25 83.8394 114.323C83.894 114.396 83.9334 114.479 83.9555 114.568L84.6361 117.11L89.3125 119.809V114.41L87.4521 112.549C87.3882 112.485 87.3375 112.41 87.3029 112.326C87.2682 112.243 87.2504 112.153 87.2503 112.063C87.2502 111.973 87.268 111.883 87.3025 111.8C87.337 111.716 87.3876 111.64 87.4514 111.576C87.5153 111.513 87.5911 111.462 87.6745 111.427C87.7579 111.393 87.8474 111.375 87.9377 111.375C88.028 111.375 88.1175 111.392 88.201 111.427C88.2845 111.461 88.3603 111.512 88.4243 111.576L89.3125 112.465V110.688C89.3125 110.505 89.3849 110.33 89.5139 110.201C89.6428 110.072 89.8177 110 90 110C90.1823 110 90.3572 110.072 90.4861 110.201C90.6151 110.33 90.6875 110.505 90.6875 110.688V112.465L91.5771 111.576C91.7062 111.447 91.8812 111.374 92.0637 111.375C92.2461 111.375 92.421 111.447 92.5499 111.576C92.6789 111.706 92.7512 111.881 92.7511 112.063C92.7509 112.245 92.6783 112.42 92.5493 112.549L90.6875 114.41V119.809L95.3625 117.11L96.0445 114.566C96.0919 114.39 96.2073 114.24 96.3654 114.149C96.5235 114.058 96.7112 114.034 96.8874 114.081C97.0635 114.128 97.2136 114.244 97.3046 114.402C97.3957 114.56 97.4202 114.748 97.3728 114.924L97.0483 116.137L98.5883 115.248C98.7461 115.159 98.933 115.135 99.1082 115.183C99.2834 115.23 99.4327 115.345 99.5234 115.502C99.6142 115.659 99.6391 115.846 99.5927 116.022C99.5463 116.197 99.4324 116.347 99.2758 116.439L97.7358 117.327L98.9499 117.653C99.126 117.701 99.2761 117.816 99.3671 117.974C99.4582 118.132 99.4827 118.32 99.4353 118.496C99.3878 118.672 99.2724 118.822 99.1143 118.913C98.9563 119.004 98.7685 119.029 98.5924 118.981L96.0514 118.301L91.375 121L96.05 123.699L98.5924 123.019C98.7685 122.971 98.9562 122.996 99.1141 123.087C99.2721 123.178 99.3873 123.328 99.4346 123.505C99.4818 123.681 99.4571 123.868 99.366 124.026C99.2748 124.184 99.1246 124.3 98.9485 124.347L97.7344 124.673L99.2744 125.561C99.431 125.653 99.5449 125.803 99.5913 125.978C99.6377 126.154 99.6128 126.341 99.5221 126.498C99.4313 126.655 99.282 126.77 99.1068 126.817C98.9316 126.865 98.7447 126.841 98.5869 126.752L97.0469 125.863L97.3714 127.077C97.3964 127.165 97.4037 127.257 97.3928 127.348C97.382 127.438 97.3532 127.526 97.3082 127.605C97.2632 127.685 97.2028 127.754 97.1306 127.81C97.0584 127.866 96.9758 127.907 96.8876 127.93C96.7995 127.954 96.7075 127.96 96.6171 127.947C96.5267 127.935 96.4396 127.905 96.361 127.858C96.2824 127.812 96.2138 127.75 96.1592 127.677C96.1047 127.604 96.0652 127.521 96.0431 127.432L95.3625 124.89L90.6875 122.191V127.59L92.5479 129.451C92.677 129.58 92.7496 129.755 92.7497 129.937C92.7498 130.119 92.6775 130.294 92.5486 130.424C92.4197 130.553 92.2447 130.625 92.0623 130.625C91.8799 130.626 91.7048 130.553 91.5758 130.424L90.6861 129.535V131.312C90.6861 131.495 90.6137 131.67 90.4848 131.799C90.3558 131.928 90.181 132 89.9986 132H90Z" fill="url(#paint6_linear_5_2)" stroke="url(#paint7_linear_5_2)" stroke-width="0.2" mask="url(#path-4-inside-4_5_2)"/>
<mask id="path-5-inside-5_5_2" fill="white">
<path d="M115 110C114.818 110 114.643 109.928 114.514 109.799C114.385 109.67 114.313 109.495 114.313 109.312V107.535L113.424 108.424C113.295 108.553 113.12 108.626 112.938 108.625C112.755 108.625 112.58 108.553 112.451 108.424C112.323 108.294 112.25 108.119 112.25 107.937C112.25 107.755 112.323 107.58 112.452 107.451L114.313 105.59V100.191L109.638 102.89L108.956 105.434C108.908 105.61 108.793 105.76 108.635 105.851C108.477 105.942 108.289 105.966 108.113 105.919C107.936 105.872 107.786 105.756 107.695 105.598C107.604 105.44 107.58 105.252 107.627 105.076L107.953 103.863L106.413 104.752C106.255 104.841 106.068 104.865 105.893 104.817C105.718 104.77 105.569 104.655 105.478 104.498C105.387 104.341 105.362 104.154 105.409 103.978C105.455 103.803 105.569 103.653 105.726 103.561L107.266 102.673L106.05 102.347C105.963 102.323 105.881 102.283 105.81 102.228C105.738 102.173 105.678 102.104 105.633 102.026C105.588 101.948 105.559 101.861 105.547 101.772C105.535 101.682 105.541 101.591 105.565 101.504C105.588 101.417 105.629 101.335 105.684 101.263C105.739 101.192 105.807 101.132 105.886 101.087C105.964 101.042 106.05 101.012 106.14 101.001C106.229 100.989 106.32 100.995 106.408 101.019L108.949 101.699L113.625 99L108.95 96.3009L106.406 96.9815C106.231 97.0251 106.046 96.9982 105.891 96.9066C105.735 96.815 105.622 96.666 105.576 96.4918C105.529 96.3176 105.553 96.132 105.642 95.9752C105.731 95.8183 105.878 95.7027 106.052 95.6532L107.266 95.3274L105.726 94.4391C105.647 94.3943 105.578 94.3344 105.522 94.2627C105.467 94.191 105.426 94.1091 105.402 94.0216C105.378 93.9341 105.372 93.8428 105.384 93.7529C105.395 93.6629 105.425 93.5762 105.47 93.4977C105.515 93.4192 105.576 93.3504 105.648 93.2953C105.72 93.2403 105.802 93.2 105.89 93.1768C105.977 93.1536 106.069 93.148 106.159 93.1603C106.248 93.1726 106.335 93.2025 106.413 93.2484L107.953 94.1366L107.627 92.9225C107.602 92.8347 107.595 92.7429 107.606 92.6523C107.617 92.5617 107.645 92.4741 107.69 92.3948C107.735 92.3154 107.796 92.2458 107.868 92.19C107.94 92.1342 108.023 92.0933 108.111 92.0698C108.199 92.0462 108.291 92.0405 108.382 92.0528C108.472 92.0652 108.559 92.0954 108.638 92.1418C108.716 92.1881 108.785 92.2497 108.839 92.3228C108.894 92.3959 108.933 92.4792 108.956 92.5677L109.636 95.1101L114.313 97.8092V92.4096L112.452 90.5492C112.388 90.4854 112.337 90.4096 112.303 90.3262C112.268 90.2428 112.25 90.1533 112.25 90.063C112.25 89.9727 112.268 89.8832 112.302 89.7997C112.337 89.7162 112.388 89.6404 112.451 89.5764C112.515 89.5125 112.591 89.4618 112.675 89.4272C112.758 89.3925 112.847 89.3747 112.938 89.3746C113.028 89.3746 113.118 89.3923 113.201 89.4268C113.284 89.4613 113.36 89.5119 113.424 89.5757L114.313 90.4654V88.6875C114.313 88.5052 114.385 88.3303 114.514 88.2014C114.643 88.0724 114.818 88 115 88C115.182 88 115.357 88.0724 115.486 88.2014C115.615 88.3303 115.688 88.5052 115.688 88.6875V90.4654L116.577 89.5757C116.706 89.4468 116.881 89.3745 117.064 89.3746C117.246 89.3747 117.421 89.4473 117.55 89.5764C117.679 89.7055 117.751 89.8805 117.751 90.063C117.751 90.2454 117.678 90.4203 117.549 90.5492L115.688 92.4096V97.8092L120.363 95.1101L121.045 92.5664C121.092 92.3902 121.207 92.2401 121.365 92.1491C121.523 92.0581 121.711 92.0336 121.887 92.081C122.064 92.1284 122.214 92.2438 122.305 92.4019C122.396 92.56 122.42 92.7477 122.373 92.9239L122.048 94.1366L123.588 93.2484C123.746 93.1586 123.933 93.135 124.108 93.1825C124.283 93.2301 124.433 93.345 124.523 93.5023C124.614 93.6595 124.639 93.8462 124.593 94.0218C124.546 94.1973 124.432 94.3473 124.276 94.4391L122.736 95.3274L123.95 95.6532C124.126 95.7007 124.276 95.8161 124.367 95.9742C124.458 96.1322 124.483 96.32 124.435 96.4961C124.388 96.6723 124.272 96.8224 124.114 96.9134C123.956 97.0044 123.769 97.0289 123.592 96.9815L121.051 96.3009L116.375 99L121.05 101.699L123.592 101.019C123.769 100.971 123.956 100.996 124.114 101.087C124.272 101.178 124.387 101.328 124.435 101.505C124.482 101.681 124.457 101.868 124.366 102.026C124.275 102.184 124.125 102.3 123.949 102.347L122.734 102.673L124.274 103.561C124.431 103.653 124.545 103.803 124.591 103.978C124.638 104.154 124.613 104.341 124.522 104.498C124.431 104.655 124.282 104.77 124.107 104.817C123.932 104.865 123.745 104.841 123.587 104.752L122.047 103.863L122.371 105.077C122.396 105.165 122.404 105.257 122.393 105.348C122.382 105.438 122.353 105.526 122.308 105.605C122.263 105.685 122.203 105.754 122.131 105.81C122.058 105.866 121.976 105.907 121.888 105.93C121.799 105.954 121.707 105.96 121.617 105.947C121.527 105.935 121.44 105.905 121.361 105.858C121.282 105.812 121.214 105.75 121.159 105.677C121.105 105.604 121.065 105.521 121.043 105.432L120.363 102.89L115.688 100.191V105.59L117.548 107.451C117.677 107.58 117.75 107.755 117.75 107.937C117.75 108.119 117.677 108.294 117.549 108.424C117.42 108.553 117.245 108.625 117.062 108.625C116.88 108.626 116.705 108.553 116.576 108.424L115.686 107.535V109.312C115.686 109.495 115.614 109.67 115.485 109.799C115.356 109.928 115.181 110 114.999 110H115Z"/>
</mask>
<path d="M115 110C114.818 110 114.643 109.928 114.514 109.799C114.385 109.67 114.313 109.495 114.313 109.312V107.535L113.424 108.424C113.295 108.553 113.12 108.626 112.938 108.625C112.755 108.625 112.58 108.553 112.451 108.424C112.323 108.294 112.25 108.119 112.25 107.937C112.25 107.755 112.323 107.58 112.452 107.451L114.313 105.59V100.191L109.638 102.89L108.956 105.434C108.908 105.61 108.793 105.76 108.635 105.851C108.477 105.942 108.289 105.966 108.113 105.919C107.936 105.872 107.786 105.756 107.695 105.598C107.604 105.44 107.58 105.252 107.627 105.076L107.953 103.863L106.413 104.752C106.255 104.841 106.068 104.865 105.893 104.817C105.718 104.77 105.569 104.655 105.478 104.498C105.387 104.341 105.362 104.154 105.409 103.978C105.455 103.803 105.569 103.653 105.726 103.561L107.266 102.673L106.05 102.347C105.963 102.323 105.881 102.283 105.81 102.228C105.738 102.173 105.678 102.104 105.633 102.026C105.588 101.948 105.559 101.861 105.547 101.772C105.535 101.682 105.541 101.591 105.565 101.504C105.588 101.417 105.629 101.335 105.684 101.263C105.739 101.192 105.807 101.132 105.886 101.087C105.964 101.042 106.05 101.012 106.14 101.001C106.229 100.989 106.32 100.995 106.408 101.019L108.949 101.699L113.625 99L108.95 96.3009L106.406 96.9815C106.231 97.0251 106.046 96.9982 105.891 96.9066C105.735 96.815 105.622 96.666 105.576 96.4918C105.529 96.3176 105.553 96.132 105.642 95.9752C105.731 95.8183 105.878 95.7027 106.052 95.6532L107.266 95.3274L105.726 94.4391C105.647 94.3943 105.578 94.3344 105.522 94.2627C105.467 94.191 105.426 94.1091 105.402 94.0216C105.378 93.9341 105.372 93.8428 105.384 93.7529C105.395 93.6629 105.425 93.5762 105.47 93.4977C105.515 93.4192 105.576 93.3504 105.648 93.2953C105.72 93.2403 105.802 93.2 105.89 93.1768C105.977 93.1536 106.069 93.148 106.159 93.1603C106.248 93.1726 106.335 93.2025 106.413 93.2484L107.953 94.1366L107.627 92.9225C107.602 92.8347 107.595 92.7429 107.606 92.6523C107.617 92.5617 107.645 92.4741 107.69 92.3948C107.735 92.3154 107.796 92.2458 107.868 92.19C107.94 92.1342 108.023 92.0933 108.111 92.0698C108.199 92.0462 108.291 92.0405 108.382 92.0528C108.472 92.0652 108.559 92.0954 108.638 92.1418C108.716 92.1881 108.785 92.2497 108.839 92.3228C108.894 92.3959 108.933 92.4792 108.956 92.5677L109.636 95.1101L114.313 97.8092V92.4096L112.452 90.5492C112.388 90.4854 112.337 90.4096 112.303 90.3262C112.268 90.2428 112.25 90.1533 112.25 90.063C112.25 89.9727 112.268 89.8832 112.302 89.7997C112.337 89.7162 112.388 89.6404 112.451 89.5764C112.515 89.5125 112.591 89.4618 112.675 89.4272C112.758 89.3925 112.847 89.3747 112.938 89.3746C113.028 89.3746 113.118 89.3923 113.201 89.4268C113.284 89.4613 113.36 89.5119 113.424 89.5757L114.313 90.4654V88.6875C114.313 88.5052 114.385 88.3303 114.514 88.2014C114.643 88.0724 114.818 88 115 88C115.182 88 115.357 88.0724 115.486 88.2014C115.615 88.3303 115.688 88.5052 115.688 88.6875V90.4654L116.577 89.5757C116.706 89.4468 116.881 89.3745 117.064 89.3746C117.246 89.3747 117.421 89.4473 117.55 89.5764C117.679 89.7055 117.751 89.8805 117.751 90.063C117.751 90.2454 117.678 90.4203 117.549 90.5492L115.688 92.4096V97.8092L120.363 95.1101L121.045 92.5664C121.092 92.3902 121.207 92.2401 121.365 92.1491C121.523 92.0581 121.711 92.0336 121.887 92.081C122.064 92.1284 122.214 92.2438 122.305 92.4019C122.396 92.56 122.42 92.7477 122.373 92.9239L122.048 94.1366L123.588 93.2484C123.746 93.1586 123.933 93.135 124.108 93.1825C124.283 93.2301 124.433 93.345 124.523 93.5023C124.614 93.6595 124.639 93.8462 124.593 94.0218C124.546 94.1973 124.432 94.3473 124.276 94.4391L122.736 95.3274L123.95 95.6532C124.126 95.7007 124.276 95.8161 124.367 95.9742C124.458 96.1322 124.483 96.32 124.435 96.4961C124.388 96.6723 124.272 96.8224 124.114 96.9134C123.956 97.0044 123.769 97.0289 123.592 96.9815L121.051 96.3009L116.375 99L121.05 101.699L123.592 101.019C123.769 100.971 123.956 100.996 124.114 101.087C124.272 101.178 124.387 101.328 124.435 101.505C124.482 101.681 124.457 101.868 124.366 102.026C124.275 102.184 124.125 102.3 123.949 102.347L122.734 102.673L124.274 103.561C124.431 103.653 124.545 103.803 124.591 103.978C124.638 104.154 124.613 104.341 124.522 104.498C124.431 104.655 124.282 104.77 124.107 104.817C123.932 104.865 123.745 104.841 123.587 104.752L122.047 103.863L122.371 105.077C122.396 105.165 122.404 105.257 122.393 105.348C122.382 105.438 122.353 105.526 122.308 105.605C122.263 105.685 122.203 105.754 122.131 105.81C122.058 105.866 121.976 105.907 121.888 105.93C121.799 105.954 121.707 105.96 121.617 105.947C121.527 105.935 121.44 105.905 121.361 105.858C121.282 105.812 121.214 105.75 121.159 105.677C121.105 105.604 121.065 105.521 121.043 105.432L120.363 102.89L115.688 100.191V105.59L117.548 107.451C117.677 107.58 117.75 107.755 117.75 107.937C117.75 108.119 117.677 108.294 117.549 108.424C117.42 108.553 117.245 108.625 117.062 108.625C116.88 108.626 116.705 108.553 116.576 108.424L115.686 107.535V109.312C115.686 109.495 115.614 109.67 115.485 109.799C115.356 109.928 115.181 110 114.999 110H115Z" fill="url(#paint8_linear_5_2)" stroke="url(#paint9_linear_5_2)" stroke-width="0.2" mask="url(#path-5-inside-5_5_2)"/>
<g filter="url(#filter0_b_5_2)">
<path d="M105.84 34.75C106.647 32.8393 107.1 30.75 107.1 28.5714C107.1 19.1071 98.6344 11.4286 88.2 11.4286C84.3216 11.4286 80.6991 12.5 77.7066 14.3214C72.2531 5.75 62.0747 0 50.4 0C32.9963 0 18.9 12.7857 18.9 28.5714C18.9 29.0536 18.9197 29.5357 18.9394 30.0179C7.91437 33.5357 0 43.0714 0 54.2857C0 68.4821 12.6984 80 28.35 80H100.8C114.719 80 126 69.7679 126 57.1429C126 46.0893 117.337 36.8571 105.84 34.75Z" fill="url(#paint10_linear_5_2)"/>
<path d="M105.379 34.5554L105.137 35.1295L105.75 35.2418C117.049 37.3126 125.5 46.3681 125.5 57.1429C125.5 69.4469 114.49 79.5 100.8 79.5H28.35C12.9276 79.5 0.5 68.1612 0.5 54.2857C0.5 43.3214 8.24105 33.9563 19.0914 30.4942L19.4545 30.3783L19.439 29.9975C19.4192 29.5136 19.4 29.0417 19.4 28.5714C19.4 13.1066 33.2254 0.5 50.4 0.5C61.9118 0.5 71.9273 6.1693 77.2847 14.5898L77.5478 15.0034L77.9665 14.7485C80.8809 12.9746 84.4135 11.9286 88.2 11.9286C98.4053 11.9286 106.6 19.4281 106.6 28.5714C106.6 30.6802 106.162 32.7035 105.379 34.5554Z" stroke="url(#paint11_linear_5_2)"/>
</g>
<mask id="path-8-inside-6_5_2" fill="white">
<path d="M89 95C88.8177 95 88.6428 94.9276 88.5139 94.7986C88.3849 94.6697 88.3125 94.4948 88.3125 94.3125V92.5346L87.4243 93.4242C87.2952 93.5532 87.1201 93.6255 86.9377 93.6254C86.7553 93.6253 86.5804 93.5527 86.4514 93.4236C86.3225 93.2945 86.2502 93.1195 86.2503 92.937C86.2504 92.7546 86.323 92.5797 86.4521 92.4508L88.3125 90.5904V85.1908L83.6375 87.8899L82.9555 90.4336C82.9081 90.6098 82.7927 90.7599 82.6346 90.8509C82.4765 90.9419 82.2888 90.9664 82.1126 90.919C81.9365 90.8716 81.7864 90.7562 81.6954 90.5981C81.6044 90.44 81.5798 90.2523 81.6273 90.0761L81.9531 88.8634L80.4131 89.7516C80.2553 89.8414 80.0684 89.865 79.8932 89.8175C79.718 89.7699 79.5687 89.6549 79.4779 89.4977C79.3872 89.3405 79.3623 89.1538 79.4087 88.9782C79.4551 88.8027 79.569 88.6527 79.7256 88.5609L81.2656 87.6726L80.0501 87.3468C79.9629 87.3233 79.8812 87.2829 79.8096 87.2278C79.738 87.1727 79.6779 87.1041 79.6329 87.0258C79.5878 86.9476 79.5586 86.8612 79.5469 86.7716C79.5352 86.6821 79.5413 86.5911 79.5648 86.5039C79.5882 86.4167 79.6286 86.3349 79.6837 86.2633C79.7388 86.1917 79.8074 86.1317 79.8857 86.0866C79.9639 86.0416 80.0503 86.0123 80.1399 86.0006C80.2294 85.989 80.3204 85.995 80.4076 86.0185L82.9486 86.6991L87.625 84L82.95 81.3009L80.4063 81.9815C80.2313 82.0251 80.0461 81.9982 79.8908 81.9066C79.7354 81.815 79.6223 81.666 79.5758 81.4918C79.5292 81.3176 79.553 81.132 79.642 80.9752C79.731 80.8183 79.8781 80.7027 80.0515 80.6532L81.2656 80.3274L79.7256 79.4391C79.6468 79.3943 79.5776 79.3344 79.5221 79.2627C79.4665 79.191 79.4257 79.1091 79.4019 79.0216C79.3782 78.9341 79.372 78.8428 79.3837 78.7529C79.3954 78.6629 79.4247 78.5762 79.47 78.4977C79.5154 78.4192 79.5758 78.3504 79.6478 78.2953C79.7198 78.2403 79.802 78.2 79.8897 78.1768C79.9774 78.1536 80.0687 78.148 80.1586 78.1603C80.2484 78.1726 80.3349 78.2025 80.4131 78.2484L81.9531 79.1366L81.6273 77.9225C81.6022 77.8347 81.5949 77.7429 81.6058 77.6523C81.6166 77.5617 81.6454 77.4741 81.6904 77.3948C81.7355 77.3154 81.7958 77.2458 81.868 77.19C81.9403 77.1342 82.0228 77.0933 82.111 77.0698C82.1992 77.0462 82.2911 77.0405 82.3816 77.0528C82.472 77.0652 82.559 77.0954 82.6376 77.1418C82.7162 77.1881 82.7848 77.2497 82.8394 77.3228C82.894 77.3959 82.9334 77.4792 82.9555 77.5677L83.6361 80.1101L88.3125 82.8092V77.4096L86.4521 75.5492C86.3882 75.4854 86.3375 75.4096 86.3029 75.3262C86.2682 75.2428 86.2504 75.1533 86.2503 75.063C86.2502 74.9727 86.268 74.8832 86.3025 74.7997C86.337 74.7162 86.3876 74.6404 86.4514 74.5764C86.5153 74.5125 86.5911 74.4618 86.6745 74.4272C86.7579 74.3925 86.8474 74.3747 86.9377 74.3746C87.028 74.3746 87.1175 74.3923 87.201 74.4268C87.2845 74.4613 87.3603 74.5119 87.4243 74.5757L88.3125 75.4654V73.6875C88.3125 73.5052 88.3849 73.3303 88.5139 73.2014C88.6428 73.0724 88.8177 73 89 73C89.1823 73 89.3572 73.0724 89.4861 73.2014C89.6151 73.3303 89.6875 73.5052 89.6875 73.6875V75.4654L90.5771 74.5757C90.7062 74.4468 90.8812 74.3745 91.0637 74.3746C91.2461 74.3747 91.421 74.4473 91.5499 74.5764C91.6789 74.7055 91.7512 74.8805 91.7511 75.063C91.7509 75.2454 91.6783 75.4203 91.5493 75.5492L89.6875 77.4096V82.8092L94.3625 80.1101L95.0445 77.5664C95.0919 77.3902 95.2073 77.2401 95.3654 77.1491C95.5235 77.0581 95.7112 77.0336 95.8874 77.081C96.0635 77.1284 96.2136 77.2438 96.3046 77.4019C96.3957 77.56 96.4202 77.7477 96.3728 77.9239L96.0483 79.1366L97.5883 78.2484C97.7461 78.1586 97.933 78.135 98.1082 78.1825C98.2834 78.2301 98.4327 78.345 98.5234 78.5023C98.6142 78.6595 98.6391 78.8462 98.5927 79.0218C98.5463 79.1973 98.4324 79.3473 98.2758 79.4391L96.7358 80.3274L97.9499 80.6532C98.126 80.7007 98.2761 80.8161 98.3671 80.9742C98.4582 81.1322 98.4827 81.32 98.4353 81.4961C98.3878 81.6723 98.2724 81.8224 98.1143 81.9134C97.9563 82.0044 97.7685 82.0289 97.5924 81.9815L95.0514 81.3009L90.375 84L95.05 86.6991L97.5924 86.0185C97.7685 85.9713 97.9562 85.996 98.1141 86.0871C98.2721 86.1783 98.3873 86.3284 98.4346 86.5046C98.4818 86.6807 98.4571 86.8684 98.366 87.0263C98.2748 87.1843 98.1246 87.2995 97.9485 87.3468L96.7344 87.6726L98.2744 88.5609C98.431 88.6527 98.5449 88.8027 98.5913 88.9782C98.6377 89.1538 98.6128 89.3405 98.5221 89.4977C98.4313 89.6549 98.282 89.7699 98.1068 89.8175C97.9316 89.865 97.7447 89.8414 97.5869 89.7516L96.0469 88.8634L96.3714 90.0775C96.3964 90.1653 96.4037 90.2571 96.3928 90.3477C96.382 90.4383 96.3532 90.5259 96.3082 90.6052C96.2632 90.6846 96.2028 90.7542 96.1306 90.81C96.0584 90.8658 95.9758 90.9067 95.8876 90.9302C95.7995 90.9538 95.7075 90.9595 95.6171 90.9472C95.5267 90.9348 95.4396 90.9046 95.361 90.8582C95.2824 90.8119 95.2138 90.7503 95.1592 90.6772C95.1047 90.6041 95.0652 90.5208 95.0431 90.4323L94.3625 87.8899L89.6875 85.1908V90.5904L91.5479 92.4508C91.677 92.5797 91.7496 92.7546 91.7497 92.937C91.7498 93.1195 91.6775 93.2945 91.5486 93.4236C91.4197 93.5527 91.2447 93.6253 91.0623 93.6254C90.8799 93.6255 90.7048 93.5532 90.5758 93.4242L89.6861 92.5346V94.3125C89.6861 94.4948 89.6137 94.6697 89.4848 94.7986C89.3558 94.9276 89.181 95 88.9986 95H89Z"/>
</mask>
<path d="M89 95C88.8177 95 88.6428 94.9276 88.5139 94.7986C88.3849 94.6697 88.3125 94.4948 88.3125 94.3125V92.5346L87.4243 93.4242C87.2952 93.5532 87.1201 93.6255 86.9377 93.6254C86.7553 93.6253 86.5804 93.5527 86.4514 93.4236C86.3225 93.2945 86.2502 93.1195 86.2503 92.937C86.2504 92.7546 86.323 92.5797 86.4521 92.4508L88.3125 90.5904V85.1908L83.6375 87.8899L82.9555 90.4336C82.9081 90.6098 82.7927 90.7599 82.6346 90.8509C82.4765 90.9419 82.2888 90.9664 82.1126 90.919C81.9365 90.8716 81.7864 90.7562 81.6954 90.5981C81.6044 90.44 81.5798 90.2523 81.6273 90.0761L81.9531 88.8634L80.4131 89.7516C80.2553 89.8414 80.0684 89.865 79.8932 89.8175C79.718 89.7699 79.5687 89.6549 79.4779 89.4977C79.3872 89.3405 79.3623 89.1538 79.4087 88.9782C79.4551 88.8027 79.569 88.6527 79.7256 88.5609L81.2656 87.6726L80.0501 87.3468C79.9629 87.3233 79.8812 87.2829 79.8096 87.2278C79.738 87.1727 79.6779 87.1041 79.6329 87.0258C79.5878 86.9476 79.5586 86.8612 79.5469 86.7716C79.5352 86.6821 79.5413 86.5911 79.5648 86.5039C79.5882 86.4167 79.6286 86.3349 79.6837 86.2633C79.7388 86.1917 79.8074 86.1317 79.8857 86.0866C79.9639 86.0416 80.0503 86.0123 80.1399 86.0006C80.2294 85.989 80.3204 85.995 80.4076 86.0185L82.9486 86.6991L87.625 84L82.95 81.3009L80.4063 81.9815C80.2313 82.0251 80.0461 81.9982 79.8908 81.9066C79.7354 81.815 79.6223 81.666 79.5758 81.4918C79.5292 81.3176 79.553 81.132 79.642 80.9752C79.731 80.8183 79.8781 80.7027 80.0515 80.6532L81.2656 80.3274L79.7256 79.4391C79.6468 79.3943 79.5776 79.3344 79.5221 79.2627C79.4665 79.191 79.4257 79.1091 79.4019 79.0216C79.3782 78.9341 79.372 78.8428 79.3837 78.7529C79.3954 78.6629 79.4247 78.5762 79.47 78.4977C79.5154 78.4192 79.5758 78.3504 79.6478 78.2953C79.7198 78.2403 79.802 78.2 79.8897 78.1768C79.9774 78.1536 80.0687 78.148 80.1586 78.1603C80.2484 78.1726 80.3349 78.2025 80.4131 78.2484L81.9531 79.1366L81.6273 77.9225C81.6022 77.8347 81.5949 77.7429 81.6058 77.6523C81.6166 77.5617 81.6454 77.4741 81.6904 77.3948C81.7355 77.3154 81.7958 77.2458 81.868 77.19C81.9403 77.1342 82.0228 77.0933 82.111 77.0698C82.1992 77.0462 82.2911 77.0405 82.3816 77.0528C82.472 77.0652 82.559 77.0954 82.6376 77.1418C82.7162 77.1881 82.7848 77.2497 82.8394 77.3228C82.894 77.3959 82.9334 77.4792 82.9555 77.5677L83.6361 80.1101L88.3125 82.8092V77.4096L86.4521 75.5492C86.3882 75.4854 86.3375 75.4096 86.3029 75.3262C86.2682 75.2428 86.2504 75.1533 86.2503 75.063C86.2502 74.9727 86.268 74.8832 86.3025 74.7997C86.337 74.7162 86.3876 74.6404 86.4514 74.5764C86.5153 74.5125 86.5911 74.4618 86.6745 74.4272C86.7579 74.3925 86.8474 74.3747 86.9377 74.3746C87.028 74.3746 87.1175 74.3923 87.201 74.4268C87.2845 74.4613 87.3603 74.5119 87.4243 74.5757L88.3125 75.4654V73.6875C88.3125 73.5052 88.3849 73.3303 88.5139 73.2014C88.6428 73.0724 88.8177 73 89 73C89.1823 73 89.3572 73.0724 89.4861 73.2014C89.6151 73.3303 89.6875 73.5052 89.6875 73.6875V75.4654L90.5771 74.5757C90.7062 74.4468 90.8812 74.3745 91.0637 74.3746C91.2461 74.3747 91.421 74.4473 91.5499 74.5764C91.6789 74.7055 91.7512 74.8805 91.7511 75.063C91.7509 75.2454 91.6783 75.4203 91.5493 75.5492L89.6875 77.4096V82.8092L94.3625 80.1101L95.0445 77.5664C95.0919 77.3902 95.2073 77.2401 95.3654 77.1491C95.5235 77.0581 95.7112 77.0336 95.8874 77.081C96.0635 77.1284 96.2136 77.2438 96.3046 77.4019C96.3957 77.56 96.4202 77.7477 96.3728 77.9239L96.0483 79.1366L97.5883 78.2484C97.7461 78.1586 97.933 78.135 98.1082 78.1825C98.2834 78.2301 98.4327 78.345 98.5234 78.5023C98.6142 78.6595 98.6391 78.8462 98.5927 79.0218C98.5463 79.1973 98.4324 79.3473 98.2758 79.4391L96.7358 80.3274L97.9499 80.6532C98.126 80.7007 98.2761 80.8161 98.3671 80.9742C98.4582 81.1322 98.4827 81.32 98.4353 81.4961C98.3878 81.6723 98.2724 81.8224 98.1143 81.9134C97.9563 82.0044 97.7685 82.0289 97.5924 81.9815L95.0514 81.3009L90.375 84L95.05 86.6991L97.5924 86.0185C97.7685 85.9713 97.9562 85.996 98.1141 86.0871C98.2721 86.1783 98.3873 86.3284 98.4346 86.5046C98.4818 86.6807 98.4571 86.8684 98.366 87.0263C98.2748 87.1843 98.1246 87.2995 97.9485 87.3468L96.7344 87.6726L98.2744 88.5609C98.431 88.6527 98.5449 88.8027 98.5913 88.9782C98.6377 89.1538 98.6128 89.3405 98.5221 89.4977C98.4313 89.6549 98.282 89.7699 98.1068 89.8175C97.9316 89.865 97.7447 89.8414 97.5869 89.7516L96.0469 88.8634L96.3714 90.0775C96.3964 90.1653 96.4037 90.2571 96.3928 90.3477C96.382 90.4383 96.3532 90.5259 96.3082 90.6052C96.2632 90.6846 96.2028 90.7542 96.1306 90.81C96.0584 90.8658 95.9758 90.9067 95.8876 90.9302C95.7995 90.9538 95.7075 90.9595 95.6171 90.9472C95.5267 90.9348 95.4396 90.9046 95.361 90.8582C95.2824 90.8119 95.2138 90.7503 95.1592 90.6772C95.1047 90.6041 95.0652 90.5208 95.0431 90.4323L94.3625 87.8899L89.6875 85.1908V90.5904L91.5479 92.4508C91.677 92.5797 91.7496 92.7546 91.7497 92.937C91.7498 93.1195 91.6775 93.2945 91.5486 93.4236C91.4197 93.5527 91.2447 93.6253 91.0623 93.6254C90.8799 93.6255 90.7048 93.5532 90.5758 93.4242L89.6861 92.5346V94.3125C89.6861 94.4948 89.6137 94.6697 89.4848 94.7986C89.3558 94.9276 89.181 95 88.9986 95H89Z" fill="url(#paint12_linear_5_2)" stroke="url(#paint13_linear_5_2)" stroke-width="0.2" mask="url(#path-8-inside-6_5_2)"/>
<mask id="path-9-inside-7_5_2" fill="white">
<path d="M62 79C61.8177 79 61.6428 78.9276 61.5139 78.7986C61.3849 78.6697 61.3125 78.4948 61.3125 78.3125V76.5346L60.4243 77.4242C60.2952 77.5532 60.1201 77.6255 59.9377 77.6254C59.7553 77.6253 59.5804 77.5527 59.4514 77.4236C59.3225 77.2945 59.2502 77.1195 59.2503 76.937C59.2504 76.7546 59.323 76.5797 59.4521 76.4508L61.3125 74.5904V69.1908L56.6375 71.8899L55.9555 74.4336C55.9081 74.6098 55.7927 74.7599 55.6346 74.8509C55.4765 74.9419 55.2888 74.9664 55.1126 74.919C54.9365 74.8716 54.7864 74.7562 54.6954 74.5981C54.6044 74.44 54.5798 74.2523 54.6273 74.0761L54.9531 72.8634L53.4131 73.7516C53.2553 73.8414 53.0684 73.865 52.8932 73.8175C52.718 73.7699 52.5687 73.6549 52.4779 73.4977C52.3872 73.3405 52.3623 73.1538 52.4087 72.9782C52.4551 72.8027 52.569 72.6527 52.7256 72.5609L54.2656 71.6726L53.0501 71.3468C52.9629 71.3233 52.8812 71.2829 52.8096 71.2278C52.738 71.1727 52.6779 71.1041 52.6329 71.0258C52.5878 70.9476 52.5586 70.8612 52.5469 70.7716C52.5352 70.6821 52.5413 70.5911 52.5648 70.5039C52.5882 70.4167 52.6286 70.3349 52.6837 70.2633C52.7388 70.1917 52.8074 70.1317 52.8857 70.0866C52.9639 70.0416 53.0503 70.0123 53.1399 70.0006C53.2294 69.989 53.3204 69.995 53.4076 70.0185L55.9486 70.6991L60.625 68L55.95 65.3009L53.4063 65.9815C53.2313 66.0251 53.0461 65.9982 52.8908 65.9066C52.7354 65.815 52.6223 65.666 52.5758 65.4918C52.5292 65.3176 52.553 65.132 52.642 64.9752C52.731 64.8183 52.8781 64.7027 53.0515 64.6532L54.2656 64.3274L52.7256 63.4391C52.6468 63.3943 52.5776 63.3344 52.5221 63.2627C52.4665 63.191 52.4257 63.1091 52.4019 63.0216C52.3782 62.9341 52.372 62.8428 52.3837 62.7529C52.3954 62.6629 52.4247 62.5762 52.47 62.4977C52.5154 62.4192 52.5758 62.3504 52.6478 62.2953C52.7198 62.2403 52.802 62.2 52.8897 62.1768C52.9774 62.1536 53.0687 62.148 53.1586 62.1603C53.2484 62.1726 53.3349 62.2025 53.4131 62.2484L54.9531 63.1366L54.6273 61.9225C54.6022 61.8347 54.5949 61.7429 54.6058 61.6523C54.6166 61.5617 54.6454 61.4741 54.6904 61.3948C54.7355 61.3154 54.7958 61.2458 54.868 61.19C54.9403 61.1342 55.0228 61.0933 55.111 61.0698C55.1992 61.0462 55.2911 61.0405 55.3816 61.0528C55.472 61.0652 55.559 61.0954 55.6376 61.1418C55.7162 61.1881 55.7848 61.2497 55.8394 61.3228C55.894 61.3959 55.9334 61.4792 55.9555 61.5677L56.6361 64.1101L61.3125 66.8092V61.4096L59.4521 59.5492C59.3882 59.4854 59.3375 59.4096 59.3029 59.3262C59.2682 59.2428 59.2504 59.1533 59.2503 59.063C59.2502 58.9727 59.268 58.8832 59.3025 58.7997C59.337 58.7162 59.3876 58.6404 59.4514 58.5764C59.5153 58.5125 59.5911 58.4618 59.6745 58.4272C59.7579 58.3925 59.8474 58.3747 59.9377 58.3746C60.028 58.3746 60.1175 58.3923 60.201 58.4268C60.2845 58.4613 60.3603 58.5119 60.4243 58.5757L61.3125 59.4654V57.6875C61.3125 57.5052 61.3849 57.3303 61.5139 57.2014C61.6428 57.0724 61.8177 57 62 57C62.1823 57 62.3572 57.0724 62.4861 57.2014C62.6151 57.3303 62.6875 57.5052 62.6875 57.6875V59.4654L63.5771 58.5757C63.7062 58.4468 63.8812 58.3745 64.0637 58.3746C64.2461 58.3747 64.421 58.4473 64.5499 58.5764C64.6789 58.7055 64.7512 58.8805 64.7511 59.063C64.7509 59.2454 64.6783 59.4203 64.5493 59.5492L62.6875 61.4096V66.8092L67.3625 64.1101L68.0445 61.5664C68.0919 61.3902 68.2073 61.2401 68.3654 61.1491C68.5235 61.0581 68.7112 61.0336 68.8874 61.081C69.0635 61.1284 69.2136 61.2438 69.3046 61.4019C69.3957 61.56 69.4202 61.7477 69.3728 61.9239L69.0483 63.1366L70.5883 62.2484C70.7461 62.1586 70.933 62.135 71.1082 62.1825C71.2834 62.2301 71.4327 62.345 71.5234 62.5023C71.6142 62.6595 71.6391 62.8462 71.5927 63.0218C71.5463 63.1973 71.4324 63.3473 71.2758 63.4391L69.7358 64.3274L70.9499 64.6532C71.126 64.7007 71.2761 64.8161 71.3671 64.9742C71.4582 65.1322 71.4827 65.32 71.4353 65.4961C71.3878 65.6723 71.2724 65.8224 71.1143 65.9134C70.9563 66.0044 70.7685 66.0289 70.5924 65.9815L68.0514 65.3009L63.375 68L68.05 70.6991L70.5924 70.0185C70.7685 69.9713 70.9562 69.996 71.1141 70.0871C71.2721 70.1783 71.3873 70.3284 71.4346 70.5046C71.4818 70.6807 71.4571 70.8684 71.366 71.0263C71.2748 71.1843 71.1246 71.2995 70.9485 71.3468L69.7344 71.6726L71.2744 72.5609C71.431 72.6527 71.5449 72.8027 71.5913 72.9782C71.6377 73.1538 71.6128 73.3405 71.5221 73.4977C71.4313 73.6549 71.282 73.7699 71.1068 73.8175C70.9316 73.865 70.7447 73.8414 70.5869 73.7516L69.0469 72.8634L69.3714 74.0775C69.3964 74.1653 69.4037 74.2571 69.3928 74.3477C69.382 74.4383 69.3532 74.5259 69.3082 74.6052C69.2632 74.6846 69.2028 74.7542 69.1306 74.81C69.0584 74.8658 68.9758 74.9067 68.8876 74.9302C68.7995 74.9538 68.7075 74.9595 68.6171 74.9472C68.5267 74.9348 68.4396 74.9046 68.361 74.8582C68.2824 74.8119 68.2138 74.7503 68.1592 74.6772C68.1047 74.6041 68.0652 74.5208 68.0431 74.4323L67.3625 71.8899L62.6875 69.1908V74.5904L64.5479 76.4508C64.677 76.5797 64.7496 76.7546 64.7497 76.937C64.7498 77.1195 64.6775 77.2945 64.5486 77.4236C64.4197 77.5527 64.2447 77.6253 64.0623 77.6254C63.8799 77.6255 63.7048 77.5532 63.5758 77.4242L62.6861 76.5346V78.3125C62.6861 78.4948 62.6137 78.6697 62.4848 78.7986C62.3558 78.9276 62.181 79 61.9986 79H62Z"/>
</mask>
<path d="M62 79C61.8177 79 61.6428 78.9276 61.5139 78.7986C61.3849 78.6697 61.3125 78.4948 61.3125 78.3125V76.5346L60.4243 77.4242C60.2952 77.5532 60.1201 77.6255 59.9377 77.6254C59.7553 77.6253 59.5804 77.5527 59.4514 77.4236C59.3225 77.2945 59.2502 77.1195 59.2503 76.937C59.2504 76.7546 59.323 76.5797 59.4521 76.4508L61.3125 74.5904V69.1908L56.6375 71.8899L55.9555 74.4336C55.9081 74.6098 55.7927 74.7599 55.6346 74.8509C55.4765 74.9419 55.2888 74.9664 55.1126 74.919C54.9365 74.8716 54.7864 74.7562 54.6954 74.5981C54.6044 74.44 54.5798 74.2523 54.6273 74.0761L54.9531 72.8634L53.4131 73.7516C53.2553 73.8414 53.0684 73.865 52.8932 73.8175C52.718 73.7699 52.5687 73.6549 52.4779 73.4977C52.3872 73.3405 52.3623 73.1538 52.4087 72.9782C52.4551 72.8027 52.569 72.6527 52.7256 72.5609L54.2656 71.6726L53.0501 71.3468C52.9629 71.3233 52.8812 71.2829 52.8096 71.2278C52.738 71.1727 52.6779 71.1041 52.6329 71.0258C52.5878 70.9476 52.5586 70.8612 52.5469 70.7716C52.5352 70.6821 52.5413 70.5911 52.5648 70.5039C52.5882 70.4167 52.6286 70.3349 52.6837 70.2633C52.7388 70.1917 52.8074 70.1317 52.8857 70.0866C52.9639 70.0416 53.0503 70.0123 53.1399 70.0006C53.2294 69.989 53.3204 69.995 53.4076 70.0185L55.9486 70.6991L60.625 68L55.95 65.3009L53.4063 65.9815C53.2313 66.0251 53.0461 65.9982 52.8908 65.9066C52.7354 65.815 52.6223 65.666 52.5758 65.4918C52.5292 65.3176 52.553 65.132 52.642 64.9752C52.731 64.8183 52.8781 64.7027 53.0515 64.6532L54.2656 64.3274L52.7256 63.4391C52.6468 63.3943 52.5776 63.3344 52.5221 63.2627C52.4665 63.191 52.4257 63.1091 52.4019 63.0216C52.3782 62.9341 52.372 62.8428 52.3837 62.7529C52.3954 62.6629 52.4247 62.5762 52.47 62.4977C52.5154 62.4192 52.5758 62.3504 52.6478 62.2953C52.7198 62.2403 52.802 62.2 52.8897 62.1768C52.9774 62.1536 53.0687 62.148 53.1586 62.1603C53.2484 62.1726 53.3349 62.2025 53.4131 62.2484L54.9531 63.1366L54.6273 61.9225C54.6022 61.8347 54.5949 61.7429 54.6058 61.6523C54.6166 61.5617 54.6454 61.4741 54.6904 61.3948C54.7355 61.3154 54.7958 61.2458 54.868 61.19C54.9403 61.1342 55.0228 61.0933 55.111 61.0698C55.1992 61.0462 55.2911 61.0405 55.3816 61.0528C55.472 61.0652 55.559 61.0954 55.6376 61.1418C55.7162 61.1881 55.7848 61.2497 55.8394 61.3228C55.894 61.3959 55.9334 61.4792 55.9555 61.5677L56.6361 64.1101L61.3125 66.8092V61.4096L59.4521 59.5492C59.3882 59.4854 59.3375 59.4096 59.3029 59.3262C59.2682 59.2428 59.2504 59.1533 59.2503 59.063C59.2502 58.9727 59.268 58.8832 59.3025 58.7997C59.337 58.7162 59.3876 58.6404 59.4514 58.5764C59.5153 58.5125 59.5911 58.4618 59.6745 58.4272C59.7579 58.3925 59.8474 58.3747 59.9377 58.3746C60.028 58.3746 60.1175 58.3923 60.201 58.4268C60.2845 58.4613 60.3603 58.5119 60.4243 58.5757L61.3125 59.4654V57.6875C61.3125 57.5052 61.3849 57.3303 61.5139 57.2014C61.6428 57.0724 61.8177 57 62 57C62.1823 57 62.3572 57.0724 62.4861 57.2014C62.6151 57.3303 62.6875 57.5052 62.6875 57.6875V59.4654L63.5771 58.5757C63.7062 58.4468 63.8812 58.3745 64.0637 58.3746C64.2461 58.3747 64.421 58.4473 64.5499 58.5764C64.6789 58.7055 64.7512 58.8805 64.7511 59.063C64.7509 59.2454 64.6783 59.4203 64.5493 59.5492L62.6875 61.4096V66.8092L67.3625 64.1101L68.0445 61.5664C68.0919 61.3902 68.2073 61.2401 68.3654 61.1491C68.5235 61.0581 68.7112 61.0336 68.8874 61.081C69.0635 61.1284 69.2136 61.2438 69.3046 61.4019C69.3957 61.56 69.4202 61.7477 69.3728 61.9239L69.0483 63.1366L70.5883 62.2484C70.7461 62.1586 70.933 62.135 71.1082 62.1825C71.2834 62.2301 71.4327 62.345 71.5234 62.5023C71.6142 62.6595 71.6391 62.8462 71.5927 63.0218C71.5463 63.1973 71.4324 63.3473 71.2758 63.4391L69.7358 64.3274L70.9499 64.6532C71.126 64.7007 71.2761 64.8161 71.3671 64.9742C71.4582 65.1322 71.4827 65.32 71.4353 65.4961C71.3878 65.6723 71.2724 65.8224 71.1143 65.9134C70.9563 66.0044 70.7685 66.0289 70.5924 65.9815L68.0514 65.3009L63.375 68L68.05 70.6991L70.5924 70.0185C70.7685 69.9713 70.9562 69.996 71.1141 70.0871C71.2721 70.1783 71.3873 70.3284 71.4346 70.5046C71.4818 70.6807 71.4571 70.8684 71.366 71.0263C71.2748 71.1843 71.1246 71.2995 70.9485 71.3468L69.7344 71.6726L71.2744 72.5609C71.431 72.6527 71.5449 72.8027 71.5913 72.9782C71.6377 73.1538 71.6128 73.3405 71.5221 73.4977C71.4313 73.6549 71.282 73.7699 71.1068 73.8175C70.9316 73.865 70.7447 73.8414 70.5869 73.7516L69.0469 72.8634L69.3714 74.0775C69.3964 74.1653 69.4037 74.2571 69.3928 74.3477C69.382 74.4383 69.3532 74.5259 69.3082 74.6052C69.2632 74.6846 69.2028 74.7542 69.1306 74.81C69.0584 74.8658 68.9758 74.9067 68.8876 74.9302C68.7995 74.9538 68.7075 74.9595 68.6171 74.9472C68.5267 74.9348 68.4396 74.9046 68.361 74.8582C68.2824 74.8119 68.2138 74.7503 68.1592 74.6772C68.1047 74.6041 68.0652 74.5208 68.0431 74.4323L67.3625 71.8899L62.6875 69.1908V74.5904L64.5479 76.4508C64.677 76.5797 64.7496 76.7546 64.7497 76.937C64.7498 77.1195 64.6775 77.2945 64.5486 77.4236C64.4197 77.5527 64.2447 77.6253 64.0623 77.6254C63.8799 77.6255 63.7048 77.5532 63.5758 77.4242L62.6861 76.5346V78.3125C62.6861 78.4948 62.6137 78.6697 62.4848 78.7986C62.3558 78.9276 62.181 79 61.9986 79H62Z" fill="url(#paint14_linear_5_2)" stroke="url(#paint15_linear_5_2)" stroke-width="0.2" mask="url(#path-9-inside-7_5_2)"/>
<g filter="url(#filter1_b_5_2)">
<path d="M129.32 33.9313C129.948 32.4504 130.3 30.8313 130.3 29.1429C130.3 21.808 123.716 15.8571 115.6 15.8571C112.583 15.8571 109.766 16.6875 107.438 18.0991C103.197 11.4562 95.2803 7 86.2 7C72.6637 7 61.7 16.9089 61.7 29.1429C61.7 29.5165 61.7153 29.8902 61.7306 30.2638C53.1556 32.9902 47 40.3804 47 49.0714C47 60.0737 56.8766 69 69.05 69H125.4C136.226 69 145 61.0701 145 51.2857C145 42.7192 138.262 35.5643 129.32 33.9313Z" fill="url(#paint16_linear_5_2)"/>
<path d="M128.86 33.7361L128.616 34.3109L129.23 34.4231C137.975 36.0201 144.5 42.9993 144.5 51.2857C144.5 60.7476 135.999 68.5 125.4 68.5H69.05C57.1039 68.5 47.5 59.7511 47.5 49.0714C47.5 40.6315 53.481 33.4114 61.8821 30.7403L62.2458 30.6247L62.2302 30.2434C62.2148 29.868 62.2 29.5046 62.2 29.1429C62.2 17.2315 72.8911 7.5 86.2 7.5C95.1182 7.5 102.872 11.8763 107.017 18.3682L107.28 18.78L107.698 18.5266C109.947 17.1623 112.675 16.3571 115.6 16.3571C123.488 16.3571 129.8 22.1306 129.8 29.1429C129.8 30.7612 129.463 32.3142 128.86 33.7361Z" stroke="url(#paint17_linear_5_2)"/>
</g>
<path d="M28 44.396C28 33.396 38 23.396 44 23.396" stroke="#B0C3FF" stroke-opacity="0.28" stroke-width="3" stroke-linecap="round"/>
<path d="M68 30.5C68.4 18.5 77.8333 14.5 82.5 14" stroke="#B0C3FF" stroke-opacity="0.67" stroke-width="3" stroke-linecap="round"/>
<defs>
<filter id="filter0_b_5_2" x="-8" y="-8" width="142" height="96" filterUnits="userSpaceOnUse" color-interpolation-filters="sRGB">
<feFlood flood-opacity="0" result="BackgroundImageFix"/>
<feGaussianBlur in="BackgroundImage" stdDeviation="4"/>
<feComposite in2="SourceAlpha" operator="in" result="effect1_backgroundBlur_5_2"/>
<feBlend mode="normal" in="SourceGraphic" in2="effect1_backgroundBlur_5_2" result="shape"/>
</filter>
<filter id="filter1_b_5_2" x="39" y="-1" width="114" height="78" filterUnits="userSpaceOnUse" color-interpolation-filters="sRGB">
<feFlood flood-opacity="0" result="BackgroundImageFix"/>
<feGaussianBlur in="BackgroundImage" stdDeviation="4"/>
<feComposite in2="SourceAlpha" operator="in" result="effect1_backgroundBlur_5_2"/>
<feBlend mode="normal" in="SourceGraphic" in2="effect1_backgroundBlur_5_2" result="shape"/>
</filter>
<linearGradient id="paint0_linear_5_2" x1="34.9967" y1="70" x2="34.9967" y2="92" gradientUnits="userSpaceOnUse">
<stop stop-color="white"/>
<stop offset="1" stop-color="#4D9AE1" stop-opacity="0.35"/>
</linearGradient>
<linearGradient id="paint1_linear_5_2" x1="34.9967" y1="70" x2="34.9967" y2="92" gradientUnits="userSpaceOnUse">
<stop stop-color="white" stop-opacity="0.28"/>
<stop offset="1" stop-color="white" stop-opacity="0"/>
</linearGradient>
<linearGradient id="paint2_linear_5_2" x1="104.997" y1="51" x2="104.997" y2="73" gradientUnits="userSpaceOnUse">
<stop stop-color="white"/>
<stop offset="1" stop-color="#4D9AE1" stop-opacity="0.35"/>
</linearGradient>
<linearGradient id="paint3_linear_5_2" x1="104.997" y1="51" x2="104.997" y2="73" gradientUnits="userSpaceOnUse">
<stop stop-color="white" stop-opacity="0.28"/>
<stop offset="1" stop-color="white" stop-opacity="0"/>
</linearGradient>
<linearGradient id="paint4_linear_5_2" x1="62.9967" y1="93" x2="62.9967" y2="115" gradientUnits="userSpaceOnUse">
<stop stop-color="white"/>
<stop offset="1" stop-color="#4D9AE1" stop-opacity="0.35"/>
</linearGradient>
<linearGradient id="paint5_linear_5_2" x1="62.9967" y1="93" x2="62.9967" y2="115" gradientUnits="userSpaceOnUse">
<stop stop-color="white" stop-opacity="0.28"/>
<stop offset="1" stop-color="white" stop-opacity="0"/>
</linearGradient>
<linearGradient id="paint6_linear_5_2" x1="89.9967" y1="110" x2="89.9967" y2="132" gradientUnits="userSpaceOnUse">
<stop stop-color="white"/>
<stop offset="1" stop-color="#4D9AE1" stop-opacity="0.35"/>
</linearGradient>
<linearGradient id="paint7_linear_5_2" x1="89.9967" y1="110" x2="89.9967" y2="132" gradientUnits="userSpaceOnUse">
<stop stop-color="white" stop-opacity="0.28"/>
<stop offset="1" stop-color="white" stop-opacity="0"/>
</linearGradient>
<linearGradient id="paint8_linear_5_2" x1="114.997" y1="88" x2="114.997" y2="110" gradientUnits="userSpaceOnUse">
<stop stop-color="white"/>
<stop offset="1" stop-color="#4D9AE1" stop-opacity="0.35"/>
</linearGradient>
<linearGradient id="paint9_linear_5_2" x1="114.997" y1="88" x2="114.997" y2="110" gradientUnits="userSpaceOnUse">
<stop stop-color="white" stop-opacity="0.28"/>
<stop offset="1" stop-color="white" stop-opacity="0"/>
</linearGradient>
<linearGradient id="paint10_linear_5_2" x1="-5.21283e-07" y1="-0.214822" x2="117.456" y2="91.1934" gradientUnits="userSpaceOnUse">
<stop stop-color="white" stop-opacity="0.56"/>
<stop offset="1" stop-color="white" stop-opacity="0"/>
</linearGradient>
<linearGradient id="paint11_linear_5_2" x1="-1.64658e-07" y1="-0.214822" x2="117.456" y2="91.1934" gradientUnits="userSpaceOnUse">
<stop stop-color="white" stop-opacity="0.1"/>
<stop offset="1" stop-color="white" stop-opacity="0"/>
</linearGradient>
<linearGradient id="paint12_linear_5_2" x1="88.9967" y1="73" x2="88.9967" y2="95" gradientUnits="userSpaceOnUse">
<stop stop-color="white"/>
<stop offset="1" stop-color="#4D9AE1" stop-opacity="0.35"/>
</linearGradient>
<linearGradient id="paint13_linear_5_2" x1="88.9967" y1="73" x2="88.9967" y2="95" gradientUnits="userSpaceOnUse">
<stop stop-color="white" stop-opacity="0.28"/>
<stop offset="1" stop-color="white" stop-opacity="0"/>
</linearGradient>
<linearGradient id="paint14_linear_5_2" x1="61.9967" y1="57" x2="61.9967" y2="79" gradientUnits="userSpaceOnUse">
<stop stop-color="white"/>
<stop offset="1" stop-color="#4D9AE1" stop-opacity="0.35"/>
</linearGradient>
<linearGradient id="paint15_linear_5_2" x1="61.9967" y1="57" x2="61.9967" y2="79" gradientUnits="userSpaceOnUse">
<stop stop-color="white" stop-opacity="0.28"/>
<stop offset="1" stop-color="white" stop-opacity="0"/>
</linearGradient>
<linearGradient id="paint16_linear_5_2" x1="47" y1="6.83351" x2="138.108" y2="77.9909" gradientUnits="userSpaceOnUse">
<stop stop-color="white" stop-opacity="0.56"/>
<stop offset="1" stop-color="white" stop-opacity="0"/>
</linearGradient>
<linearGradient id="paint17_linear_5_2" x1="47" y1="6.83351" x2="138.108" y2="77.9909" gradientUnits="userSpaceOnUse">
<stop stop-color="white" stop-opacity="0.1"/>
<stop offset="1" stop-color="white" stop-opacity="0"/>
</linearGradient>
</defs>
</svg>
