<svg width="98" height="97" viewBox="0 0 98 97" fill="none" xmlns="http://www.w3.org/2000/svg">
<path d="M31.909 44.9694L19.0094 84.0176" stroke="url(#paint0_linear_6_134)" stroke-width="3" stroke-linecap="round" stroke-linejoin="round"/>
<path d="M44.2325 52.2858L32.5967 91.867" stroke="url(#paint1_linear_6_134)" stroke-width="3" stroke-linecap="round" stroke-linejoin="round"/>
<path d="M42.3184 35.9426L33.1964 65.2853" stroke="url(#paint2_linear_6_134)" stroke-width="3" stroke-linecap="round" stroke-linejoin="round"/>
<path d="M57.9718 33.1564L48.2197 63.6457" stroke="url(#paint3_linear_6_134)" stroke-width="3" stroke-linecap="round" stroke-linejoin="round"/>
<path d="M62.5342 41.6445L52.782 72.1338" stroke="url(#paint4_linear_6_134)" stroke-width="3" stroke-linecap="round" stroke-linejoin="round"/>
<path d="M71.0531 36.0573L61.3009 66.5466" stroke="url(#paint5_linear_6_134)" stroke-width="3" stroke-linecap="round" stroke-linejoin="round"/>
<path d="M46.3208 68.83L39.4026 92.7467" stroke="url(#paint6_linear_6_134)" stroke-width="3" stroke-linecap="round" stroke-linejoin="round"/>
<g filter="url(#filter0_b_6_134)">
<path d="M15.68 26.9313C15.0522 25.4504 14.7 23.8313 14.7 22.1429C14.7 14.808 21.2844 8.85714 29.4 8.85714C32.4166 8.85714 35.2341 9.6875 37.5616 11.0991C41.8031 4.45625 49.7197 0 58.8 0C72.3363 0 83.3 9.90893 83.3 22.1429C83.3 22.5165 83.2847 22.8902 83.2694 23.2638C91.8444 25.9902 98 33.3804 98 42.0714C98 53.0737 88.1234 62 75.95 62H19.6C8.77406 62 7.62939e-06 54.0701 7.62939e-06 44.2857C7.62939e-06 35.7192 6.7375 28.5643 15.68 26.9313Z" fill="url(#paint7_linear_6_134)"/>
<path d="M16.1403 26.7361L16.3841 27.3109L15.7698 27.4231C7.02476 29.0201 0.500008 35.9993 0.500008 44.2857C0.500008 53.7476 9.00142 61.5 19.6 61.5H75.95C87.8961 61.5 97.5 52.7511 97.5 42.0714C97.5 33.6315 91.519 26.4114 83.1179 23.7403L82.7542 23.6247L82.7698 23.2434C82.7852 22.868 82.8 22.5046 82.8 22.1429C82.8 10.2315 72.1089 0.5 58.8 0.5C49.8818 0.5 42.1282 4.87626 37.983 11.3682L37.72 11.78L37.3023 11.5266C35.0528 10.1623 32.325 9.35714 29.4 9.35714C21.5117 9.35714 15.2 15.1306 15.2 22.1429C15.2 23.7612 15.5375 25.3142 16.1403 26.7361Z" stroke="url(#paint8_linear_6_134)"/>
</g>
<path d="M59.0302 73L57.0019 79.0321" stroke="url(#paint9_linear_6_134)" stroke-width="3" stroke-linecap="round" stroke-linejoin="round"/>
<path d="M73.5 24.5C73.1 12.5 63.6667 8.5 59 8" stroke="#B0C3FF" stroke-opacity="0.28" stroke-width="3" stroke-linecap="round"/>
<defs>
<filter id="filter0_b_6_134" x="-6" y="-6" width="110" height="74" filterUnits="userSpaceOnUse" color-interpolation-filters="sRGB">
<feFlood flood-opacity="0" result="BackgroundImageFix"/>
<feGaussianBlur in="BackgroundImage" stdDeviation="3"/>
<feComposite in2="SourceAlpha" operator="in" result="effect1_backgroundBlur_6_134"/>
<feBlend mode="normal" in="SourceGraphic" in2="effect1_backgroundBlur_6_134" result="shape"/>
</filter>
<linearGradient id="paint0_linear_6_134" x1="19.5989" y1="48.9576" x2="29.8226" y2="80.5144" gradientUnits="userSpaceOnUse">
<stop stop-color="white"/>
<stop offset="0.84375" stop-color="#5D71B2"/>
</linearGradient>
<linearGradient id="paint1_linear_6_134" x1="32.396" y1="56.1206" x2="42.896" y2="88.5303" gradientUnits="userSpaceOnUse">
<stop stop-color="white"/>
<stop offset="0.84375" stop-color="#5D71B2"/>
</linearGradient>
<linearGradient id="paint2_linear_6_134" x1="33.3226" y1="38.857" x2="41.0594" y2="62.7379" gradientUnits="userSpaceOnUse">
<stop stop-color="white"/>
<stop offset="0.84375" stop-color="#5D71B2"/>
</linearGradient>
<linearGradient id="paint3_linear_6_134" x1="48.5025" y1="36.2243" x2="56.5157" y2="60.958" gradientUnits="userSpaceOnUse">
<stop stop-color="white"/>
<stop offset="0.84375" stop-color="#5D71B2"/>
</linearGradient>
<linearGradient id="paint4_linear_6_134" x1="53.0649" y1="44.7123" x2="61.0781" y2="69.4461" gradientUnits="userSpaceOnUse">
<stop stop-color="white"/>
<stop offset="0.84375" stop-color="#5D71B2"/>
</linearGradient>
<linearGradient id="paint5_linear_6_134" x1="61.5838" y1="39.1251" x2="69.597" y2="63.8589" gradientUnits="userSpaceOnUse">
<stop stop-color="white"/>
<stop offset="0.84375" stop-color="#5D71B2"/>
</linearGradient>
<linearGradient id="paint6_linear_6_134" x1="39.2188" y1="71.1309" x2="45.5741" y2="90.7473" gradientUnits="userSpaceOnUse">
<stop stop-color="#ADC0FF"/>
<stop offset="0.84375" stop-color="#5D71B2"/>
</linearGradient>
<linearGradient id="paint7_linear_6_134" x1="98" y1="-0.166487" x2="6.89207" y2="70.9909" gradientUnits="userSpaceOnUse">
<stop stop-color="white" stop-opacity="0.56"/>
<stop offset="1" stop-color="white" stop-opacity="0"/>
</linearGradient>
<linearGradient id="paint8_linear_6_134" x1="98" y1="-0.166487" x2="6.89207" y2="70.9909" gradientUnits="userSpaceOnUse">
<stop stop-color="white" stop-opacity="0.1"/>
<stop offset="1" stop-color="white" stop-opacity="0"/>
</linearGradient>
<linearGradient id="paint9_linear_6_134" x1="57.0151" y1="74.0009" x2="59.017" y2="78.0311" gradientUnits="userSpaceOnUse">
<stop stop-color="#ADC0FF"/>
<stop offset="0.84375" stop-color="#5D71B2"/>
</linearGradient>
</defs>
</svg>
