<svg width="129" height="138" viewBox="0 0 129 138" fill="none" xmlns="http://www.w3.org/2000/svg">
<path d="M97.6709 76.8596C98.4412 76.1675 98.7051 75.0722 98.3346 74.1052C97.964 73.1383 97.0356 72.4999 96.0001 72.4999H63.0623L68.2666 57.8628L74.3371 41.8879C74.629 41.1196 74.5247 40.2569 74.058 39.5804C73.5914 38.9038 72.822 38.4999 72.0001 38.4999H51.2001C50.2217 38.4999 49.3332 39.0706 48.9264 39.9605L29.7264 81.9605C29.3726 82.7344 29.4368 83.6351 29.8967 84.3511C30.3567 85.067 31.1492 85.4999 32.0001 85.4999H55.8707L42.4689 120.097C42.0511 121.176 42.4278 122.4 43.3798 123.057C44.3319 123.714 45.6104 123.633 46.4709 122.86L97.6709 76.8596Z" fill="url(#paint0_linear_13_20)" stroke="url(#paint1_linear_13_20)" stroke-width="5" stroke-linecap="round" stroke-linejoin="round"/>
<path d="M45.925 88L45.4404 89.4671" stroke="url(#paint2_linear_13_20)" stroke-width="3" stroke-linecap="round" stroke-linejoin="round"/>
<path d="M33.925 83L33.4404 84.4671" stroke="url(#paint3_linear_13_20)" stroke-width="3" stroke-linecap="round" stroke-linejoin="round"/>
<path d="M60.925 104L60.4404 105.467" stroke="url(#paint4_linear_13_20)" stroke-width="3" stroke-linecap="round" stroke-linejoin="round"/>
<path d="M39.925 110L39.4404 111.467" stroke="url(#paint5_linear_13_20)" stroke-width="3" stroke-linecap="round" stroke-linejoin="round"/>
<path d="M59.9437 95.1293L59.3299 97.2171" stroke="url(#paint6_linear_13_20)" stroke-width="3" stroke-linecap="round" stroke-linejoin="round"/>
<path d="M50.2487 101L49.6349 103.088" stroke="url(#paint7_linear_13_20)" stroke-width="3" stroke-linecap="round" stroke-linejoin="round"/>
<path d="M55.5257 87.9038L55.1192 89.2114" stroke="url(#paint8_linear_13_20)" stroke-width="3" stroke-linecap="round" stroke-linejoin="round"/>
<path d="M43.8018 96L43.3953 97.3076" stroke="url(#paint9_linear_13_20)" stroke-width="3" stroke-linecap="round" stroke-linejoin="round"/>
<path d="M67.7865 86.7383L67.0863 88.9274" stroke="url(#paint10_linear_13_20)" stroke-width="3" stroke-linecap="round" stroke-linejoin="round"/>
<path d="M78.2453 84.488L77.3773 87.2017" stroke="url(#paint11_linear_13_20)" stroke-width="3" stroke-linecap="round" stroke-linejoin="round"/>
<path d="M92.6856 83L91.8176 85.7137" stroke="url(#paint12_linear_13_20)" stroke-width="3" stroke-linecap="round" stroke-linejoin="round"/>
<path d="M71.6856 95L70.8176 97.7137" stroke="url(#paint13_linear_13_20)" stroke-width="3" stroke-linecap="round" stroke-linejoin="round"/>
<path d="M35.6856 96L34.8176 98.7137" stroke="url(#paint14_linear_13_20)" stroke-width="3" stroke-linecap="round" stroke-linejoin="round"/>
<path d="M77.6856 103L77.0249 105.066" stroke="url(#paint15_linear_13_20)" stroke-width="3" stroke-linecap="round" stroke-linejoin="round"/>
<path d="M82.2794 89L81.9549 90.0146" stroke="url(#paint16_linear_13_20)" stroke-width="3" stroke-linecap="round" stroke-linejoin="round"/>
<path d="M62.0319 111.674L61.6119 113.126" stroke="url(#paint17_linear_13_20)" stroke-width="3" stroke-linecap="round" stroke-linejoin="round"/>
<path d="M68.8624 103L68.4424 104.452" stroke="url(#paint18_linear_13_20)" stroke-width="3" stroke-linecap="round" stroke-linejoin="round"/>
<path d="M90.8624 96L90.4424 97.4522" stroke="url(#paint19_linear_13_20)" stroke-width="3" stroke-linecap="round" stroke-linejoin="round"/>
<path d="M86.8624 109L86.4424 110.452" stroke="url(#paint20_linear_13_20)" stroke-width="3" stroke-linecap="round" stroke-linejoin="round"/>
<path d="M74.7413 115.844L74.2226 117.386" stroke="url(#paint21_linear_13_20)" stroke-width="3" stroke-linecap="round" stroke-linejoin="round"/>
<g filter="url(#filter0_b_13_20)">
<path d="M94.9762 11.4601C101.28 17.2179 105.577 24.8415 107.239 33.2163C113.273 34.0313 118.771 37.1094 122.621 41.827C126.47 46.5445 128.383 52.5489 127.971 58.6239C127.559 64.6988 124.854 70.3901 120.402 74.5448C115.951 78.6996 110.087 81.0072 103.999 81.0003H27.9986C24.1883 80.9943 20.4192 80.2108 16.9223 78.6975C13.4253 77.1843 10.274 74.9732 7.66127 72.1997C5.04854 69.4262 3.02939 66.1486 1.72743 62.5676C0.425475 58.9866 -0.131889 55.1776 0.0894642 51.3737C0.310818 47.5698 1.30623 43.8511 3.01476 40.4453C4.72329 37.0395 7.10898 34.0182 10.0258 31.5665C12.9426 29.1147 16.3291 27.2841 19.9779 26.1867C23.6268 25.0893 27.4613 24.7482 31.2466 25.1843C34.622 17.3419 40.4177 10.785 47.7863 6.47233C55.1549 2.15963 63.7099 0.317303 72.2005 1.21472C80.6911 2.11214 88.672 5.70223 94.9762 11.4601Z" fill="url(#paint22_linear_13_20)"/>
<path d="M107.19 33.226L107.197 33.261L107.232 33.2658C113.253 34.0791 118.741 37.1508 122.582 41.8586C126.424 46.5663 128.332 52.5582 127.921 58.6205C127.51 64.6828 124.81 70.3622 120.368 74.5083C115.927 78.6544 110.075 80.9572 103.999 80.9503H27.9986C24.1951 80.9443 20.4328 80.1622 16.9421 78.6516C13.4514 77.1411 10.3057 74.934 7.69766 72.1654C5.0896 69.3969 3.07405 66.1252 1.77442 62.5506C0.47479 58.976 -0.0815785 55.1737 0.13938 51.3766C0.360338 47.5795 1.35397 43.8674 3.05945 40.4677C4.76493 37.068 7.14636 34.0521 10.0579 31.6047C12.9695 29.1574 16.35 27.33 19.9923 26.2346C23.6347 25.1391 27.4623 24.7986 31.2409 25.2339L31.2778 25.2382L31.2925 25.204C34.6637 17.3715 40.4521 10.8228 47.8115 6.51548C55.1709 2.20817 63.7153 0.368148 72.1953 1.26444C80.6753 2.16074 88.6462 5.74635 94.9425 11.497C101.239 17.2477 105.53 24.8617 107.19 33.226Z" stroke="url(#paint23_linear_13_20)" stroke-opacity="0.15" stroke-width="0.1"/>
</g>
<path d="M40.0001 28.9999C44.0001 16.9999 56.0001 8.99989 72.0001 8.99989" stroke="#B0C3FF" stroke-opacity="0.28" stroke-width="2" stroke-linecap="round"/>
<defs>
<filter id="filter0_b_13_20" x="-15.9578" y="-15.0069" width="159.984" height="112.007" filterUnits="userSpaceOnUse" color-interpolation-filters="sRGB">
<feFlood flood-opacity="0" result="BackgroundImageFix"/>
<feGaussianBlur in="BackgroundImage" stdDeviation="8"/>
<feComposite in2="SourceAlpha" operator="in" result="effect1_backgroundBlur_13_20"/>
<feBlend mode="normal" in="SourceGraphic" in2="effect1_backgroundBlur_13_20" result="shape"/>
</filter>
<linearGradient id="paint0_linear_13_20" x1="63.4722" y1="42.3624" x2="63.4722" y2="122.362" gradientUnits="userSpaceOnUse">
<stop stop-color="#FFC107"/>
<stop offset="1" stop-color="#FF7A00"/>
</linearGradient>
<linearGradient id="paint1_linear_13_20" x1="64.0001" y1="40.9999" x2="64.0001" y2="121" gradientUnits="userSpaceOnUse">
<stop stop-color="#FFC107"/>
<stop offset="1" stop-color="#FF7A00"/>
</linearGradient>
<linearGradient id="paint2_linear_13_20" x1="45.4625" y1="88.1498" x2="45.8466" y2="89.3355" gradientUnits="userSpaceOnUse">
<stop stop-color="white"/>
<stop offset="0.84375" stop-color="#5D71B2"/>
</linearGradient>
<linearGradient id="paint3_linear_13_20" x1="33.4625" y1="83.1498" x2="33.8466" y2="84.3355" gradientUnits="userSpaceOnUse">
<stop stop-color="white"/>
<stop offset="0.84375" stop-color="#5D71B2"/>
</linearGradient>
<linearGradient id="paint4_linear_13_20" x1="60.4625" y1="104.15" x2="60.8466" y2="105.335" gradientUnits="userSpaceOnUse">
<stop stop-color="white"/>
<stop offset="0.84375" stop-color="#5D71B2"/>
</linearGradient>
<linearGradient id="paint5_linear_13_20" x1="39.4625" y1="110.15" x2="39.8466" y2="111.335" gradientUnits="userSpaceOnUse">
<stop stop-color="white"/>
<stop offset="0.84375" stop-color="#5D71B2"/>
</linearGradient>
<linearGradient id="paint6_linear_13_20" x1="59.3193" y1="95.3316" x2="59.8732" y2="97.0411" gradientUnits="userSpaceOnUse">
<stop stop-color="white"/>
<stop offset="0.84375" stop-color="#5D71B2"/>
</linearGradient>
<linearGradient id="paint7_linear_13_20" x1="49.6243" y1="101.202" x2="50.1782" y2="102.912" gradientUnits="userSpaceOnUse">
<stop stop-color="white"/>
<stop offset="0.84375" stop-color="#5D71B2"/>
</linearGradient>
<linearGradient id="paint8_linear_13_20" x1="55.1248" y1="88.0336" x2="55.4696" y2="89.0978" gradientUnits="userSpaceOnUse">
<stop stop-color="white"/>
<stop offset="0.84375" stop-color="#5D71B2"/>
</linearGradient>
<linearGradient id="paint9_linear_13_20" x1="43.4009" y1="96.1299" x2="43.7457" y2="97.1941" gradientUnits="userSpaceOnUse">
<stop stop-color="white"/>
<stop offset="0.84375" stop-color="#5D71B2"/>
</linearGradient>
<linearGradient id="paint10_linear_13_20" x1="67.1066" y1="86.9586" x2="67.682" y2="88.7344" gradientUnits="userSpaceOnUse">
<stop stop-color="white"/>
<stop offset="0.84375" stop-color="#5D71B2"/>
</linearGradient>
<linearGradient id="paint11_linear_13_20" x1="77.4025" y1="84.7611" x2="78.1157" y2="86.9625" gradientUnits="userSpaceOnUse">
<stop stop-color="white"/>
<stop offset="0.84375" stop-color="#5D71B2"/>
</linearGradient>
<linearGradient id="paint12_linear_13_20" x1="91.8428" y1="83.2731" x2="92.556" y2="85.4745" gradientUnits="userSpaceOnUse">
<stop stop-color="white"/>
<stop offset="0.84375" stop-color="#5D71B2"/>
</linearGradient>
<linearGradient id="paint13_linear_13_20" x1="70.8428" y1="95.2731" x2="71.556" y2="97.4745" gradientUnits="userSpaceOnUse">
<stop stop-color="white"/>
<stop offset="0.84375" stop-color="#5D71B2"/>
</linearGradient>
<linearGradient id="paint14_linear_13_20" x1="34.8428" y1="96.2731" x2="35.556" y2="98.4745" gradientUnits="userSpaceOnUse">
<stop stop-color="white"/>
<stop offset="0.84375" stop-color="#5D71B2"/>
</linearGradient>
<linearGradient id="paint15_linear_13_20" x1="77.044" y1="103.208" x2="77.587" y2="104.884" gradientUnits="userSpaceOnUse">
<stop stop-color="white"/>
<stop offset="0.84375" stop-color="#5D71B2"/>
</linearGradient>
<linearGradient id="paint16_linear_13_20" x1="81.9643" y1="89.1021" x2="82.2309" y2="89.9252" gradientUnits="userSpaceOnUse">
<stop stop-color="white"/>
<stop offset="0.84375" stop-color="#5D71B2"/>
</linearGradient>
<linearGradient id="paint17_linear_13_20" x1="61.6007" y1="111.813" x2="61.9866" y2="113.004" gradientUnits="userSpaceOnUse">
<stop stop-color="#ADC0FF"/>
<stop offset="0.84375" stop-color="#5D71B2"/>
</linearGradient>
<linearGradient id="paint18_linear_13_20" x1="68.4312" y1="103.14" x2="68.8171" y2="104.331" gradientUnits="userSpaceOnUse">
<stop stop-color="#ADC0FF"/>
<stop offset="0.84375" stop-color="#5D71B2"/>
</linearGradient>
<linearGradient id="paint19_linear_13_20" x1="90.4312" y1="96.1397" x2="90.8171" y2="97.3308" gradientUnits="userSpaceOnUse">
<stop stop-color="#ADC0FF"/>
<stop offset="0.84375" stop-color="#5D71B2"/>
</linearGradient>
<linearGradient id="paint20_linear_13_20" x1="86.4312" y1="109.14" x2="86.8171" y2="110.331" gradientUnits="userSpaceOnUse">
<stop stop-color="#ADC0FF"/>
<stop offset="0.84375" stop-color="#5D71B2"/>
</linearGradient>
<linearGradient id="paint21_linear_13_20" x1="74.226" y1="116.1" x2="74.7379" y2="117.13" gradientUnits="userSpaceOnUse">
<stop stop-color="#ADC0FF"/>
<stop offset="0.84375" stop-color="#5D71B2"/>
</linearGradient>
<linearGradient id="paint22_linear_13_20" x1="-0.00128607" y1="1.00014" x2="127.999" y2="81.0001" gradientUnits="userSpaceOnUse">
<stop stop-color="white" stop-opacity="0.56"/>
<stop offset="1" stop-color="#C4C4C4" stop-opacity="0"/>
</linearGradient>
<linearGradient id="paint23_linear_13_20" x1="64.0341" y1="0.993057" x2="64.0341" y2="81.0003" gradientUnits="userSpaceOnUse">
<stop stop-color="white"/>
<stop offset="1" stop-color="white" stop-opacity="0"/>
</linearGradient>
</defs>
</svg>
