<svg width="111" height="83" viewBox="0 0 111 83" fill="none" xmlns="http://www.w3.org/2000/svg">
<path d="M102.162 39.0027C97.8665 40.5312 93.1919 40.6289 88.8365 39.2812C84.481 37.9335 80.6785 35.2127 77.9971 31.5254C75.3157 27.8381 73.8993 23.3821 73.9596 18.8233C74.0199 14.2645 75.5536 9.84755 78.3316 6.23242C76.3278 6.43114 74.3571 6.88188 72.4661 7.57396C66.3693 9.8214 61.4151 14.3987 58.6932 20.299C55.9713 26.1992 55.7048 32.939 57.9522 39.0358C60.1997 45.1326 64.777 50.0868 70.6772 52.8087C76.5775 55.5306 83.3173 55.7971 89.4141 53.5497C92.8667 52.2734 95.9825 50.2258 98.524 47.563C101.065 44.9001 102.966 41.6923 104.08 38.1839C103.455 38.4892 102.815 38.7624 102.162 39.0027Z" fill="url(#paint0_linear_6_103)"/>
<g clip-path="url(#clip0_6_103)">
<path d="M91.555 15.0047L88.2077 14.5182L86.7113 11.4847C86.6705 11.4016 86.6032 11.3344 86.5202 11.2935C86.3119 11.1907 86.0587 11.2764 85.9546 11.4847L84.4583 14.5182L81.1109 15.0047C81.0187 15.0179 80.9343 15.0614 80.8697 15.1273C80.7916 15.2076 80.7486 15.3156 80.75 15.4275C80.7515 15.5395 80.7974 15.6463 80.8776 15.7245L83.2994 18.0857L82.7273 21.4198C82.7138 21.4974 82.7224 21.5772 82.752 21.6501C82.7816 21.723 82.8311 21.7862 82.8948 21.8324C82.9585 21.8787 83.0338 21.9062 83.1123 21.9118C83.1909 21.9174 83.2694 21.9009 83.339 21.8641L86.333 20.29L89.327 21.8641C89.4087 21.9076 89.5036 21.9221 89.5946 21.9063C89.824 21.8668 89.9782 21.6492 89.9387 21.4198L89.3665 18.0857L91.7883 15.7245C91.8543 15.6599 91.8978 15.5755 91.9109 15.4833C91.9465 15.2525 91.7857 15.039 91.555 15.0047Z" fill="url(#paint1_linear_6_103)"/>
</g>
<g clip-path="url(#clip1_6_103)">
<path d="M89.1133 27.8146L87.7186 27.6119L87.0952 26.348C87.0781 26.3134 87.0501 26.2853 87.0155 26.2683C86.9287 26.2255 86.8232 26.2612 86.7799 26.348L86.1564 27.6119L84.7617 27.8146C84.7232 27.8201 84.6881 27.8383 84.6611 27.8657C84.6286 27.8992 84.6107 27.9442 84.6113 27.9908C84.6119 28.0375 84.631 28.082 84.6644 28.1146L85.6735 29.0984L85.4351 30.4876C85.4295 30.5199 85.4331 30.5532 85.4454 30.5836C85.4578 30.6139 85.4784 30.6403 85.5049 30.6595C85.5315 30.6788 85.5629 30.6903 85.5956 30.6926C85.6283 30.6949 85.661 30.688 85.69 30.6727L86.9375 30.0168L88.185 30.6727C88.2191 30.6909 88.2586 30.6969 88.2965 30.6903C88.3921 30.6738 88.4564 30.5832 88.4399 30.4876L88.2015 29.0984L89.2106 28.1146C89.238 28.0876 89.2562 28.0525 89.2617 28.014C89.2765 27.9179 89.2095 27.8289 89.1133 27.8146Z" fill="url(#paint2_linear_6_103)"/>
</g>
<g clip-path="url(#clip2_6_103)">
<path d="M98.1133 24.4396L96.7186 24.2369L96.0952 22.973C96.0781 22.9384 96.0501 22.9103 96.0155 22.8933C95.9287 22.8505 95.8232 22.8862 95.7799 22.973L95.1564 24.2369L93.7617 24.4396C93.7232 24.4451 93.6881 24.4633 93.6611 24.4907C93.6286 24.5242 93.6107 24.5692 93.6113 24.6158C93.6119 24.6625 93.631 24.707 93.6644 24.7396L94.6735 25.7234L94.4351 27.1126C94.4295 27.1449 94.4331 27.1782 94.4454 27.2086C94.4578 27.2389 94.4784 27.2653 94.5049 27.2845C94.5315 27.3038 94.5629 27.3153 94.5956 27.3176C94.6283 27.3199 94.661 27.313 94.69 27.2977L95.9375 26.6418L97.185 27.2977C97.2191 27.3159 97.2586 27.3219 97.2965 27.3153C97.3921 27.2988 97.4564 27.2082 97.4399 27.1126L97.2015 25.7234L98.2106 24.7396C98.238 24.7126 98.2562 24.6775 98.2617 24.639C98.2765 24.5429 98.2095 24.4539 98.1133 24.4396Z" fill="url(#paint3_linear_6_103)"/>
</g>
<g filter="url(#filter0_b_6_103)">
<path d="M82.32 47.5727C82.9478 46.0919 83.3 44.4727 83.3 42.7843C83.3 35.4495 76.7156 29.4986 68.6 29.4986C65.5834 29.4986 62.7659 30.329 60.4384 31.7406C56.1969 25.0977 48.2803 20.6415 39.2 20.6415C25.6637 20.6415 14.7 30.5504 14.7 42.7843C14.7 43.158 14.7153 43.5317 14.7306 43.9053C6.15562 46.6317 0 54.0218 0 62.7129C0 73.7151 9.87656 82.6415 22.05 82.6415H78.4C89.2259 82.6415 98 74.7116 98 64.9272C98 56.3607 91.2625 49.2058 82.32 47.5727Z" fill="url(#paint4_linear_6_103)"/>
<path d="M81.8597 47.3776L81.6159 47.9524L82.2302 48.0646C90.9752 49.6616 97.5 56.6408 97.5 64.9272C97.5 74.389 88.9986 82.1415 78.4 82.1415H22.05C10.1039 82.1415 0.5 73.3926 0.5 62.7129C0.5 54.273 6.48101 47.0529 14.8821 44.3818L15.2458 44.2662L15.2302 43.8848C15.2148 43.5095 15.2 43.146 15.2 42.7843C15.2 30.8729 25.8911 21.1415 39.2 21.1415C48.1182 21.1415 55.8718 25.5177 60.017 32.0097L60.28 32.4215L60.6977 32.1681C62.9472 30.8038 65.675 29.9986 68.6 29.9986C76.4883 29.9986 82.8 35.772 82.8 42.7843C82.8 44.4027 82.4625 45.9557 81.8597 47.3776Z" stroke="url(#paint5_linear_6_103)"/>
</g>
<path d="M23 45.1415C23.4 33.1415 32.8333 29.1415 37.5 28.6415" stroke="#B0C3FF" stroke-opacity="0.28" stroke-width="3" stroke-linecap="round"/>
<defs>
<filter id="filter0_b_6_103" x="-6" y="14.6415" width="110" height="74" filterUnits="userSpaceOnUse" color-interpolation-filters="sRGB">
<feFlood flood-opacity="0" result="BackgroundImageFix"/>
<feGaussianBlur in="BackgroundImage" stdDeviation="3"/>
<feComposite in2="SourceAlpha" operator="in" result="effect1_backgroundBlur_6_103"/>
<feBlend mode="normal" in="SourceGraphic" in2="effect1_backgroundBlur_6_103" result="shape"/>
</filter>
<linearGradient id="paint0_linear_6_103" x1="69.921" y1="8.51215" x2="86.869" y2="54.4879" gradientUnits="userSpaceOnUse">
<stop stop-color="#FDFFA3"/>
<stop offset="1" stop-color="#FF8E26"/>
</linearGradient>
<linearGradient id="paint1_linear_6_103" x1="86.3329" y1="11.25" x2="86.3329" y2="21.9128" gradientUnits="userSpaceOnUse">
<stop stop-color="#FDFFA3"/>
<stop offset="1" stop-color="#FF8E26"/>
</linearGradient>
<linearGradient id="paint2_linear_6_103" x1="86.9375" y1="26.2502" x2="86.9375" y2="30.693" gradientUnits="userSpaceOnUse">
<stop stop-color="#FDFFA3"/>
<stop offset="1" stop-color="#FF8E26"/>
</linearGradient>
<linearGradient id="paint3_linear_6_103" x1="95.9375" y1="22.8752" x2="95.9375" y2="27.318" gradientUnits="userSpaceOnUse">
<stop stop-color="#FDFFA3"/>
<stop offset="1" stop-color="#FF8E26"/>
</linearGradient>
<linearGradient id="paint4_linear_6_103" x1="-4.05442e-07" y1="20.475" x2="91.1079" y2="91.6324" gradientUnits="userSpaceOnUse">
<stop stop-color="white" stop-opacity="0.56"/>
<stop offset="1" stop-color="white" stop-opacity="0"/>
</linearGradient>
<linearGradient id="paint5_linear_6_103" x1="-1.28067e-07" y1="20.475" x2="91.1079" y2="91.6324" gradientUnits="userSpaceOnUse">
<stop stop-color="white" stop-opacity="0.1"/>
<stop offset="1" stop-color="white" stop-opacity="0"/>
</linearGradient>
<clipPath id="clip0_6_103">
<rect width="13.5" height="13.5" fill="white" transform="translate(80.75 11.25)"/>
</clipPath>
<clipPath id="clip1_6_103">
<rect width="5.625" height="5.625" fill="white" transform="translate(84.125 25.875)"/>
</clipPath>
<clipPath id="clip2_6_103">
<rect width="5.625" height="5.625" fill="white" transform="translate(93.125 22.5)"/>
</clipPath>
</defs>
</svg>
