<svg width="111" height="77" viewBox="0 0 111 77" fill="none" xmlns="http://www.w3.org/2000/svg">
<path d="M77.9417 15.5875C75.7445 15.5866 73.5686 16.0188 71.5384 16.8593C69.5082 17.6997 67.6636 18.932 66.1099 20.4857C64.5562 22.0394 63.3239 23.8841 62.4834 25.9143C61.6429 27.9444 61.2108 30.1203 61.2116 32.3176C61.2119 36.7536 62.9743 41.0077 66.1112 44.1443C67.6645 45.6973 69.5084 46.9292 71.5377 47.7696C73.5671 48.6101 75.7421 49.0425 77.9385 49.0424C80.135 49.0423 82.31 48.6095 84.3392 47.7688C86.3684 46.9281 88.2122 45.696 89.7652 44.1428C91.3182 42.5895 92.5502 40.7456 93.3906 38.7163C94.231 36.6869 94.6635 34.5119 94.6634 32.3155C94.6647 30.1186 94.2332 27.943 93.3933 25.9129C92.5534 23.8829 91.3217 22.0384 89.7686 20.4846C88.2154 18.9309 86.3713 17.6985 84.3416 16.8578C82.312 16.0172 80.1365 15.5848 77.9396 15.5853L77.9417 15.5875ZM77.9417 14.4676C78.2208 14.4676 78.4971 14.4126 78.7549 14.3058C79.0127 14.199 79.247 14.0425 79.4443 13.8452C79.6417 13.6479 79.7982 13.4136 79.905 13.1558C80.0118 12.898 80.0667 12.6217 80.0667 12.3426V2.02997C80.0417 1.48284 79.8066 0.966452 79.4104 0.588319C79.0142 0.210186 78.4874 -0.000546631 77.9397 1.06493e-06C77.392 0.00054876 76.8656 0.212334 76.4702 0.591259C76.0747 0.970184 75.8406 1.48704 75.8167 2.03422V12.3405C75.8167 13.5092 76.7666 14.4655 77.9417 14.4655V14.4676ZM84.7694 15.8233C85.027 15.9317 85.3036 15.988 85.5832 15.9888C85.8627 15.9896 86.1396 15.9349 86.3979 15.828C86.6562 15.7211 86.8907 15.5641 87.0879 15.3659C87.2851 15.1678 87.4411 14.9325 87.5467 14.6737L91.4907 5.14734C91.7061 4.62742 91.7062 4.04325 91.491 3.52324C91.2759 3.00323 90.863 2.58995 90.3432 2.37422C89.8217 2.15903 89.2363 2.15893 88.7147 2.37392C88.1932 2.58892 87.7778 3.00155 87.5595 3.52172L83.6218 13.0502C83.4065 13.5701 83.4064 14.1543 83.6216 14.6743C83.8367 15.1943 84.2496 15.6076 84.7694 15.8233ZM90.56 19.6908C90.7569 19.8889 90.991 20.046 91.2488 20.1532C91.5066 20.2605 91.7831 20.3157 92.0624 20.3157C92.3416 20.3157 92.6181 20.2605 92.8759 20.1532C93.1338 20.046 93.3678 19.8889 93.5647 19.6908L100.853 12.3957C101.056 12.1995 101.218 11.965 101.329 11.7056C101.44 11.4463 101.499 11.1674 101.501 10.8852C101.503 10.6031 101.449 10.3233 101.342 10.0622C101.235 9.80116 101.077 9.56401 100.878 9.36463C100.678 9.16525 100.441 9.00763 100.179 8.90097C99.9182 8.79431 99.6383 8.74074 99.3562 8.74339C99.074 8.74604 98.7952 8.80485 98.536 8.9164C98.2769 9.02795 98.0425 9.19 97.8466 9.39309L90.5578 16.6818C90.1597 17.0813 89.9362 17.6223 89.9362 18.1863C89.9362 18.7503 90.1597 19.2913 90.5578 19.6908H90.56ZM94.4339 25.4815C94.5402 25.7394 94.6965 25.9739 94.8937 26.1712C95.091 26.3686 95.3253 26.525 95.5832 26.6314C95.8412 26.7379 96.1176 26.7923 96.3966 26.7915C96.6757 26.7907 96.9518 26.7347 97.2091 26.6268L106.729 22.6786C106.989 22.5732 107.226 22.4174 107.425 22.2201C107.625 22.0228 107.783 21.7879 107.892 21.529C108 21.2702 108.056 20.9924 108.056 20.7118C108.057 20.4312 108.001 20.1533 107.894 19.8941C107.786 19.6349 107.628 19.3997 107.429 19.2019C107.23 19.0041 106.994 18.8476 106.734 18.7416C106.474 18.6356 106.196 18.5821 105.915 18.5841C105.635 18.5862 105.357 18.6439 105.099 18.7537L95.5792 22.6998C94.4955 23.1503 93.9812 24.3956 94.4317 25.4793L94.4339 25.4815ZM108.225 30.1777L97.9146 30.182C96.7458 30.182 95.7896 31.134 95.796 32.307C95.796 33.4842 96.7459 34.432 97.9167 34.432L108.229 34.4277C108.776 34.4032 109.293 34.1687 109.672 33.7728C110.05 33.377 110.261 32.8504 110.261 32.3027C110.261 31.755 110.05 31.2284 109.672 30.8326C109.293 30.4368 108.776 30.2022 108.229 30.1777H108.225ZM106.738 41.929L97.2176 37.9871C96.9598 37.8798 96.6833 37.8243 96.404 37.8239C96.1248 37.8235 95.8481 37.8781 95.59 37.9847C95.3318 38.0913 95.0972 38.2477 94.8996 38.445C94.7019 38.6423 94.5451 38.8766 94.4381 39.1346C93.9919 40.2226 94.5019 41.4657 95.5856 41.9183L105.112 45.856C105.371 45.968 105.649 46.0273 105.931 46.0307C106.213 46.034 106.493 45.9813 106.755 45.8754C107.016 45.7696 107.254 45.6128 107.454 45.4143C107.655 45.2157 107.813 44.9793 107.921 44.7187C108.029 44.4582 108.085 44.1788 108.084 43.8968C108.083 43.6147 108.026 43.3357 107.916 43.0759C107.806 42.8161 107.646 42.5807 107.444 42.3834C107.243 42.1862 107.004 42.031 106.742 41.9268L106.738 41.929ZM93.5775 44.9252C93.1767 44.5381 92.6399 44.3239 92.0827 44.3288C91.5256 44.3336 90.9926 44.5571 90.5986 44.9511C90.2046 45.3451 89.9811 45.8781 89.9763 46.4352C89.9715 46.9924 90.1856 47.5292 90.5727 47.93L97.87 55.2187C98.0671 55.4163 98.3014 55.5731 98.5593 55.68C98.8172 55.7869 99.0936 55.8418 99.3728 55.8416C99.652 55.8414 99.9283 55.7861 100.186 55.6788C100.444 55.5716 100.678 55.4145 100.875 55.2166C101.703 54.3836 101.703 53.0385 100.875 52.2097L93.5775 44.9252ZM87.5637 49.9466C87.3476 49.4258 86.9334 49.0123 86.4124 48.7969C85.8913 48.5815 85.306 48.5819 84.7853 48.798C84.2645 49.0142 83.851 49.4283 83.6356 49.9494C83.4202 50.4704 83.4206 51.0557 83.6367 51.5765L87.5892 61.0965C87.696 61.3546 87.8527 61.5891 88.0503 61.7866C88.2479 61.9841 88.4826 62.1406 88.7408 62.2472C88.999 62.3538 89.2757 62.4084 89.5551 62.4078C89.8344 62.4073 90.1109 62.3516 90.3687 62.244C91.4525 61.7977 91.9667 60.5503 91.5162 59.4602L87.5637 49.9466ZM77.963 50.1655C77.3994 50.1655 76.8589 50.3894 76.4604 50.7879C76.0619 51.1864 75.838 51.7269 75.838 52.2905L75.8465 62.5967C75.8465 63.1603 76.0704 63.7008 76.4689 64.0993C76.8674 64.4978 77.4079 64.7217 77.9715 64.7217C79.1466 64.7217 80.0965 63.7697 80.0922 62.5967L80.0859 52.2862C80.0859 51.1175 79.1317 50.1612 77.963 50.1655ZM71.129 48.814C70.871 48.7075 70.5946 48.6528 70.3155 48.6532C70.0363 48.6535 69.76 48.7089 69.5023 48.816C69.2446 48.9232 69.0105 49.0801 68.8135 49.2777C68.6164 49.4753 68.4602 49.7098 68.3537 49.9678L64.4182 59.4942C64.2859 59.8175 64.235 60.1684 64.2701 60.516C64.3053 60.8636 64.4253 61.1972 64.6197 61.4875C64.814 61.7778 65.0768 62.0159 65.3848 62.1808C65.6928 62.3457 66.0366 62.4323 66.386 62.4331C66.8065 62.433 67.2175 62.3082 67.567 62.0744C67.9165 61.8407 68.1888 61.5084 68.3495 61.1198L72.2871 51.5892C72.5014 51.0682 72.5 50.4833 72.2832 49.9633C72.0665 49.4433 71.652 49.0307 71.1311 48.8161L71.129 48.814ZM65.3362 44.9571C65.1386 44.7598 64.904 44.6034 64.6459 44.4968C64.3878 44.3902 64.1112 44.3356 63.8319 44.336C63.5527 44.3364 63.2762 44.3918 63.0184 44.4991C62.7606 44.6064 62.5264 44.7635 62.3294 44.9613L55.0512 52.2565C54.8539 52.4539 54.6975 52.6883 54.5907 52.9462C54.484 53.2041 54.4291 53.4805 54.4292 53.7596C54.4293 54.0387 54.4844 54.3151 54.5913 54.5729C54.6982 54.8307 54.8549 55.065 55.0523 55.2623C55.2497 55.4596 55.4841 55.616 55.742 55.7228C55.9999 55.8295 56.2763 55.8844 56.5554 55.8843C56.8345 55.8842 57.1109 55.8291 57.3687 55.7222C57.6266 55.6153 57.8608 55.4586 58.0581 55.2612L65.3405 47.964C65.5378 47.7663 65.6942 47.5317 65.8008 47.2736C65.9073 47.0155 65.962 46.7389 65.9616 46.4596C65.9612 46.1804 65.9058 45.9039 65.7985 45.6461C65.6912 45.3883 65.5341 45.1542 65.3362 44.9571ZM61.4602 39.1771C61.2441 38.6566 60.83 38.2434 60.3092 38.0282C59.7883 37.813 59.2033 37.8135 58.6829 38.0296L49.1629 41.9821C48.6674 42.2148 48.2807 42.6296 48.0833 43.1401C47.8858 43.6506 47.8928 44.2176 48.1027 44.7232C48.3127 45.2287 48.7094 45.6338 49.2104 45.8543C49.7114 46.0748 50.2782 46.0937 50.7927 45.907L60.3127 41.9545C61.3922 41.4976 61.9065 40.2545 61.4602 39.1707V39.1771ZM60.0875 32.3452C60.0875 31.7816 59.8636 31.2411 59.4651 30.8426C59.0666 30.4441 58.5261 30.2202 57.9625 30.2202L47.6562 30.2351C47.3695 30.2223 47.0831 30.2677 46.8143 30.3686C46.5456 30.4694 46.3001 30.6238 46.0926 30.8221C45.8851 31.0205 45.72 31.2589 45.6072 31.5229C45.4944 31.7868 45.4362 32.0709 45.4362 32.358C45.4362 32.645 45.4944 32.9291 45.6072 33.1931C45.72 33.457 45.8851 33.6954 46.0926 33.8938C46.3001 34.0922 46.5456 34.2465 46.8143 34.3474C47.0831 34.4483 47.3695 34.4937 47.6562 34.4808L57.9667 34.4681C59.1397 34.4681 60.0917 33.5118 60.0875 32.3431V32.3452ZM49.131 22.7402L58.6616 26.6715C58.9209 26.7852 59.2003 26.8459 59.4834 26.8501C59.7665 26.8543 60.0476 26.8019 60.3102 26.6959C60.5727 26.59 60.8115 26.4326 61.0124 26.2331C61.2133 26.0336 61.3723 25.7959 61.48 25.5341C61.5878 25.2723 61.6421 24.9916 61.6399 24.7084C61.6376 24.4253 61.5788 24.1455 61.4669 23.8854C61.355 23.6253 61.1922 23.3902 60.9882 23.1939C60.7842 22.9976 60.5429 22.8441 60.2787 22.7423L50.7587 18.809C50.2454 18.631 49.6834 18.6559 49.1879 18.8788C48.6924 19.1016 48.3008 19.5054 48.0933 20.0076C47.8858 20.5097 47.8781 21.0722 48.0718 21.5798C48.2655 22.0875 48.646 22.5018 49.1352 22.7381L49.131 22.7402ZM62.2911 19.7227C62.4886 19.9204 62.7232 20.0771 62.9814 20.1838C63.2397 20.2905 63.5164 20.3451 63.7959 20.3445C64.0753 20.3439 64.3518 20.2881 64.6096 20.1803C64.8674 20.0725 65.1013 19.9148 65.298 19.7163C65.495 19.5186 65.6511 19.2839 65.7573 19.0257C65.8635 18.7675 65.9176 18.4909 65.9166 18.2118C65.9156 17.9326 65.8595 17.6564 65.7515 17.3989C65.6436 17.1415 65.4858 16.9079 65.2874 16.7116L57.9901 9.43772C57.7926 9.24049 57.5582 9.08412 57.3003 8.97758C57.0424 8.87103 56.7659 8.81639 56.4868 8.81679C56.2078 8.81718 55.9315 8.8726 55.6739 8.97988C55.4162 9.08716 55.1822 9.24418 54.9854 9.44197C54.7878 9.63914 54.6311 9.87333 54.5242 10.1311C54.4173 10.3889 54.3623 10.6653 54.3623 10.9443C54.3623 11.2234 54.4173 11.4998 54.5242 11.7576C54.6311 12.0154 54.7878 12.2495 54.9854 12.4467L62.2911 19.7227ZM68.2985 14.695C68.5155 15.2154 68.9303 15.6284 69.4518 15.843C69.9732 16.0576 70.5586 16.0563 71.079 15.8393C71.5995 15.6223 72.0125 15.2074 72.2271 14.686C72.4417 14.1645 72.4403 13.5792 72.2234 13.0587L68.2645 3.53872C68.0475 3.01796 67.6325 2.60474 67.1109 2.38994C66.5892 2.17514 66.0036 2.17636 65.4829 2.39334C64.9621 2.61032 64.5489 3.02528 64.3341 3.54694C64.1193 4.0686 64.1205 4.65421 64.3375 5.17497L68.2985 14.695Z" fill="url(#paint0_linear_6_104)"/>
<g filter="url(#filter0_b_6_104)">
<path d="M82.32 41.5727C82.9478 40.0919 83.3 38.4727 83.3 36.7843C83.3 29.4495 76.7156 23.4986 68.6 23.4986C65.5834 23.4986 62.7659 24.329 60.4384 25.7406C56.1969 19.0977 48.2803 14.6415 39.2 14.6415C25.6637 14.6415 14.7 24.5504 14.7 36.7843C14.7 37.158 14.7153 37.5317 14.7306 37.9053C6.15562 40.6317 0 48.0218 0 56.7129C0 67.7151 9.87656 76.6415 22.05 76.6415H78.4C89.2259 76.6415 98 68.7116 98 58.9272C98 50.3607 91.2625 43.2058 82.32 41.5727Z" fill="url(#paint1_linear_6_104)"/>
<path d="M81.8597 41.3776L81.6159 41.9524L82.2302 42.0646C90.9752 43.6616 97.5 50.6408 97.5 58.9272C97.5 68.389 88.9986 76.1415 78.4 76.1415H22.05C10.1039 76.1415 0.5 67.3926 0.5 56.7129C0.5 48.273 6.48101 41.0529 14.8821 38.3818L15.2458 38.2662L15.2302 37.8848C15.2148 37.5095 15.2 37.146 15.2 36.7843C15.2 24.8729 25.8911 15.1415 39.2 15.1415C48.1182 15.1415 55.8718 19.5177 60.017 26.0097L60.28 26.4215L60.6977 26.1681C62.9472 24.8038 65.675 23.9986 68.6 23.9986C76.4883 23.9986 82.8 29.772 82.8 36.7843C82.8 38.4027 82.4625 39.9557 81.8597 41.3776Z" stroke="url(#paint2_linear_6_104)"/>
</g>
<path d="M23 39.1415C23.4 27.1415 32.8333 23.1415 37.5 22.6415" stroke="#B0C3FF" stroke-opacity="0.28" stroke-width="3" stroke-linecap="round"/>
<defs>
<filter id="filter0_b_6_104" x="-6" y="8.64148" width="110" height="74" filterUnits="userSpaceOnUse" color-interpolation-filters="sRGB">
<feFlood flood-opacity="0" result="BackgroundImageFix"/>
<feGaussianBlur in="BackgroundImage" stdDeviation="3"/>
<feComposite in2="SourceAlpha" operator="in" result="effect1_backgroundBlur_6_104"/>
<feBlend mode="normal" in="SourceGraphic" in2="effect1_backgroundBlur_6_104" result="shape"/>
</filter>
<linearGradient id="paint0_linear_6_104" x1="77.8488" y1="0" x2="77.8488" y2="64.7217" gradientUnits="userSpaceOnUse">
<stop stop-color="#FBFF2C"/>
<stop offset="1" stop-color="#FF7A00"/>
</linearGradient>
<linearGradient id="paint1_linear_6_104" x1="-4.05442e-07" y1="14.475" x2="91.1079" y2="85.6324" gradientUnits="userSpaceOnUse">
<stop stop-color="white" stop-opacity="0.56"/>
<stop offset="1" stop-color="white" stop-opacity="0"/>
</linearGradient>
<linearGradient id="paint2_linear_6_104" x1="-1.28067e-07" y1="14.475" x2="91.1079" y2="85.6324" gradientUnits="userSpaceOnUse">
<stop stop-color="white" stop-opacity="0.1"/>
<stop offset="1" stop-color="white" stop-opacity="0"/>
</linearGradient>
</defs>
</svg>
