<svg width="63" height="63" viewBox="0 0 63 63" fill="none" xmlns="http://www.w3.org/2000/svg">
<path d="M55.1619 39.0027C50.8666 40.5312 46.192 40.6289 41.8365 39.2812C37.481 37.9335 33.6785 35.2127 30.9971 31.5254C28.3157 27.8381 26.8993 23.3821 26.9596 18.8233C27.0199 14.2645 28.5537 9.84755 31.3316 6.23242C29.3278 6.43114 27.3571 6.88188 25.4661 7.57396C19.3694 9.8214 14.4151 14.3987 11.6932 20.299C8.97135 26.1992 8.70481 32.939 10.9523 39.0358C13.1997 45.1326 17.777 50.0868 23.6773 52.8087C29.5775 55.5306 36.3173 55.7971 42.4141 53.5497C45.8668 52.2734 48.9826 50.2258 51.524 47.563C54.0655 44.9001 55.9656 41.6923 57.0796 38.1839C56.4547 38.4892 55.8146 38.7624 55.1619 39.0027V39.0027Z" fill="url(#paint0_linear_106_20)"/>
<g clip-path="url(#clip0_106_20)">
<path d="M44.555 15.0047L41.2077 14.5182L39.7113 11.4847C39.6705 11.4016 39.6032 11.3344 39.5202 11.2935C39.3119 11.1907 39.0587 11.2764 38.9546 11.4847L37.4583 14.5182L34.1109 15.0047C34.0187 15.0179 33.9343 15.0614 33.8697 15.1273C33.7916 15.2076 33.7486 15.3156 33.75 15.4275C33.7515 15.5395 33.7974 15.6463 33.8776 15.7245L36.2994 18.0857L35.7273 21.4198C35.7138 21.4974 35.7224 21.5772 35.752 21.6501C35.7816 21.723 35.8311 21.7862 35.8948 21.8324C35.9585 21.8787 36.0338 21.9062 36.1123 21.9118C36.1909 21.9174 36.2694 21.9009 36.339 21.8641L39.333 20.29L42.327 21.8641C42.4087 21.9076 42.5036 21.9221 42.5946 21.9063C42.824 21.8668 42.9782 21.6492 42.9387 21.4198L42.3665 18.0857L44.7883 15.7245C44.8543 15.6599 44.8978 15.5755 44.9109 15.4833C44.9465 15.2525 44.7857 15.039 44.555 15.0047V15.0047Z" fill="url(#paint1_linear_106_20)"/>
</g>
<g clip-path="url(#clip1_106_20)">
<path d="M42.1134 27.8146L40.7187 27.6119L40.0952 26.348C40.0782 26.3134 40.0502 26.2853 40.0156 26.2683C39.9288 26.2255 39.8233 26.2612 39.7799 26.348L39.1564 27.6119L37.7617 27.8146C37.7233 27.8201 37.6881 27.8383 37.6612 27.8657C37.6287 27.8992 37.6107 27.9442 37.6113 27.9908C37.612 28.0375 37.6311 28.082 37.6645 28.1146L38.6736 29.0984L38.4352 30.4876C38.4296 30.5199 38.4332 30.5532 38.4455 30.5836C38.4578 30.6139 38.4784 30.6403 38.505 30.6595C38.5315 30.6788 38.5629 30.6903 38.5956 30.6926C38.6284 30.6949 38.6611 30.688 38.6901 30.6727L39.9376 30.0168L41.1851 30.6727C41.2191 30.6909 41.2587 30.6969 41.2966 30.6903C41.3922 30.6738 41.4564 30.5832 41.4399 30.4876L41.2015 29.0984L42.2106 28.1146C42.2381 28.0876 42.2562 28.0525 42.2617 28.014C42.2766 27.9179 42.2095 27.8289 42.1134 27.8146V27.8146Z" fill="url(#paint2_linear_106_20)"/>
</g>
<g clip-path="url(#clip2_106_20)">
<path d="M51.1134 24.4396L49.7187 24.2369L49.0952 22.973C49.0782 22.9384 49.0502 22.9103 49.0156 22.8933C48.9288 22.8505 48.8233 22.8862 48.7799 22.973L48.1564 24.2369L46.7617 24.4396C46.7233 24.4451 46.6881 24.4633 46.6612 24.4907C46.6287 24.5242 46.6107 24.5692 46.6113 24.6158C46.612 24.6625 46.6311 24.707 46.6645 24.7396L47.6736 25.7234L47.4352 27.1126C47.4296 27.1449 47.4332 27.1782 47.4455 27.2086C47.4578 27.2389 47.4784 27.2653 47.505 27.2845C47.5315 27.3038 47.5629 27.3153 47.5956 27.3176C47.6284 27.3199 47.6611 27.313 47.6901 27.2977L48.9376 26.6418L50.1851 27.2977C50.2191 27.3159 50.2587 27.3219 50.2966 27.3153C50.3922 27.2988 50.4564 27.2082 50.4399 27.1126L50.2015 25.7234L51.2106 24.7396C51.2381 24.7126 51.2562 24.6775 51.2617 24.639C51.2766 24.5429 51.2095 24.4539 51.1134 24.4396V24.4396Z" fill="url(#paint3_linear_106_20)"/>
</g>
<defs>
<linearGradient id="paint0_linear_106_20" x1="22.921" y1="8.51215" x2="39.869" y2="54.4879" gradientUnits="userSpaceOnUse">
<stop stop-color="#FDFFA3"/>
<stop offset="1" stop-color="#FF8E26"/>
</linearGradient>
<linearGradient id="paint1_linear_106_20" x1="39.3329" y1="11.25" x2="39.3329" y2="21.9128" gradientUnits="userSpaceOnUse">
<stop stop-color="#FDFFA3"/>
<stop offset="1" stop-color="#FF8E26"/>
</linearGradient>
<linearGradient id="paint2_linear_106_20" x1="39.9376" y1="26.2502" x2="39.9376" y2="30.693" gradientUnits="userSpaceOnUse">
<stop stop-color="#FDFFA3"/>
<stop offset="1" stop-color="#FF8E26"/>
</linearGradient>
<linearGradient id="paint3_linear_106_20" x1="48.9376" y1="22.8752" x2="48.9376" y2="27.318" gradientUnits="userSpaceOnUse">
<stop stop-color="#FDFFA3"/>
<stop offset="1" stop-color="#FF8E26"/>
</linearGradient>
<clipPath id="clip0_106_20">
<rect width="13.5" height="13.5" fill="white" transform="translate(33.75 11.25)"/>
</clipPath>
<clipPath id="clip1_106_20">
<rect width="5.625" height="5.625" fill="white" transform="translate(37.125 25.875)"/>
</clipPath>
<clipPath id="clip2_106_20">
<rect width="5.625" height="5.625" fill="white" transform="translate(46.125 22.5)"/>
</clipPath>
</defs>
</svg>
