<svg width="65" height="65" viewBox="0 0 65 65" fill="none" xmlns="http://www.w3.org/2000/svg">
<path d="M32.5055 15.5875C30.3082 15.5866 28.1323 16.0188 26.1022 16.8593C24.072 17.6997 22.2274 18.932 20.6737 20.4857C19.12 22.0394 17.8877 23.8841 17.0472 25.9143C16.2067 27.9444 15.7745 30.1203 15.7754 32.3176C15.7757 36.7536 17.5381 41.0077 20.675 44.1443C22.2283 45.6973 24.0722 46.9292 26.1015 47.7696C28.1309 48.6101 30.3058 49.0425 32.5023 49.0424C34.6988 49.0423 36.8737 48.6095 38.903 47.7688C40.9322 46.9281 42.7759 45.696 44.329 44.1428C45.882 42.5895 47.1139 40.7456 47.9544 38.7163C48.7948 36.6869 49.2273 34.5119 49.2271 32.3155C49.2285 30.1186 48.797 27.943 47.9571 25.9129C47.1172 23.8829 45.8855 22.0384 44.3324 20.4846C42.7792 18.9309 40.9351 17.6985 38.9054 16.8578C36.8757 16.0172 34.7003 15.5848 32.5034 15.5853L32.5055 15.5875ZM32.5055 14.4676C32.7846 14.4676 33.0609 14.4126 33.3187 14.3058C33.5765 14.199 33.8108 14.0425 34.0081 13.8452C34.2054 13.6479 34.362 13.4136 34.4688 13.1558C34.5755 12.898 34.6305 12.6217 34.6305 12.3426V2.02997C34.6055 1.48284 34.3704 0.966452 33.9742 0.588319C33.578 0.210186 33.0512 -0.000546631 32.5035 1.06493e-06C31.9558 0.00054876 31.4294 0.212334 31.0339 0.591259C30.6385 0.970184 30.4044 1.48704 30.3805 2.03422V12.3405C30.3805 13.5092 31.3304 14.4655 32.5055 14.4655V14.4676ZM39.3331 15.8233C39.5908 15.9317 39.8674 15.988 40.1469 15.9888C40.4265 15.9896 40.7034 15.9349 40.9617 15.828C41.22 15.7211 41.4545 15.5641 41.6517 15.3659C41.8489 15.1678 42.0048 14.9325 42.1105 14.6737L46.0545 5.14734C46.2699 4.62742 46.27 4.04325 46.0548 3.52324C45.8396 3.00323 45.4268 2.58995 44.907 2.37422C44.3855 2.15903 43.8001 2.15893 43.2785 2.37392C42.7569 2.58892 42.3416 3.00155 42.1233 3.52172L38.1856 13.0502C37.9703 13.5701 37.9702 14.1543 38.1853 14.6743C38.4005 15.1943 38.8134 15.6076 39.3331 15.8233ZM45.1238 19.6908C45.3206 19.8889 45.5547 20.046 45.8126 20.1532C46.0704 20.2605 46.3469 20.3157 46.6261 20.3157C46.9054 20.3157 47.1819 20.2605 47.4397 20.1532C47.6975 20.046 47.9316 19.8889 48.1285 19.6908L55.4173 12.3957C55.6201 12.1995 55.7818 11.965 55.893 11.7056C56.0042 11.4463 56.0626 11.1674 56.0648 10.8852C56.0671 10.6031 56.0131 10.3233 55.9061 10.0622C55.7991 9.80116 55.6411 9.56401 55.4414 9.36463C55.2418 9.16525 55.0044 9.00763 54.7432 8.90097C54.4819 8.79431 54.2021 8.74074 53.9199 8.74339C53.6378 8.74604 53.359 8.80485 53.0998 8.9164C52.8406 9.02795 52.6063 9.19 52.4104 9.39309L45.1216 16.6818C44.7235 17.0813 44.5 17.6223 44.5 18.1863C44.5 18.7503 44.7235 19.2913 45.1216 19.6908H45.1238ZM48.9976 25.4815C49.104 25.7394 49.2602 25.9739 49.4575 26.1712C49.6548 26.3686 49.8891 26.525 50.147 26.6314C50.4049 26.7379 50.6814 26.7923 50.9604 26.7915C51.2394 26.7907 51.5156 26.7347 51.7729 26.6268L61.2929 22.6786C61.553 22.5732 61.7896 22.4174 61.9891 22.2201C62.1887 22.0228 62.3472 21.7879 62.4554 21.529C62.5637 21.2702 62.6196 20.9924 62.62 20.7118C62.6204 20.4312 62.5651 20.1533 62.4575 19.8941C62.3499 19.6349 62.192 19.3997 61.993 19.2019C61.7939 19.0041 61.5577 18.8476 61.2979 18.7416C61.0381 18.6356 60.7598 18.5821 60.4792 18.5841C60.1986 18.5862 59.9212 18.6439 59.663 18.7537L50.143 22.6998C49.0593 23.1503 48.545 24.3956 48.9955 25.4793L48.9976 25.4815ZM62.7889 30.1777L52.4784 30.182C51.3096 30.182 50.3534 31.134 50.3598 32.307C50.3598 33.4842 51.3096 34.432 52.4805 34.432L62.7931 34.4277C63.3403 34.4032 63.8569 34.1687 64.2354 33.7728C64.6139 33.377 64.8252 32.8504 64.8252 32.3027C64.8252 31.755 64.6139 31.2284 64.2354 30.8326C63.8569 30.4368 63.3403 30.2022 62.7931 30.1777H62.7889ZM61.3014 41.929L51.7814 37.9871C51.5236 37.8798 51.2471 37.8243 50.9678 37.8239C50.6885 37.8235 50.4119 37.8781 50.1538 37.9847C49.8956 38.0913 49.661 38.2477 49.4634 38.445C49.2657 38.6423 49.1089 38.8766 49.0019 39.1346C48.5556 40.2226 49.0656 41.4657 50.1494 41.9183L59.6758 45.856C59.9346 45.968 60.2132 46.0273 60.4952 46.0307C60.7772 46.034 61.0571 45.9812 61.3185 45.8754C61.5799 45.7696 61.8177 45.6128 62.018 45.4143C62.2183 45.2157 62.3771 44.9793 62.4852 44.7187C62.5932 44.4582 62.6484 44.1788 62.6475 43.8968C62.6466 43.6147 62.5896 43.3357 62.4798 43.0759C62.37 42.8161 62.2097 42.5807 62.0081 42.3834C61.8065 42.1862 61.5678 42.031 61.3056 41.9268L61.3014 41.929ZM48.1413 44.9252C47.7405 44.5381 47.2037 44.3239 46.6465 44.3288C46.0894 44.3336 45.5564 44.5571 45.1624 44.9511C44.7684 45.3451 44.5449 45.8781 44.5401 46.4352C44.5352 46.9924 44.7494 47.5292 45.1365 47.93L52.4338 55.2187C52.6309 55.4163 52.8652 55.5731 53.1231 55.68C53.381 55.7869 53.6574 55.8418 53.9366 55.8416C54.2157 55.8414 54.4921 55.7861 54.7499 55.6788C55.0076 55.5716 55.2416 55.4145 55.4385 55.2166C56.2673 54.3836 56.2673 53.0385 55.4385 52.2097L48.1413 44.9252ZM42.1275 49.9466C41.9114 49.4258 41.4972 49.0123 40.9762 48.7969C40.4551 48.5815 39.8698 48.5819 39.3491 48.798C38.8283 49.0142 38.4148 49.4283 38.1994 49.9494C37.984 50.4704 37.9844 51.0557 38.2005 51.5765L42.153 61.0965C42.2598 61.3546 42.4165 61.5891 42.6141 61.7866C42.8117 61.9841 43.0463 62.1406 43.3046 62.2472C43.5628 62.3538 43.8395 62.4084 44.1189 62.4078C44.3982 62.4073 44.6747 62.3516 44.9325 62.244C46.0163 61.7977 46.5305 60.5503 46.08 59.4602L42.1275 49.9466ZM32.5268 50.1655C31.9632 50.1655 31.4227 50.3893 31.0242 50.7879C30.6256 51.1864 30.4018 51.7269 30.4018 52.2905L30.4103 62.5967C30.4103 63.1603 30.6341 63.7008 31.0327 64.0993C31.4312 64.4978 31.9717 64.7217 32.5353 64.7217C33.7104 64.7217 34.6603 63.7697 34.656 62.5967L34.6496 52.2862C34.6496 51.1175 33.6955 50.1612 32.5268 50.1655ZM25.6928 48.814C25.4348 48.7075 25.1583 48.6528 24.8792 48.6532C24.6001 48.6535 24.3238 48.7089 24.0661 48.816C23.8084 48.9232 23.5743 49.0801 23.3772 49.2777C23.1802 49.4753 23.0239 49.7098 22.9175 49.9678L18.982 59.4942C18.8496 59.8175 18.7988 60.1684 18.8339 60.516C18.869 60.8636 18.9891 61.1972 19.1834 61.4875C19.3778 61.7778 19.6406 62.0159 19.9486 62.1808C20.2566 62.3457 20.6004 62.4323 20.9498 62.4331C21.3703 62.433 21.7813 62.3082 22.1308 62.0744C22.4803 61.8407 22.7526 61.5084 22.9133 61.1198L26.8509 51.5892C27.0652 51.0682 27.0638 50.4833 26.847 49.9633C26.6302 49.4433 26.2158 49.0307 25.6949 48.8161L25.6928 48.814ZM19.9 44.9571C19.7024 44.7598 19.4678 44.6034 19.2097 44.4968C18.9515 44.3902 18.6749 44.3356 18.3957 44.336C18.1164 44.3364 17.84 44.3918 17.5822 44.4991C17.3244 44.6064 17.0902 44.7635 16.8931 44.9613L9.61501 52.2565C9.41771 52.4539 9.26124 52.6883 9.15452 52.9462C9.0478 53.2041 8.99292 53.4805 8.99302 53.7596C8.99311 54.0387 9.04819 54.3151 9.15509 54.5729C9.262 54.8307 9.41864 55.065 9.61607 55.2623C9.81351 55.4596 10.0479 55.616 10.3058 55.7228C10.5637 55.8295 10.8401 55.8844 11.1192 55.8843C11.3983 55.8842 11.6747 55.8291 11.9325 55.7222C12.1903 55.6153 12.4246 55.4586 12.6219 55.2612L19.9043 47.964C20.1016 47.7663 20.258 47.5317 20.3645 47.2736C20.4711 47.0155 20.5258 46.7389 20.5254 46.4596C20.525 46.1804 20.4695 45.9039 20.3622 45.6461C20.2549 45.3883 20.0979 45.1542 19.9 44.9571ZM16.024 39.1771C15.8079 38.6566 15.3938 38.2434 14.873 38.0282C14.3521 37.813 13.7671 37.8135 13.2466 38.0296L3.72663 41.9821C3.23119 42.2148 2.84453 42.6296 2.64708 43.1401C2.44963 43.6506 2.4566 44.2176 2.66653 44.7232C2.87646 45.2287 3.27319 45.6338 3.7742 45.8543C4.27522 46.0748 4.84195 46.0937 5.35651 45.907L14.8765 41.9545C15.956 41.4976 16.4703 40.2545 16.024 39.1707V39.1771ZM14.6513 32.3452C14.6513 31.7816 14.4274 31.2411 14.0289 30.8426C13.6303 30.4441 13.0898 30.2202 12.5263 30.2202L2.22001 30.2351C1.93324 30.2223 1.64684 30.2677 1.3781 30.3686C1.10936 30.4695 0.863842 30.6238 0.656373 30.8221C0.448904 31.0205 0.283782 31.2589 0.170971 31.5229C0.0581604 31.7868 0 32.0709 0 32.358C0 32.645 0.0581604 32.9291 0.170971 33.1931C0.283782 33.457 0.448904 33.6954 0.656373 33.8938C0.863842 34.0922 1.10936 34.2465 1.3781 34.3474C1.64684 34.4483 1.93324 34.4937 2.22001 34.4808L12.5305 34.4681C13.7035 34.4681 14.6555 33.5118 14.6513 32.3431V32.3452ZM3.69476 22.7402L13.2254 26.6715C13.4847 26.7852 13.7641 26.8459 14.0472 26.8501C14.3303 26.8543 14.6114 26.8019 14.874 26.6959C15.1365 26.59 15.3753 26.4326 15.5762 26.2331C15.777 26.0336 15.936 25.7959 16.0438 25.5341C16.1516 25.2723 16.2059 24.9916 16.2037 24.7084C16.2014 24.4253 16.1426 24.1455 16.0307 23.8854C15.9188 23.6253 15.756 23.3902 15.552 23.1939C15.3479 22.9976 15.1067 22.8441 14.8425 22.7423L5.32251 18.809C4.80917 18.631 4.2472 18.6559 3.75167 18.8788C3.25614 19.1016 2.86454 19.5054 2.65706 20.0076C2.44957 20.5097 2.4419 21.0722 2.6356 21.5798C2.82931 22.0875 3.20974 22.5018 3.69901 22.7381L3.69476 22.7402ZM16.8549 19.7227C17.0524 19.9204 17.287 20.0771 17.5452 20.1838C17.8035 20.2905 18.0802 20.3451 18.3596 20.3445C18.6391 20.3439 18.9156 20.2881 19.1734 20.1803C19.4312 20.0725 19.6651 19.9148 19.8618 19.7163C20.0588 19.5186 20.2149 19.2839 20.3211 19.0257C20.4272 18.7675 20.4814 18.4909 20.4804 18.2118C20.4794 17.9326 20.4233 17.6564 20.3153 17.3989C20.2073 17.1415 20.0496 16.9079 19.8511 16.7116L12.5539 9.43772C12.3564 9.24049 12.122 9.08412 11.8641 8.97758C11.6061 8.87103 11.3297 8.81639 11.0506 8.81679C10.7715 8.81718 10.4953 8.8726 10.2376 8.97988C9.97999 9.08715 9.74603 9.24418 9.54913 9.44197C9.35162 9.63914 9.19493 9.87333 9.08802 10.1311C8.98111 10.3889 8.92608 10.6653 8.92608 10.9443C8.92608 11.2234 8.98111 11.4998 9.08802 11.7576C9.19493 12.0154 9.35162 12.2495 9.54913 12.4467L16.8549 19.7227ZM22.8623 14.695C23.0792 15.2154 23.4941 15.6284 24.0155 15.843C24.537 16.0576 25.1224 16.0563 25.6428 15.8393C26.1633 15.6223 26.5763 15.2074 26.7909 14.686C27.0055 14.1645 27.0041 13.5792 26.7871 13.0587L22.8283 3.53872C22.6113 3.01796 22.1963 2.60474 21.6747 2.38994C21.153 2.17514 20.5674 2.17636 20.0466 2.39334C19.5259 2.61032 19.1127 3.02528 18.8979 3.54694C18.6831 4.0686 18.6843 4.65421 18.9013 5.17497L22.8623 14.695Z" fill="url(#paint0_linear_13_3)"/>
<defs>
<linearGradient id="paint0_linear_13_3" x1="32.4126" y1="0" x2="32.4126" y2="64.7217" gradientUnits="userSpaceOnUse">
<stop stop-color="#FBFF2C"/>
<stop offset="1" stop-color="#FF7A00"/>
</linearGradient>
</defs>
</svg>
