<svg width="16" height="16" viewBox="0 0 16 16" fill="none" xmlns="http://www.w3.org/2000/svg">
<g clip-path="url(#clip0_2_43)">
<path d="M13.405 4.27701C13.1973 3.23018 12.6602 2.27722 11.8722 1.55749C11.0842 0.837762 10.0866 0.389 9.02526 0.276823C7.96393 0.164646 6.89455 0.394936 5.97348 0.934024C5.0524 1.47311 4.32794 2.29272 3.90601 3.27301C3.43285 3.21851 2.95354 3.26115 2.49743 3.39832C2.04132 3.5355 1.61801 3.76432 1.25341 4.07079C0.888813 4.37726 0.590602 4.75492 0.377036 5.18064C0.16347 5.60637 0.0390429 6.07121 0.0113738 6.54669C-0.0162954 7.02218 0.0533751 7.49831 0.21612 7.94594C0.378864 8.39356 0.631258 8.80326 0.957849 9.14995C1.28444 9.49664 1.67835 9.77302 2.11547 9.96217C2.55259 10.1513 3.02372 10.2493 3.50001 10.25H13C13.7611 10.2509 14.4941 9.96243 15.0505 9.44309C15.6069 8.92374 15.9451 8.21233 15.9966 7.45297C16.0481 6.6936 15.809 5.94305 15.3278 5.35335C14.8466 4.76365 14.1593 4.37889 13.405 4.27701V4.27701ZM8.50001 1.25001C9.48397 1.24981 10.4335 1.61228 11.167 2.26813C11.9005 2.92397 12.3665 3.82717 12.476 4.80501C12.4896 4.92787 12.5482 5.04134 12.6406 5.12352C12.7329 5.2057 12.8524 5.25076 12.976 5.25001H13C13.5304 5.25015 14.0391 5.46099 14.4141 5.83615C14.7891 6.21132 14.9996 6.72008 14.9995 7.25051C14.9994 7.78095 14.7885 8.2896 14.4134 8.66458C14.0382 9.03956 13.5294 9.25015 12.999 9.25001H3.50001C3.14609 9.24984 2.79623 9.17452 2.47359 9.02903C2.15095 8.88354 1.86288 8.67121 1.62843 8.40607C1.39398 8.14093 1.2185 7.82904 1.1136 7.49101C1.00869 7.15299 0.976758 6.79655 1.0199 6.44526C1.06305 6.09397 1.18029 5.75585 1.36387 5.45326C1.54745 5.15067 1.79319 4.89051 2.08483 4.68998C2.37647 4.48946 2.70736 4.35314 3.05562 4.29005C3.40388 4.22696 3.76156 4.23854 4.10501 4.32401C4.22754 4.35458 4.3571 4.33764 4.46765 4.27661C4.57821 4.21558 4.66158 4.11498 4.70101 3.99501C4.96529 3.19619 5.47463 2.50098 6.15663 2.00819C6.83863 1.51541 7.65861 1.25011 8.50001 1.25001V1.25001ZM2.62501 11.5C2.69132 11.5 2.75491 11.5264 2.80179 11.5732C2.84868 11.6201 2.87501 11.6837 2.87501 11.75V12.32L3.37601 12.033C3.43344 12.002 3.50073 11.9946 3.56351 12.0126C3.62628 12.0305 3.67955 12.0722 3.71194 12.1289C3.74433 12.1856 3.75326 12.2527 3.73683 12.3159C3.7204 12.379 3.67991 12.4333 3.62401 12.467L3.12901 12.75L3.62401 13.033C3.67991 13.0667 3.7204 13.121 3.73683 13.1842C3.75326 13.2473 3.74433 13.3144 3.71194 13.3711C3.67955 13.4278 3.62628 13.4696 3.56351 13.4875C3.50073 13.5054 3.43344 13.4981 3.37601 13.467L2.87501 13.181V13.75C2.87501 13.8163 2.84868 13.8799 2.80179 13.9268C2.75491 13.9737 2.69132 14 2.62501 14C2.55871 14 2.49512 13.9737 2.44824 13.9268C2.40135 13.8799 2.37501 13.8163 2.37501 13.75V13.18L1.87401 13.467C1.81659 13.4981 1.74929 13.5054 1.68652 13.4875C1.62375 13.4696 1.57048 13.4278 1.53809 13.3711C1.5057 13.3144 1.49677 13.2473 1.5132 13.1842C1.52963 13.121 1.57012 13.0667 1.62601 13.033L2.12101 12.75L1.62601 12.467C1.57012 12.4333 1.52963 12.379 1.5132 12.3159C1.49677 12.2527 1.5057 12.1856 1.53809 12.1289C1.57048 12.0722 1.62375 12.0305 1.68652 12.0126C1.74929 11.9946 1.81659 12.002 1.87401 12.033L2.37501 12.319V11.75C2.37501 11.6837 2.40135 11.6201 2.44824 11.5732C2.49512 11.5264 2.55871 11.5 2.62501 11.5V11.5ZM5.37501 13.5C5.44132 13.5 5.50491 13.5264 5.55179 13.5732C5.59868 13.6201 5.62501 13.6837 5.62501 13.75V14.32L6.12601 14.033C6.18344 14.002 6.25073 13.9946 6.31351 14.0126C6.37628 14.0305 6.42955 14.0722 6.46194 14.1289C6.49433 14.1856 6.50326 14.2527 6.48683 14.3159C6.4704 14.379 6.42991 14.4333 6.37401 14.467L5.87901 14.75L6.37401 15.033C6.42991 15.0667 6.4704 15.121 6.48683 15.1842C6.50326 15.2473 6.49433 15.3144 6.46194 15.3711C6.42955 15.4278 6.37628 15.4696 6.31351 15.4875C6.25073 15.5054 6.18344 15.4981 6.12601 15.467L5.62501 15.181V15.75C5.62501 15.8163 5.59868 15.8799 5.55179 15.9268C5.50491 15.9737 5.44132 16 5.37501 16C5.30871 16 5.24512 15.9737 5.19824 15.9268C5.15135 15.8799 5.12501 15.8163 5.12501 15.75V15.18L4.62401 15.467C4.56659 15.4981 4.49929 15.5054 4.43652 15.4875C4.37375 15.4696 4.32048 15.4278 4.28809 15.3711C4.2557 15.3144 4.24677 15.2473 4.2632 15.1842C4.27963 15.121 4.32012 15.0667 4.37601 15.033L4.87101 14.75L4.37601 14.467C4.32012 14.4333 4.27963 14.379 4.2632 14.3159C4.24677 14.2527 4.2557 14.1856 4.28809 14.1289C4.32048 14.0722 4.37375 14.0305 4.43652 14.0126C4.49929 13.9946 4.56659 14.002 4.62401 14.033L5.12501 14.319V13.75C5.12501 13.6837 5.15135 13.6201 5.19824 13.5732C5.24512 13.5264 5.30871 13.5 5.37501 13.5ZM10.875 13.5C10.9413 13.5 11.0049 13.5264 11.0518 13.5732C11.0987 13.6201 11.125 13.6837 11.125 13.75V14.32L11.626 14.033C11.6834 14.002 11.7507 13.9946 11.8135 14.0126C11.8763 14.0305 11.9296 14.0722 11.9619 14.1289C11.9943 14.1856 12.0033 14.2527 11.9868 14.3159C11.9704 14.379 11.9299 14.4333 11.874 14.467L11.379 14.75L11.874 15.033C11.9299 15.0667 11.9704 15.121 11.9868 15.1842C12.0033 15.2473 11.9943 15.3144 11.9619 15.3711C11.9296 15.4278 11.8763 15.4696 11.8135 15.4875C11.7507 15.5054 11.6834 15.4981 11.626 15.467L11.125 15.181V15.75C11.125 15.8163 11.0987 15.8799 11.0518 15.9268C11.0049 15.9737 10.9413 16 10.875 16C10.8087 16 10.7451 15.9737 10.6982 15.9268C10.6514 15.8799 10.625 15.8163 10.625 15.75V15.18L10.124 15.467C10.0666 15.4981 9.99929 15.5054 9.93652 15.4875C9.87375 15.4696 9.82048 15.4278 9.78809 15.3711C9.7557 15.3144 9.74677 15.2473 9.7632 15.1842C9.77963 15.121 9.82012 15.0667 9.87601 15.033L10.371 14.75L9.87601 14.467C9.82012 14.4333 9.77963 14.379 9.7632 14.3159C9.74677 14.2527 9.7557 14.1856 9.78809 14.1289C9.82048 14.0722 9.87375 14.0305 9.93652 14.0126C9.99929 13.9946 10.0666 14.002 10.124 14.033L10.625 14.319V13.75C10.625 13.6837 10.6514 13.6201 10.6982 13.5732C10.7451 13.5264 10.8087 13.5 10.875 13.5ZM8.12501 11.5C8.19132 11.5 8.25491 11.5264 8.30179 11.5732C8.34868 11.6201 8.37501 11.6837 8.37501 11.75V12.32L8.87601 12.033C8.93344 12.002 9.00073 11.9946 9.06351 12.0126C9.12628 12.0305 9.17955 12.0722 9.21194 12.1289C9.24433 12.1856 9.25326 12.2527 9.23683 12.3159C9.2204 12.379 9.17991 12.4333 9.12401 12.467L8.62901 12.75L9.12401 13.033C9.17991 13.0667 9.2204 13.121 9.23683 13.1842C9.25326 13.2473 9.24433 13.3144 9.21194 13.3711C9.17955 13.4278 9.12628 13.4696 9.06351 13.4875C9.00073 13.5054 8.93344 13.4981 8.87601 13.467L8.37501 13.181V13.75C8.37501 13.8163 8.34868 13.8799 8.30179 13.9268C8.25491 13.9737 8.19132 14 8.12501 14C8.05871 14 7.99512 13.9737 7.94824 13.9268C7.90135 13.8799 7.87501 13.8163 7.87501 13.75V13.18L7.37401 13.467C7.31659 13.4981 7.24929 13.5054 7.18652 13.4875C7.12375 13.4696 7.07048 13.4278 7.03809 13.3711C7.0057 13.3144 6.99677 13.2473 7.0132 13.1842C7.02963 13.121 7.07012 13.0667 7.12601 13.033L7.62101 12.75L7.12601 12.467C7.07012 12.4333 7.02963 12.379 7.0132 12.3159C6.99677 12.2527 7.0057 12.1856 7.03809 12.1289C7.07048 12.0722 7.12375 12.0305 7.18652 12.0126C7.24929 11.9946 7.31659 12.002 7.37401 12.033L7.87501 12.319V11.75C7.87501 11.6837 7.90135 11.6201 7.94824 11.5732C7.99512 11.5264 8.05871 11.5 8.12501 11.5ZM13.625 11.5C13.6913 11.5 13.7549 11.5264 13.8018 11.5732C13.8487 11.6201 13.875 11.6837 13.875 11.75V12.32L14.376 12.033C14.4334 12.002 14.5007 11.9946 14.5635 12.0126C14.6263 12.0305 14.6796 12.0722 14.7119 12.1289C14.7443 12.1856 14.7533 12.2527 14.7368 12.3159C14.7204 12.379 14.6799 12.4333 14.624 12.467L14.129 12.75L14.624 13.033C14.6799 13.0667 14.7204 13.121 14.7368 13.1842C14.7533 13.2473 14.7443 13.3144 14.7119 13.3711C14.6796 13.4278 14.6263 13.4696 14.5635 13.4875C14.5007 13.5054 14.4334 13.4981 14.376 13.467L13.875 13.181V13.75C13.875 13.8163 13.8487 13.8799 13.8018 13.9268C13.7549 13.9737 13.6913 14 13.625 14C13.5587 14 13.4951 13.9737 13.4482 13.9268C13.4014 13.8799 13.375 13.8163 13.375 13.75V13.18L12.874 13.467C12.8166 13.4981 12.7493 13.5054 12.6865 13.4875C12.6238 13.4696 12.5705 13.4278 12.5381 13.3711C12.5057 13.3144 12.4968 13.2473 12.5132 13.1842C12.5296 13.121 12.5701 13.0667 12.626 13.033L13.121 12.75L12.626 12.467C12.5701 12.4333 12.5296 12.379 12.5132 12.3159C12.4968 12.2527 12.5057 12.1856 12.5381 12.1289C12.5705 12.0722 12.6238 12.0305 12.6865 12.0126C12.7493 11.9946 12.8166 12.002 12.874 12.033L13.375 12.319V11.75C13.375 11.6837 13.4014 11.6201 13.4482 11.5732C13.4951 11.5264 13.5587 11.5 13.625 11.5Z" fill="black"/>
</g>
<defs>
<clipPath id="clip0_2_43">
<rect width="16" height="16" fill="white"/>
</clipPath>
</defs>
</svg>
