<svg width="16" height="16" viewBox="0 0 16 16" fill="none" xmlns="http://www.w3.org/2000/svg">
<g clip-path="url(#clip0_2_14)">
<mask id="path-1-inside-1_2_14" fill="white">
<path d="M13.405 4.02701C13.1973 2.98018 12.6602 2.02722 11.8722 1.30749C11.0842 0.587762 10.0866 0.139 9.02523 0.0268229C7.9639 -0.0853543 6.89452 0.144936 5.97345 0.684024C5.05237 1.22311 4.32791 2.04272 3.90598 3.02301C3.43282 2.96851 2.95351 3.01115 2.4974 3.14832C2.04129 3.2855 1.61798 3.51432 1.25338 3.82079C0.888782 4.12726 0.590571 4.50492 0.377005 4.93064C0.163439 5.35637 0.0390124 5.82121 0.0113432 6.29669C-0.0163259 6.77218 0.0533446 7.24831 0.216089 7.69594C0.378834 8.14356 0.631228 8.55326 0.957818 8.89995C1.28441 9.24664 1.67832 9.52302 2.11544 9.71217C2.55256 9.90133 3.02369 9.99927 3.49998 10H13C13.7611 10.0009 14.4941 9.71243 15.0505 9.19309C15.6069 8.67374 15.9451 7.96233 15.9965 7.20297C16.048 6.4436 15.809 5.69305 15.3278 5.10335C14.8466 4.51365 14.1592 4.12889 13.405 4.02701ZM8.49998 1.00001C9.48394 0.99981 10.4335 1.36228 11.167 2.01813C11.9005 2.67397 12.3665 3.57717 12.476 4.55501C12.4896 4.67787 12.5482 4.79134 12.6405 4.87352C12.7329 4.9557 12.8524 5.00076 12.976 5.00001H13C13.5304 5.00001 14.0391 5.21073 14.4142 5.5858C14.7893 5.96087 15 6.46958 15 7.00001C15 7.53045 14.7893 8.03915 14.4142 8.41423C14.0391 8.7893 13.5304 9.00001 13 9.00001H3.49998C3.14606 8.99984 2.7962 8.92452 2.47356 8.77903C2.15092 8.63354 1.86285 8.42121 1.6284 8.15607C1.39395 7.89093 1.21847 7.57904 1.11357 7.24101C1.00866 6.90299 0.976727 6.54655 1.01987 6.19526C1.06302 5.84397 1.18026 5.50585 1.36384 5.20326C1.54742 4.90067 1.79316 4.64051 2.0848 4.43998C2.37644 4.23946 2.70733 4.10314 3.05559 4.04005C3.40385 3.97696 3.76153 3.98854 4.10498 4.07401C4.22751 4.10458 4.35707 4.08764 4.46762 4.02661C4.57818 3.96558 4.66155 3.86498 4.70098 3.74501C4.96526 2.94619 5.4746 2.25098 6.1566 1.75819C6.8386 1.26541 7.65858 1.00011 8.49998 1.00001ZM7.05298 11.276C7.09455 11.1931 7.15837 11.1233 7.23731 11.0746C7.31626 11.0258 7.40721 11 7.49998 11H8.49998C8.57917 11.0001 8.65721 11.0189 8.72767 11.0551C8.79814 11.0912 8.85902 11.1435 8.9053 11.2078C8.95158 11.272 8.98195 11.3463 8.99389 11.4246C9.00583 11.5029 8.99901 11.5829 8.97398 11.658L8.69398 12.5H9.49998C9.59407 12.5001 9.68621 12.5268 9.76581 12.577C9.84541 12.6271 9.90925 12.6987 9.94998 12.7835C9.99072 12.8683 10.0067 12.9629 9.99608 13.0564C9.98547 13.1499 9.94869 13.2385 9.88998 13.312L7.88998 15.812C7.81862 15.9007 7.71916 15.9623 7.60803 15.9868C7.49689 16.0113 7.38073 15.9971 7.27874 15.9466C7.17675 15.8961 7.09502 15.8124 7.04707 15.7092C6.99911 15.606 6.98779 15.4895 7.01498 15.379L7.35998 14H6.49998C6.41472 14 6.33087 13.9782 6.25641 13.9367C6.18195 13.8951 6.11935 13.8352 6.07456 13.7627C6.02976 13.6901 6.00427 13.6073 6.00049 13.5222C5.99672 13.437 6.01479 13.3522 6.05298 13.276L7.05298 11.276Z"/>
</mask>
<path d="M13.405 4.02701L12.9145 4.12431L12.984 4.4747L13.3381 4.52251L13.405 4.02701ZM3.90598 3.02301L3.84876 3.51973L4.21822 3.56229L4.36525 3.22069L3.90598 3.02301ZM3.49998 10L3.49921 10.5H3.49998V10ZM13 10L13.0006 9.50001H13V10ZM8.49998 1.00001L8.50004 1.50001H8.50009L8.49998 1.00001ZM12.476 4.55501L12.973 4.50002L12.9729 4.49939L12.476 4.55501ZM12.976 5.00001V4.50001L12.9729 4.50002L12.976 5.00001ZM13 5.00001V4.50001V5.00001ZM3.49998 9.00001L3.49974 9.50001H3.49998V9.00001ZM4.10498 4.07401L4.22599 3.58888L4.22574 3.58881L4.10498 4.07401ZM4.70098 3.74501L4.22629 3.58797L4.22599 3.58888L4.70098 3.74501ZM7.05298 11.276L6.60597 11.052L6.60577 11.0524L7.05298 11.276ZM7.49998 11V10.5H7.49997L7.49998 11ZM8.49998 11L8.50036 10.5H8.49998V11ZM8.97398 11.658L8.4996 11.5L8.49953 11.5002L8.97398 11.658ZM8.69398 12.5L8.21953 12.3422L8.00079 13H8.69398V12.5ZM9.49998 12.5L9.5007 12H9.49998V12.5ZM9.88998 13.312L10.2804 13.6244L10.2807 13.624L9.88998 13.312ZM7.88998 15.812L8.27947 16.1256L8.28042 16.1244L7.88998 15.812ZM7.01498 15.379L6.52993 15.2577L6.52947 15.2595L7.01498 15.379ZM7.35998 14L7.84503 14.1214L8.00048 13.5H7.35998V14ZM6.49998 14L6.49997 14.5H6.49998V14ZM6.05298 13.276L6.5 13.5L6.5002 13.4996L6.05298 13.276ZM13.8954 3.92972C13.667 2.77822 13.0762 1.72999 12.2094 0.938304L11.535 1.67668C12.2442 2.32445 12.7276 3.18213 12.9145 4.12431L13.8954 3.92972ZM12.2094 0.938304C11.3426 0.146614 10.2452 -0.347015 9.07778 -0.470407L8.97267 0.524053C9.92789 0.625015 10.8258 1.02891 11.535 1.67668L12.2094 0.938304ZM9.07778 -0.470407C7.91034 -0.5938 6.73405 -0.340485 5.72088 0.252501L6.22601 1.11555C7.05499 0.630358 8.01746 0.423092 8.97267 0.524053L9.07778 -0.470407ZM5.72088 0.252501C4.70772 0.845486 3.91082 1.74704 3.44672 2.82534L4.36525 3.22069C4.74499 2.3384 5.39702 1.60074 6.22601 1.11555L5.72088 0.252501ZM3.96321 2.5263C3.42245 2.464 2.87467 2.51273 2.3534 2.66951L2.64141 3.62714C3.03236 3.50956 3.44319 3.47301 3.84876 3.51973L3.96321 2.5263ZM2.3534 2.66951C1.83213 2.82628 1.34834 3.0878 0.931659 3.43804L1.5751 4.20354C1.88762 3.94085 2.25045 3.74471 2.64141 3.62714L2.3534 2.66951ZM0.931659 3.43804C0.514975 3.78829 0.174162 4.2199 -0.0699131 4.70645L0.823923 5.15484C1.00698 4.78993 1.26259 4.46622 1.5751 4.20354L0.931659 3.43804ZM-0.0699131 4.70645C-0.313989 5.19299 -0.45619 5.72423 -0.487812 6.26765L0.510499 6.32574C0.534215 5.91818 0.640867 5.51975 0.823923 5.15484L-0.0699131 4.70645ZM-0.487812 6.26765C-0.519434 6.81106 -0.439811 7.35521 -0.253817 7.86678L0.685995 7.52509C0.5465 7.14141 0.486782 6.7333 0.510499 6.32574L-0.487812 6.26765ZM-0.253817 7.86678C-0.0678231 8.37835 0.220627 8.84658 0.593873 9.24279L1.32176 8.5571C1.04183 8.25994 0.825491 7.90877 0.685995 7.52509L-0.253817 7.86678ZM0.593873 9.24279C0.96712 9.63901 1.41731 9.95487 1.91687 10.1711L2.31401 9.25329C1.93934 9.09116 1.6017 8.85426 1.32176 8.5571L0.593873 9.24279ZM1.91687 10.1711C2.41644 10.3872 2.95487 10.4992 3.49921 10.5L3.50076 9.50002C3.09251 9.49938 2.68869 9.41543 2.31401 9.25329L1.91687 10.1711ZM3.49998 10.5H13V9.50001H3.49998V10.5ZM12.9994 10.5C13.8874 10.501 14.7425 10.1645 15.3916 9.5586L14.7093 8.82757C14.2456 9.26036 13.6348 9.50074 13.0006 9.50001L12.9994 10.5ZM15.3916 9.5586C16.0408 8.95269 16.4353 8.12272 16.4954 7.23679L15.4977 7.16914C15.4548 7.80195 15.173 8.39479 14.7093 8.82757L15.3916 9.5586ZM16.4954 7.23679C16.5555 6.35086 16.2766 5.47522 15.7152 4.78724L14.9404 5.41946C15.3414 5.91088 15.5406 6.53634 15.4977 7.16914L16.4954 7.23679ZM15.7152 4.78724C15.1538 4.09926 14.3519 3.65037 13.4719 3.53151L13.3381 4.52251C13.9666 4.60741 14.5394 4.92805 14.9404 5.41946L15.7152 4.78724ZM8.50009 1.50001C9.36105 1.49984 10.1919 1.817 10.8337 2.39086L11.5002 1.64539C10.675 0.907567 9.60683 0.499785 8.49988 0.500014L8.50009 1.50001ZM10.8337 2.39086C11.4755 2.96473 11.8833 3.75502 11.9791 4.61064L12.9729 4.49939C12.8497 3.39931 12.3254 2.38322 11.5002 1.64539L10.8337 2.39086ZM11.979 4.61C12.0062 4.85573 12.1235 5.08266 12.3081 5.24702L12.973 4.50002H12.9729L11.979 4.61ZM12.3081 5.24702C12.4928 5.41138 12.7318 5.5015 12.979 5.50001L12.9729 4.50002H12.973L12.3081 5.24702ZM12.976 5.50001H13V4.50001H12.976V5.50001ZM13 5.50001C13.3978 5.50001 13.7793 5.65805 14.0606 5.93935L14.7678 5.23225C14.2989 4.76341 13.663 4.50001 13 4.50001V5.50001ZM14.0606 5.93935C14.3419 6.22066 14.5 6.60219 14.5 7.00001H15.5C15.5 6.33697 15.2366 5.70109 14.7678 5.23225L14.0606 5.93935ZM14.5 7.00001C14.5 7.39784 14.3419 7.77937 14.0606 8.06067L14.7678 8.76778C15.2366 8.29894 15.5 7.66306 15.5 7.00001H14.5ZM14.0606 8.06067C13.7793 8.34198 13.3978 8.50001 13 8.50001V9.50001C13.663 9.50001 14.2989 9.23662 14.7678 8.76778L14.0606 8.06067ZM13 8.50001H3.49998V9.50001H13V8.50001ZM3.50023 8.50001C3.21709 8.49987 2.93721 8.43962 2.67909 8.32323L2.26803 9.23483C2.6552 9.40942 3.07502 9.4998 3.49974 9.50001L3.50023 8.50001ZM2.67909 8.32323C2.42098 8.20684 2.19052 8.03697 2.00296 7.82486L1.25383 8.48728C1.53517 8.80544 1.88086 9.06025 2.26803 9.23483L2.67909 8.32323ZM2.00296 7.82486C1.81541 7.61275 1.67502 7.36323 1.5911 7.09281L0.636035 7.38921C0.761919 7.79484 0.972495 8.16912 1.25383 8.48728L2.00296 7.82486ZM1.5911 7.09281C1.50718 6.8224 1.48163 6.53724 1.51614 6.25621L0.5236 6.13431C0.471827 6.55585 0.51015 6.98359 0.636035 7.38921L1.5911 7.09281ZM1.51614 6.25621C1.55066 5.97518 1.64445 5.70468 1.79132 5.46261L0.936361 4.94391C0.716063 5.30702 0.575373 5.71277 0.5236 6.13431L1.51614 6.25621ZM1.79132 5.46261C1.93818 5.22054 2.13477 5.01241 2.36809 4.85199L1.80151 4.02798C1.45155 4.2686 1.15666 4.5808 0.936361 4.94391L1.79132 5.46261ZM2.36809 4.85199C2.6014 4.69157 2.86611 4.58252 3.14472 4.53205L2.96646 3.54806C2.54855 3.62377 2.15148 3.78735 1.80151 4.02798L2.36809 4.85199ZM3.14472 4.53205C3.42332 4.48157 3.70947 4.49083 3.98423 4.55921L4.22574 3.58881C3.8136 3.48625 3.38437 3.47235 2.96646 3.54806L3.14472 4.53205ZM3.98398 4.55915C4.22904 4.62027 4.48815 4.5864 4.70926 4.46435L4.22599 3.58888L3.98398 4.55915ZM4.70926 4.46435C4.93037 4.34229 5.09711 4.14109 5.17598 3.90115L4.22599 3.58888L4.70926 4.46435ZM5.17568 3.90206C5.40694 3.20304 5.85264 2.59469 6.44944 2.16347L5.86377 1.35292C5.09656 1.90727 4.52359 2.68934 4.22629 3.58797L5.17568 3.90206ZM6.44944 2.16347C7.04623 1.73225 7.76376 1.5001 8.50004 1.50001L8.49993 0.500014C7.55339 0.500125 6.63098 0.798565 5.86377 1.35292L6.44944 2.16347ZM7.5 11.5L6.97463 10.6491C6.81674 10.7466 6.6891 10.8861 6.60597 11.052L7.5 11.5ZM7.5 11.5L7.49997 10.5C7.31441 10.5 7.13252 10.5517 6.97463 10.6491L7.5 11.5ZM7.49998 11.5H8.49998V10.5H7.49998V11.5ZM8.4996 11.5L8.95574 10.6101C8.81481 10.5379 8.65873 10.5001 8.50036 10.5L8.4996 11.5ZM8.4996 11.5L9.311 10.9155C9.21843 10.787 9.09667 10.6823 8.95574 10.6101L8.4996 11.5ZM8.4996 11.5H8.49961L9.48817 11.3492C9.46429 11.1927 9.40356 11.044 9.311 10.9155L8.4996 11.5ZM8.49961 11.5H8.4996L9.44836 11.816C9.49841 11.6658 9.51205 11.5058 9.48817 11.3492L8.49961 11.5ZM8.49953 11.5002L8.21953 12.3422L9.16844 12.6578L9.44844 11.8158L8.49953 11.5002ZM8.69398 13H9.49998V12H8.69398V13ZM9.49927 13V13L10.0323 12.1539C9.87314 12.0536 9.68887 12.0003 9.5007 12L9.49927 13ZM9.49927 13V13L10.4007 12.5671C10.3192 12.3974 10.1915 12.2543 10.0323 12.1539L9.49927 13ZM9.49927 13H9.49927L10.4929 13.1128C10.5141 12.9259 10.4822 12.7367 10.4007 12.5671L9.49927 13ZM9.49927 13L9.49927 13L10.2807 13.624C10.3981 13.477 10.4717 13.2998 10.4929 13.1128L9.49927 13ZM9.49955 12.9997L7.49955 15.4997L8.28042 16.1244L10.2804 13.6244L9.49955 12.9997ZM7.5005 15.4985L7.71555 16.4751C7.93782 16.4261 8.13675 16.3028 8.27947 16.1255L7.5005 15.4985ZM7.5005 15.4985L7.05698 16.3947C7.26097 16.4957 7.49328 16.524 7.71555 16.4751L7.5005 15.4985ZM7.5005 15.4985L6.59363 15.9199C6.68955 16.1263 6.85299 16.2938 7.05698 16.3947L7.5005 15.4985ZM7.5005 15.4985V15.4985L6.52947 15.2595C6.47509 15.4806 6.49772 15.7135 6.59363 15.9199L7.5005 15.4985ZM7.50003 15.5004L7.84503 14.1214L6.87493 13.8787L6.52993 15.2577L7.50003 15.5004ZM7.35998 13.5H6.49998V14.5H7.35998V13.5ZM6.5 13.5L6.01282 14.3733C6.16175 14.4564 6.32944 14.5 6.49997 14.5L6.5 13.5ZM6.5 13.5H6.5L5.64911 14.0254C5.7387 14.1705 5.8639 14.2902 6.01282 14.3733L6.5 13.5ZM6.5 13.5H6.5L5.50098 13.5443C5.50853 13.7147 5.55952 13.8803 5.64911 14.0254L6.5 13.5ZM6.5 13.5L5.60597 13.052C5.52957 13.2045 5.49343 13.3739 5.50098 13.5443L6.5 13.5ZM6.5002 13.4996L7.5002 11.4996L6.60577 11.0524L5.60577 13.0524L6.5002 13.4996Z" fill="black" mask="url(#path-1-inside-1_2_14)"/>
</g>
<defs>
<clipPath id="clip0_2_14">
<rect width="16" height="16" fill="white"/>
</clipPath>
</defs>
</svg>
