<svg width="16" height="16" viewBox="0 0 16 16" fill="none" xmlns="http://www.w3.org/2000/svg">
<g clip-path="url(#clip0_2_3)">
<path d="M4.17598 11.032C4.29986 11.0787 4.40017 11.1726 4.45491 11.2931C4.50965 11.4137 4.51435 11.551 4.46798 11.675L2.96798 15.675C2.94681 15.7388 2.91298 15.7977 2.86852 15.8482C2.82407 15.8986 2.76989 15.9396 2.70924 15.9686C2.64859 15.9976 2.5827 16.0141 2.51553 16.0171C2.44836 16.02 2.38128 16.0094 2.3183 15.9859C2.25532 15.9623 2.19774 15.9263 2.149 15.88C2.10026 15.8337 2.06136 15.778 2.03463 15.7163C2.0079 15.6546 1.99389 15.5882 1.99343 15.5209C1.99298 15.4537 2.00609 15.3871 2.03198 15.325L3.53198 11.325C3.555 11.2635 3.58992 11.2071 3.63475 11.159C3.67958 11.111 3.73344 11.0722 3.79325 11.045C3.85306 11.0178 3.91765 11.0027 3.98332 11.0004C4.04899 10.9982 4.11446 11.0089 4.17598 11.032V11.032ZM7.17598 11.032C7.29986 11.0787 7.40017 11.1726 7.45491 11.2931C7.50965 11.4137 7.51435 11.551 7.46798 11.675L5.96798 15.675C5.94681 15.7388 5.91298 15.7977 5.86852 15.8482C5.82407 15.8986 5.76989 15.9396 5.70924 15.9686C5.64859 15.9976 5.5827 16.0141 5.51553 16.0171C5.44836 16.02 5.38128 16.0094 5.3183 15.9859C5.25532 15.9623 5.19774 15.9263 5.149 15.88C5.10026 15.8337 5.06136 15.778 5.03463 15.7163C5.0079 15.6546 4.99389 15.5882 4.99343 15.5209C4.99298 15.4537 5.00609 15.3871 5.03198 15.325L6.53198 11.325C6.555 11.2635 6.58992 11.2071 6.63475 11.159C6.67958 11.111 6.73344 11.0722 6.79325 11.045C6.85306 11.0178 6.91765 11.0027 6.98332 11.0004C7.04899 10.9982 7.11446 11.0089 7.17598 11.032V11.032ZM10.176 11.032C10.2999 11.0787 10.4002 11.1726 10.4549 11.2931C10.5097 11.4137 10.5144 11.551 10.468 11.675L8.96798 15.675C8.94681 15.7388 8.91298 15.7977 8.86852 15.8482C8.82407 15.8986 8.76989 15.9396 8.70924 15.9686C8.64859 15.9976 8.5827 16.0141 8.51553 16.0171C8.44836 16.02 8.38128 16.0094 8.3183 15.9859C8.25532 15.9623 8.19774 15.9263 8.149 15.88C8.10026 15.8337 8.06136 15.778 8.03463 15.7163C8.0079 15.6546 7.99389 15.5882 7.99343 15.5209C7.99298 15.4537 8.00609 15.3871 8.03198 15.325L9.53198 11.325C9.555 11.2635 9.58992 11.2071 9.63475 11.159C9.67958 11.111 9.73344 11.0722 9.79325 11.045C9.85306 11.0178 9.91765 11.0027 9.98332 11.0004C10.049 10.9982 10.1145 11.0089 10.176 11.032V11.032ZM13.176 11.032C13.2999 11.0787 13.4002 11.1726 13.4549 11.2931C13.5097 11.4137 13.5144 11.551 13.468 11.675L11.968 15.675C11.9182 15.7944 11.824 15.8898 11.7053 15.9413C11.5866 15.9927 11.4526 15.9961 11.3314 15.9508C11.2103 15.9055 11.1114 15.815 11.0555 15.6983C10.9997 15.5816 10.9912 15.4478 11.032 15.325L12.532 11.325C12.555 11.2635 12.5899 11.2071 12.6347 11.159C12.6796 11.111 12.7334 11.0722 12.7933 11.045C12.8531 11.0178 12.9176 11.0027 12.9833 11.0004C13.049 10.9982 13.1145 11.0089 13.176 11.032V11.032ZM13.405 4.02701C13.1973 2.98018 12.6602 2.02722 11.8722 1.30749C11.0842 0.587762 10.0866 0.139 9.02523 0.0268229C7.9639 -0.0853543 6.89452 0.144936 5.97345 0.684024C5.05237 1.22311 4.32791 2.04272 3.90598 3.02301C3.43282 2.96851 2.95351 3.01115 2.4974 3.14832C2.04129 3.2855 1.61798 3.51432 1.25338 3.82079C0.888782 4.12726 0.590571 4.50492 0.377005 4.93064C0.163439 5.35637 0.0390124 5.82121 0.0113432 6.29669C-0.0163259 6.77218 0.0533446 7.24831 0.216089 7.69594C0.378834 8.14356 0.631228 8.55326 0.957818 8.89995C1.28441 9.24664 1.67832 9.52302 2.11544 9.71217C2.55256 9.90133 3.02369 9.99927 3.49998 10H13C13.7611 10.0009 14.4941 9.71243 15.0505 9.19309C15.6069 8.67374 15.9451 7.96233 15.9965 7.20297C16.048 6.4436 15.809 5.69305 15.3278 5.10335C14.8466 4.51365 14.1592 4.12889 13.405 4.02701V4.02701ZM8.49998 1.00001C9.48394 0.99981 10.4335 1.36228 11.167 2.01813C11.9005 2.67397 12.3665 3.57717 12.476 4.55501C12.4896 4.67787 12.5482 4.79134 12.6405 4.87352C12.7329 4.9557 12.8524 5.00076 12.976 5.00001H13C13.5304 5.00001 14.0391 5.21073 14.4142 5.5858C14.7893 5.96087 15 6.46958 15 7.00001C15 7.53045 14.7893 8.03915 14.4142 8.41423C14.0391 8.7893 13.5304 9.00001 13 9.00001H3.49998C3.14606 8.99984 2.7962 8.92452 2.47356 8.77903C2.15092 8.63354 1.86285 8.42121 1.6284 8.15607C1.39395 7.89093 1.21847 7.57904 1.11357 7.24101C1.00866 6.90299 0.976727 6.54655 1.01987 6.19526C1.06302 5.84397 1.18026 5.50585 1.36384 5.20326C1.54742 4.90067 1.79316 4.64051 2.0848 4.43998C2.37644 4.23946 2.70733 4.10314 3.05559 4.04005C3.40385 3.97696 3.76153 3.98854 4.10498 4.07401C4.22751 4.10458 4.35707 4.08764 4.46762 4.02661C4.57818 3.96558 4.66155 3.86498 4.70098 3.74501C4.96526 2.94619 5.4746 2.25098 6.1566 1.75819C6.8386 1.26541 7.65858 1.00011 8.49998 1.00001V1.00001Z" fill="black"/>
</g>
<defs>
<clipPath id="clip0_2_3">
<rect width="16" height="16" fill="white"/>
</clipPath>
</defs>
</svg>
