<svg width="16" height="16" viewBox="0 0 16 16" fill="none" xmlns="http://www.w3.org/2000/svg">
<g clip-path="url(#clip0_2_6)">
<path d="M11.7386 13.0737L12.2368 11.5791L11.7386 13.0737ZM11.7386 13.0737C11.7154 13.1325 11.6707 13.1805 11.6135 13.2077C11.5552 13.2355 11.4883 13.2396 11.4269 13.2192C11.3656 13.1987 11.3145 13.1553 11.2845 13.098C11.2551 13.0419 11.2482 12.9768 11.2649 12.9158L11.7631 11.4212L11.7386 13.0737ZM12.0788 11.2632C12.1416 11.2842 12.1935 11.3292 12.2231 11.3884C12.2527 11.4476 12.2576 11.5161 12.2368 11.579L12.0788 11.2632ZM12.0788 11.2632C12.016 11.2424 11.9476 11.2473 11.8884 11.2769C11.8292 11.3065 11.7842 11.3583 11.7632 11.4211L12.0788 11.2632ZM13.7386 14.5737L14.2368 13.0791L13.7386 14.5737ZM13.7386 14.5737C13.7154 14.6325 13.6707 14.6805 13.6135 14.7077C13.5552 14.7355 13.4883 14.7396 13.4269 14.7192C13.3656 14.6987 13.3145 14.6553 13.2845 14.598C13.2551 14.5419 13.2482 14.4768 13.2649 14.4158L13.7631 12.9212L13.7386 14.5737ZM14.0788 12.7632C14.1416 12.7842 14.1935 12.8292 14.2231 12.8884C14.2527 12.9476 14.2576 13.0161 14.2368 13.079L14.0788 12.7632ZM14.0788 12.7632C14.016 12.7424 13.9476 12.7473 13.8884 12.7769C13.8292 12.8065 13.7842 12.8583 13.7632 12.9211L14.0788 12.7632ZM2.38841 11.2769C2.44757 11.2473 2.51604 11.2424 2.57883 11.2632C2.64162 11.2842 2.69352 11.3292 2.72314 11.3884C2.75273 11.4476 2.75765 11.5161 2.73681 11.579C2.73681 11.579 2.73681 11.579 2.7368 11.579C2.73679 11.579 2.73677 11.5791 2.73676 11.5791L2.23681 13.079L2.23664 13.0789L2.23398 13.088C2.22457 13.1203 2.20873 13.1504 2.18743 13.1764C2.16613 13.2024 2.1398 13.2239 2.11001 13.2395C2.08022 13.2551 2.04759 13.2645 2.01407 13.2672C1.98055 13.2699 1.94683 13.2658 1.91493 13.2552C1.88303 13.2446 1.85359 13.2276 1.8284 13.2053C1.8032 13.183 1.78276 13.1559 1.7683 13.1256C1.75383 13.0952 1.74564 13.0622 1.74421 13.0286C1.74278 12.995 1.74815 12.9615 1.75998 12.93L1.76015 12.9301L1.76315 12.9211L2.2631 11.4212C2.26311 11.4212 2.26312 11.4212 2.26312 11.4212C2.28413 11.3584 2.32919 11.3065 2.38841 11.2769ZM4.38841 12.7769C4.44756 12.7473 4.51601 12.7424 4.57878 12.7631C4.6416 12.7841 4.69351 12.8292 4.72314 12.8884C4.75276 12.9477 4.75766 13.0163 4.73676 13.0791L4.23681 14.579L4.23664 14.5789L4.23398 14.588C4.22457 14.6203 4.20873 14.6504 4.18743 14.6764C4.16613 14.7024 4.1398 14.7239 4.11001 14.7395C4.08022 14.7551 4.04759 14.7645 4.01407 14.7672C3.98055 14.7699 3.94683 14.7658 3.91493 14.7552C3.88302 14.7446 3.85359 14.7276 3.8284 14.7053C3.8032 14.683 3.78276 14.6559 3.7683 14.6256C3.75383 14.5952 3.74564 14.5622 3.74421 14.5286C3.74278 14.495 3.74815 14.4615 3.75998 14.43L3.76015 14.4301L3.76315 14.4211L4.2631 12.9212C4.28409 12.8584 4.32916 12.8065 4.38841 12.7769ZM9.74768 13.0282C9.74238 13.0749 9.72404 13.1191 9.69477 13.1558L9.69463 13.156L7.69524 15.6552C7.69517 15.6553 7.69509 15.6554 7.69501 15.6555C7.65935 15.6997 7.60971 15.7304 7.55426 15.7426C7.4987 15.7549 7.44062 15.7478 7.38962 15.7225C7.33862 15.6973 7.29776 15.6554 7.27378 15.6038C7.24986 15.5524 7.24417 15.4943 7.25765 15.4391C7.25768 15.439 7.25771 15.4389 7.25774 15.4387L7.60251 14.0607L7.68023 13.75H7.35998H6.49998C6.45736 13.75 6.41544 13.7391 6.37821 13.7183C6.34098 13.6976 6.30967 13.6676 6.28728 13.6314C6.26488 13.5951 6.25213 13.5537 6.25025 13.5111C6.24836 13.4685 6.25739 13.4261 6.27649 13.388L6.27659 13.3878L7.27649 11.388C7.29728 11.3465 7.32919 11.3117 7.36866 11.2873C7.40813 11.2629 7.4536 11.25 7.49999 11.25H8.49979C8.53939 11.25 8.57841 11.2595 8.61364 11.2775C8.64887 11.2956 8.67931 11.3218 8.70245 11.3539C8.72559 11.386 8.74078 11.4232 8.74675 11.4623C8.75272 11.5015 8.74931 11.5415 8.73679 11.579L8.73676 11.5791L8.45676 12.4211L8.34739 12.75H8.69398H9.49963C9.54667 12.7501 9.59274 12.7634 9.63254 12.7885C9.67234 12.8136 9.70426 12.8494 9.72463 12.8918C9.74499 12.9342 9.75298 12.9815 9.74768 13.0282ZM3.87737 3.27137L4.0621 3.29265L4.13562 3.12185C4.53645 2.19056 5.2247 1.41192 6.09973 0.899786C6.97476 0.387647 7.99068 0.168869 8.99895 0.275438C10.0072 0.382007 10.955 0.808335 11.7036 1.49209C12.4522 2.17584 12.9625 3.08115 13.1598 4.07566L13.405 4.02701L13.3715 4.27476C14.0629 4.36815 14.693 4.72085 15.1341 5.26141C15.5752 5.80196 15.7943 6.48997 15.7471 7.18605C15.6999 7.88214 15.3899 8.53426 14.8799 9.01033C14.3699 9.4864 13.698 9.75081 13.0003 9.75001H13H3.50037C3.0581 9.74933 2.62063 9.65838 2.21473 9.48273C1.80883 9.30709 1.44305 9.05045 1.13979 8.72852C0.836528 8.4066 0.602162 8.02617 0.451042 7.61051C0.299922 7.19486 0.235228 6.75274 0.260921 6.31122C0.286614 5.86969 0.402153 5.43806 0.600464 5.04274C0.798775 4.64742 1.07569 4.29674 1.41424 4.01216C1.7528 3.72759 2.14587 3.51511 2.5694 3.38773C2.99293 3.26035 3.43801 3.22076 3.87737 3.27137Z" stroke="black" stroke-width="0.5"/>
</g>
<defs>
<clipPath id="clip0_2_6">
<rect width="16" height="16" fill="white"/>
</clipPath>
</defs>
</svg>
