<svg width="17" height="25" viewBox="0 0 17 25" fill="none" xmlns="http://www.w3.org/2000/svg">
<path d="M14.3936 5.01063C14.186 3.96379 13.6489 3.01084 12.8608 2.29111C12.0728 1.57137 11.0752 1.12261 10.0139 1.01043C8.95255 0.898258 7.88317 1.12855 6.96209 1.66764C6.04102 2.20672 5.31656 3.02633 4.89463 4.00663C4.42147 3.95212 3.94216 3.99476 3.48605 4.13193C3.02994 4.26911 2.60663 4.49794 2.24203 4.8044C1.87743 5.11087 1.57922 5.48853 1.36565 5.91425C1.15209 6.33998 1.02766 6.80482 0.999991 7.28031C0.972322 7.75579 1.04199 8.23192 1.20474 8.67955C1.36748 9.12717 1.61988 9.53687 1.94647 9.88356C2.27306 10.2302 2.66697 10.5066 3.10409 10.6958C3.54121 10.8849 4.01234 10.9829 4.48863 10.9836H13.9886C14.7497 10.9845 15.4827 10.696 16.0391 10.1767C16.5955 9.65735 16.9337 8.94594 16.9852 8.18658C17.0367 7.42721 16.7976 6.67666 16.3164 6.08696C15.8352 5.49726 15.1479 5.11251 14.3936 5.01063ZM9.48863 1.98363C10.4726 1.98342 11.4221 2.3459 12.1556 3.00174C12.8891 3.65758 13.3552 4.56078 13.4646 5.53863C13.4782 5.66149 13.5368 5.77495 13.6292 5.85713C13.7215 5.93931 13.841 5.98438 13.9646 5.98363H13.9886C14.5191 5.98363 15.0278 6.19434 15.4028 6.56941C15.7779 6.94449 15.9886 7.45319 15.9886 7.98363C15.9886 8.51406 15.7779 9.02277 15.4028 9.39784C15.0278 9.77291 14.5191 9.98363 13.9886 9.98363H4.48863C4.13471 9.98345 3.78485 9.90813 3.46221 9.76264C3.13957 9.61715 2.85149 9.40482 2.61705 9.13968C2.3826 8.87454 2.20712 8.56265 2.10221 8.22463C1.99731 7.8866 1.96537 7.53016 2.00852 7.17887C2.05166 6.82759 2.1689 6.48946 2.35249 6.18687C2.53607 5.88428 2.78181 5.62412 3.07345 5.42359C3.36509 5.22307 3.69598 5.08675 4.04424 5.02367C4.3925 4.96058 4.75018 4.97215 5.09363 5.05763C5.21616 5.08819 5.34571 5.07125 5.45627 5.01022C5.56683 4.9492 5.6502 4.84859 5.68963 4.72863C5.95391 3.9298 6.46325 3.23459 7.14525 2.74181C7.82725 2.24902 8.64722 1.98372 9.48863 1.98363Z" fill="black"/>
<rect x="5.77258" y="16" width="2" height="3" rx="1" transform="rotate(36.2178 5.77258 16)" fill="black"/>
<rect x="2.77258" y="12" width="2" height="3" rx="1" transform="rotate(36.2178 2.77258 12)" fill="black"/>
<rect x="8.77258" y="11" width="2" height="3" rx="1" transform="rotate(36.2178 8.77258 11)" fill="black"/>
<rect x="13.7726" y="13" width="2" height="3" rx="1" transform="rotate(36.2178 13.7726 13)" fill="black"/>
<rect x="10.7726" y="18" width="2" height="3" rx="1" transform="rotate(36.2178 10.7726 18)" fill="black"/>
<rect x="1.77258" y="19" width="2" height="3" rx="1" transform="rotate(36.2178 1.77258 19)" fill="black"/>
<rect x="5.77258" y="21" width="2" height="3" rx="1" transform="rotate(36.2178 5.77258 21)" fill="black"/>
</svg>
