<svg width="16" height="16" viewBox="0 0 16 16" fill="none" xmlns="http://www.w3.org/2000/svg">
<g clip-path="url(#clip0_2_36)">
<path d="M7.00001 8C7.4643 7.99994 7.92396 8.09226 8.35223 8.27158C8.78049 8.4509 9.1688 8.71364 9.49453 9.04449C9.82027 9.37535 10.0769 9.7677 10.2495 10.1987C10.4222 10.6297 10.5073 11.0908 10.5 11.555C10.4988 11.632 10.5154 11.7082 10.5484 11.7777C10.5815 11.8472 10.6302 11.9082 10.6907 11.9558C10.7512 12.0034 10.8218 12.0364 10.8972 12.0522C10.9725 12.068 11.0505 12.0663 11.125 12.047C11.3467 11.9904 11.5783 11.9851 11.8024 12.0316C12.0264 12.0781 12.2368 12.1751 12.4177 12.3152C12.5985 12.4553 12.745 12.6349 12.8459 12.8402C12.9468 13.0456 12.9995 13.2712 13 13.5C13 13.8978 12.842 14.2794 12.5607 14.5607C12.2794 14.842 11.8978 15 11.5 15H3.00001C2.73411 14.9985 2.47118 14.944 2.2266 14.8397C1.98202 14.7353 1.7607 14.5833 1.57558 14.3924C1.39046 14.2015 1.24527 13.9756 1.14849 13.728C1.05171 13.4803 1.00528 13.2158 1.01193 12.95C1.01858 12.6842 1.07817 12.4224 1.18721 12.1799C1.29625 11.9373 1.45256 11.719 1.64699 11.5376C1.84142 11.3562 2.07006 11.2154 2.31955 11.1235C2.56904 11.0315 2.83437 10.9902 3.10001 11.002C3.21507 11.0077 3.32856 10.9735 3.4213 10.9052C3.51405 10.8368 3.58035 10.7386 3.60901 10.627C3.80302 9.87515 4.2414 9.20909 4.85523 8.73356C5.46906 8.25803 6.22353 7.99998 7.00001 8ZM11.473 11C11.3605 9.98614 10.9069 9.04058 10.1865 8.31836C9.46607 7.59614 8.52167 7.14011 7.5081 7.02504C6.49452 6.90997 5.47193 7.14268 4.60796 7.68502C3.744 8.22737 3.08994 9.04716 2.75301 10.01C1.98095 10.0732 1.26326 10.4326 0.750174 11.0129C0.237086 11.5933 -0.0316242 12.3496 0.00029138 13.1236C0.0322069 13.8976 0.362274 14.6292 0.9214 15.1654C1.48053 15.7015 2.22537 16.0006 3.00001 16H11.5C12.1631 16 12.7989 15.7366 13.2678 15.2678C13.7366 14.7989 14 14.163 14 13.5C14 12.837 13.7366 12.2011 13.2678 11.7322C12.7989 11.2634 12.1631 11 11.5 11H11.473V11Z" fill="black"/>
<path d="M11.286 1.77799C11.3435 1.69198 11.3729 1.59026 11.3701 1.48685C11.3673 1.38344 11.3326 1.28343 11.2706 1.20061C11.2086 1.11778 11.1225 1.05622 11.024 1.02441C10.9256 0.992601 10.8197 0.992103 10.721 1.02299C9.68559 1.34724 8.79833 2.02743 8.21631 2.9431C7.6343 3.85877 7.39507 4.95086 7.541 6.02599C7.89868 6.06076 8.25206 6.13077 8.596 6.23499C8.44158 5.57689 8.47541 4.88863 8.69362 4.24884C8.91183 3.60906 9.30563 3.04357 9.83 2.61699C9.6568 3.28481 9.63628 3.98307 9.76995 4.65991C9.90363 5.33675 10.1881 5.97478 10.6021 6.52662C11.0162 7.07846 11.5493 7.52992 12.1618 7.84749C12.7742 8.16506 13.4504 8.34057 14.14 8.36099C13.4847 8.81647 12.6958 9.03964 11.899 8.99499C12.061 9.31199 12.194 9.64699 12.293 9.99499C13.015 9.96424 13.7195 9.76346 14.3493 9.40897C14.979 9.05448 15.5162 8.5563 15.917 7.95499C15.9745 7.86898 16.0039 7.76726 16.0011 7.66385C15.9983 7.56044 15.9636 7.46043 15.9016 7.37761C15.8396 7.29478 15.7535 7.23322 15.655 7.20141C15.5566 7.1696 15.4507 7.1691 15.352 7.19999C14.6427 7.42262 13.8818 7.41976 13.1742 7.1918C12.4666 6.96384 11.8471 6.522 11.4012 5.92718C10.9552 5.33237 10.7048 4.61388 10.6843 3.87074C10.6639 3.12761 10.8744 2.39643 11.287 1.77799H11.286Z" fill="black"/>
</g>
<defs>
<clipPath id="clip0_2_36">
<rect width="16" height="16" fill="white"/>
</clipPath>
</defs>
</svg>
