<svg width="18" height="18" viewBox="0 0 18 18" fill="none" xmlns="http://www.w3.org/2000/svg">
<path d="M9 18C13.9706 18 18 13.9706 18 9C18 4.02944 13.9706 0 9 0C4.02944 0 0 4.02944 0 9C0 13.9706 4.02944 18 9 18Z" fill="#E9E9E9"/>
<path d="M11.6758 14.6192C6.46917 14.1964 9.03023 13.9065 1.52817 12.3602C3.59395 13.9549 6.95236 17.9051 11.6758 14.6192Z" fill="url(#paint0_linear_3_2)"/>
<path d="M17.0395 8.3011C12.0987 7.32256 7.25434 3.95213 2.16842 5.03937C2.096 5.06356 2.01142 5.07559 2.04763 5.1118C5.29733 5.67964 12.1107 10.5481 17.0396 8.30117L17.0395 8.3011Z" fill="url(#paint1_linear_3_2)"/>
<path d="M15.6866 12.9158C13.0892 12.3602 7.39933 8.02329 1.0087 9.76282C6.60206 11.0434 11.6396 14.1602 15.6866 12.9158Z" fill="url(#paint2_linear_3_2)"/>
<path d="M16.5443 5.75212C13.6571 3.62594 10.0329 -0.215652 6.72278 3.32395C10.7578 3.81923 11.2892 4.48368 16.5443 5.75212Z" fill="#A4A4A4"/>
<path d="M1.46777 12.336C7.44764 12.3481 10.8664 7.78163 17.0396 8.3011C12.1107 10.826 6.08252 15.5978 1.46777 12.336Z" fill="#121212"/>
<path d="M16.5322 5.75214C10.504 5.26888 7.36305 10.1374 0.960388 9.78702C3.38856 8.68768 10.5524 2.2247 16.5322 5.75214Z" fill="#171717"/>
<path d="M12.1108 2.57493C8.65569 2.45413 5.14027 5.52257 2.02353 5.12397C4.27051 3.75885 8.43821 0.315855 12.1108 2.57486V2.57493Z" fill="#212121"/>
<path d="M5.91342 15.4649C9.50133 15.4528 12.5094 12.2998 15.7591 12.9159C13.1013 14.4381 9.86379 17.579 5.91342 15.4649Z" fill="#010101"/>
<defs>
<linearGradient id="paint0_linear_3_2" x1="27.2559" y1="21.306" x2="21.4517" y2="4.99148" gradientUnits="userSpaceOnUse">
<stop stop-color="white"/>
<stop offset="1" stop-color="#C2C1C1"/>
</linearGradient>
<linearGradient id="paint1_linear_3_2" x1="33.5098" y1="13.8994" x2="29.4327" y2="-2.25521" gradientUnits="userSpaceOnUse">
<stop stop-color="white"/>
<stop offset="1" stop-color="#A2A2A1"/>
</linearGradient>
<linearGradient id="paint2_linear_3_2" x1="40.9273" y1="22.2261" x2="36.8455" y2="2.00097" gradientUnits="userSpaceOnUse">
<stop stop-color="white"/>
<stop offset="1" stop-color="#B3B3B3"/>
</linearGradient>
</defs>
</svg>
