<svg width="13" height="13" viewBox="0 0 13 13" fill="none" xmlns="http://www.w3.org/2000/svg">
<path d="M11.1944 9.81861C11.1622 9.75196 11.1103 9.69681 11.0457 9.66064C10.9811 9.62446 10.907 9.60902 10.8333 9.61639H10.5264C9.62782 9.5919 8.76413 9.26336 8.07645 8.68446C7.38878 8.10556 6.91778 7.31053 6.74045 6.42929C6.56311 5.54805 6.68991 4.63272 7.10013 3.83288C7.51036 3.03304 8.17974 2.39599 8.99889 2.02584C9.06892 1.99645 9.12789 1.94574 9.16744 1.88091C9.20698 1.81608 9.22509 1.74043 9.21917 1.66472C9.21668 1.59194 9.19224 1.52161 9.14907 1.46297C9.10589 1.40432 9.04599 1.3601 8.97723 1.33611C8.39814 1.1275 7.78719 1.0212 7.17167 1.02195C5.72359 1.02195 4.33482 1.59719 3.31087 2.62114C2.28692 3.64509 1.71167 5.03386 1.71167 6.48195C1.71167 7.93003 2.28692 9.3188 3.31087 10.3427C4.33482 11.3667 5.72359 11.9419 7.17167 11.9419C7.91845 11.9464 8.65785 11.7942 9.34209 11.495C10.0263 11.1958 10.6402 10.7563 11.1439 10.205C11.1884 10.1522 11.2168 10.0877 11.2258 10.0192C11.2347 9.95073 11.2239 9.88111 11.1944 9.81861V9.81861ZM7.1825 11.2378C5.92597 11.2378 4.72089 10.7386 3.83239 9.85012C2.94388 8.96161 2.44473 7.75654 2.44473 6.5C2.44473 5.24347 2.94388 4.03839 3.83239 3.14989C4.72089 2.26138 5.92597 1.76222 7.1825 1.76222C7.42445 1.76096 7.66606 1.78029 7.90473 1.82C7.1312 2.36195 6.53913 3.12463 6.20588 4.00838C5.87264 4.89213 5.81372 5.85585 6.03682 6.77361C6.25993 7.69137 6.75467 8.5205 7.45642 9.15265C8.15817 9.7848 9.03428 10.1906 9.97028 10.3169C9.16641 10.9199 8.18735 11.2433 7.1825 11.2378V11.2378Z" fill="black"/>
</svg>
