<svg width="60" height="79" viewBox="0 0 60 79" fill="none" xmlns="http://www.w3.org/2000/svg">
<path d="M8.00001 21C7.8674 21 7.74022 20.9473 7.64646 20.8536C7.55269 20.7598 7.50001 20.6326 7.50001 20.5V19.207L6.85401 19.854C6.76012 19.9478 6.63284 20.0004 6.50015 20.0003C6.36747 20.0002 6.24026 19.9474 6.14651 19.8535C6.05275 19.7596 6.00014 19.6323 6.00023 19.4996C6.00032 19.367 6.05312 19.2398 6.14701 19.146L7.50001 17.793V13.866L4.10001 15.829L3.60401 17.679C3.56953 17.8071 3.48558 17.9163 3.37062 17.9825C3.25566 18.0487 3.11911 18.0665 2.99101 18.032C2.86291 17.9975 2.75375 17.9136 2.68755 17.7986C2.62135 17.6836 2.60353 17.5471 2.63801 17.419L2.87501 16.537L1.75501 17.183C1.64023 17.2483 1.5043 17.2655 1.37688 17.2309C1.24946 17.1963 1.14089 17.1127 1.07487 16.9983C1.00885 16.884 0.990742 16.7482 1.02449 16.6205C1.05824 16.4929 1.14111 16.3838 1.25501 16.317L2.37501 15.671L1.49101 15.434C1.42758 15.4169 1.36814 15.3875 1.31607 15.3475C1.264 15.3074 1.22033 15.2575 1.18755 15.2006C1.15477 15.1437 1.13353 15.0809 1.12503 15.0157C1.11653 14.9506 1.12094 14.8844 1.13801 14.821C1.15508 14.7576 1.18448 14.6981 1.22452 14.6461C1.26457 14.594 1.31448 14.5503 1.3714 14.5175C1.42832 14.4848 1.49114 14.4635 1.55628 14.455C1.62141 14.4465 1.68758 14.4509 1.75101 14.468L3.59901 14.963L7.00001 13L3.60001 11.037L1.75001 11.532C1.62274 11.5637 1.48811 11.5442 1.37513 11.4775C1.26215 11.4109 1.17987 11.3026 1.14602 11.1759C1.11218 11.0491 1.12948 10.9142 1.1942 10.8001C1.25892 10.686 1.36588 10.602 1.49201 10.566L2.37501 10.329L1.25501 9.683C1.19769 9.65041 1.14738 9.6068 1.10697 9.55469C1.06657 9.50257 1.03688 9.44298 1.0196 9.37935C1.00233 9.31571 0.997808 9.24928 1.00631 9.18389C1.01481 9.1185 1.03616 9.05544 1.06913 8.99834C1.1021 8.94123 1.14604 8.89121 1.19842 8.85116C1.2508 8.8111 1.31059 8.7818 1.37434 8.76495C1.43809 8.7481 1.50454 8.74402 1.56987 8.75295C1.6352 8.76188 1.69812 8.78365 1.75501 8.817L2.87501 9.463L2.63801 8.58C2.61981 8.51618 2.61451 8.44937 2.6224 8.38348C2.63028 8.31758 2.65121 8.25392 2.68396 8.1962C2.71671 8.13847 2.76062 8.08785 2.81313 8.04727C2.86565 8.00669 2.92571 7.97697 2.98983 7.95985C3.05395 7.94272 3.12083 7.93854 3.18659 7.94753C3.25234 7.95652 3.31565 7.97851 3.37281 8.01222C3.42998 8.04593 3.47986 8.09068 3.51956 8.14386C3.55925 8.19705 3.58796 8.2576 3.60401 8.322L4.09901 10.171L7.50001 12.134V8.207L6.14701 6.854C6.10052 6.80758 6.06363 6.75245 6.03845 6.69177C6.01326 6.6311 6.00028 6.56605 6.00023 6.50035C6.00018 6.43466 6.01308 6.36959 6.03818 6.30888C6.06327 6.24816 6.10009 6.19299 6.14651 6.1465C6.19293 6.10001 6.24806 6.06312 6.30873 6.03794C6.36941 6.01275 6.43446 5.99977 6.50015 5.99972C6.56585 5.99968 6.63092 6.01257 6.69163 6.03767C6.75234 6.06277 6.80752 6.09958 6.85401 6.146L7.50001 6.793V5.5C7.50001 5.36739 7.55269 5.24021 7.64646 5.14645C7.74022 5.05268 7.8674 5 8.00001 5C8.13262 5 8.25979 5.05268 8.35356 5.14645C8.44733 5.24021 8.50001 5.36739 8.50001 5.5V6.793L9.14701 6.146C9.2409 6.05225 9.36818 5.99963 9.50086 5.99972C9.63354 5.99982 9.76075 6.05261 9.85451 6.1465C9.94826 6.24039 10.0009 6.36767 10.0008 6.50035C10.0007 6.63304 9.9479 6.76025 9.85401 6.854L8.50001 8.207V12.134L11.9 10.171L12.396 8.321C12.4305 8.1929 12.5144 8.08374 12.6294 8.01754C12.7444 7.95134 12.8809 7.93352 13.009 7.968C13.1371 8.00248 13.2463 8.08643 13.3125 8.20139C13.3787 8.31635 13.3965 8.4529 13.362 8.581L13.126 9.463L14.246 8.817C14.3608 8.75174 14.4967 8.73453 14.6241 8.76913C14.7516 8.80372 14.8601 8.88731 14.9261 9.00165C14.9922 9.116 15.0103 9.25181 14.9765 9.37946C14.9428 9.50711 14.8599 9.61622 14.746 9.683L13.626 10.329L14.509 10.566C14.6371 10.6005 14.7463 10.6844 14.8125 10.7994C14.8787 10.9144 14.8965 11.0509 14.862 11.179C14.8275 11.3071 14.7436 11.4163 14.6286 11.4825C14.5137 11.5487 14.3771 11.5665 14.249 11.532L12.401 11.037L9.00001 13L12.4 14.963L14.249 14.468C14.3771 14.4337 14.5136 14.4516 14.6285 14.5179C14.7433 14.5842 14.8272 14.6934 14.8615 14.8215C14.8959 14.9496 14.8779 15.0861 14.8116 15.201C14.7453 15.3158 14.6361 15.3997 14.508 15.434L13.625 15.671L14.745 16.317C14.8589 16.3838 14.9418 16.4929 14.9755 16.6205C15.0093 16.7482 14.9912 16.884 14.9251 16.9983C14.8591 17.1127 14.7506 17.1963 14.6231 17.2309C14.4957 17.2655 14.3598 17.2483 14.245 17.183L13.125 16.537L13.361 17.42C13.3792 17.4838 13.3845 17.5506 13.3766 17.6165C13.3687 17.6824 13.3478 17.7461 13.3151 17.8038C13.2823 17.8615 13.2384 17.9122 13.1859 17.9527C13.1334 17.9933 13.0733 18.023 13.0092 18.0402C12.9451 18.0573 12.8782 18.0615 12.8124 18.0525C12.7467 18.0435 12.6834 18.0215 12.6262 17.9878C12.569 17.9541 12.5192 17.9093 12.4795 17.8561C12.4398 17.803 12.4111 17.7424 12.395 17.678L11.9 15.829L8.50001 13.866V17.793L9.85301 19.146C9.94689 19.2398 9.99969 19.367 9.99979 19.4996C9.99988 19.6323 9.94726 19.7596 9.85351 19.8535C9.75975 19.9474 9.63254 20.0002 9.49986 20.0003C9.36718 20.0004 9.2399 19.9478 9.14601 19.854L8.49901 19.207V20.5C8.49901 20.6326 8.44633 20.7598 8.35256 20.8536C8.25879 20.9473 8.13162 21 7.99901 21H8.00001Z" fill="black"/>
<path d="M28 32C27.8674 32 27.7402 31.9473 27.6465 31.8536C27.5527 31.7598 27.5 31.6326 27.5 31.5V30.207L26.854 30.854C26.7601 30.9478 26.6328 31.0004 26.5002 31.0003C26.3675 31.0002 26.2403 30.9474 26.1465 30.8535C26.0528 30.7596 26.0001 30.6323 26.0002 30.4996C26.0003 30.367 26.0531 30.2398 26.147 30.146L27.5 28.793V24.866L24.1 26.829L23.604 28.679C23.5695 28.8071 23.4856 28.9163 23.3706 28.9825C23.2557 29.0487 23.1191 29.0665 22.991 29.032C22.8629 28.9975 22.7538 28.9136 22.6876 28.7986C22.6214 28.6836 22.6035 28.5471 22.638 28.419L22.875 27.537L21.755 28.183C21.6402 28.2483 21.5043 28.2655 21.3769 28.2309C21.2495 28.1963 21.1409 28.1127 21.0749 27.9983C21.0089 27.884 20.9907 27.7482 21.0245 27.6205C21.0582 27.4929 21.1411 27.3838 21.255 27.317L22.375 26.671L21.491 26.434C21.4276 26.4169 21.3681 26.3875 21.3161 26.3475C21.264 26.3074 21.2203 26.2575 21.1876 26.2006C21.1548 26.1437 21.1335 26.0809 21.125 26.0157C21.1165 25.9506 21.1209 25.8844 21.138 25.821C21.1551 25.7576 21.1845 25.6981 21.2245 25.6461C21.2646 25.594 21.3145 25.5503 21.3714 25.5175C21.4283 25.4848 21.4911 25.4635 21.5563 25.455C21.6214 25.4465 21.6876 25.4509 21.751 25.468L23.599 25.963L27 24L23.6 22.037L21.75 22.532C21.6227 22.5637 21.4881 22.5442 21.3751 22.4775C21.2621 22.4109 21.1799 22.3026 21.146 22.1759C21.1122 22.0491 21.1295 21.9142 21.1942 21.8001C21.2589 21.686 21.3659 21.602 21.492 21.566L22.375 21.329L21.255 20.683C21.1977 20.6504 21.1474 20.6068 21.107 20.5547C21.0666 20.5026 21.0369 20.443 21.0196 20.3793C21.0023 20.3157 20.9978 20.2493 21.0063 20.1839C21.0148 20.1185 21.0362 20.0554 21.0691 19.9983C21.1021 19.9412 21.146 19.8912 21.1984 19.8512C21.2508 19.8111 21.3106 19.7818 21.3743 19.765C21.4381 19.7481 21.5045 19.744 21.5699 19.753C21.6352 19.7619 21.6981 19.7837 21.755 19.817L22.875 20.463L22.638 19.58C22.6198 19.5162 22.6145 19.4494 22.6224 19.3835C22.6303 19.3176 22.6512 19.2539 22.684 19.1962C22.7167 19.1385 22.7606 19.0878 22.8131 19.0473C22.8656 19.0067 22.9257 18.977 22.9898 18.9598C23.0539 18.9427 23.1208 18.9385 23.1866 18.9475C23.2523 18.9565 23.3156 18.9785 23.3728 19.0122C23.43 19.0459 23.4799 19.0907 23.5196 19.1439C23.5593 19.197 23.588 19.2576 23.604 19.322L24.099 21.171L27.5 23.134V19.207L26.147 17.854C26.1005 17.8076 26.0636 17.7525 26.0384 17.6918C26.0133 17.6311 26.0003 17.5661 26.0002 17.5004C26.0002 17.4347 26.0131 17.3696 26.0382 17.3089C26.0633 17.2482 26.1001 17.193 26.1465 17.1465C26.1929 17.1 26.2481 17.0631 26.3087 17.0379C26.3694 17.0128 26.4345 16.9998 26.5002 16.9997C26.5659 16.9997 26.6309 17.0126 26.6916 17.0377C26.7523 17.0628 26.8075 17.0996 26.854 17.146L27.5 17.793V16.5C27.5 16.3674 27.5527 16.2402 27.6465 16.1464C27.7402 16.0527 27.8674 16 28 16C28.1326 16 28.2598 16.0527 28.3536 16.1464C28.4473 16.2402 28.5 16.3674 28.5 16.5V17.793L29.147 17.146C29.2409 17.0522 29.3682 16.9996 29.5009 16.9997C29.6335 16.9998 29.7608 17.0526 29.8545 17.1465C29.9483 17.2404 30.0009 17.3677 30.0008 17.5004C30.0007 17.633 29.9479 17.7602 29.854 17.854L28.5 19.207V23.134L31.9 21.171L32.396 19.321C32.4305 19.1929 32.5144 19.0837 32.6294 19.0175C32.7444 18.9513 32.8809 18.9335 33.009 18.968C33.1371 19.0025 33.2463 19.0864 33.3125 19.2014C33.3787 19.3164 33.3965 19.4529 33.362 19.581L33.126 20.463L34.246 19.817C34.3608 19.7517 34.4967 19.7345 34.6241 19.7691C34.7516 19.8037 34.8601 19.8873 34.9261 20.0017C34.9922 20.116 35.0103 20.2518 34.9765 20.3795C34.9428 20.5071 34.8599 20.6162 34.746 20.683L33.626 21.329L34.509 21.566C34.6371 21.6005 34.7463 21.6844 34.8125 21.7994C34.8787 21.9144 34.8965 22.0509 34.862 22.179C34.8275 22.3071 34.7436 22.4163 34.6286 22.4825C34.5137 22.5487 34.3771 22.5665 34.249 22.532L32.401 22.037L29 24L32.4 25.963L34.249 25.468C34.3771 25.4337 34.5136 25.4516 34.6285 25.5179C34.7433 25.5842 34.8272 25.6934 34.8615 25.8215C34.8959 25.9496 34.8779 26.0861 34.8116 26.201C34.7453 26.3158 34.6361 26.3997 34.508 26.434L33.625 26.671L34.745 27.317C34.8589 27.3838 34.9418 27.4929 34.9755 27.6205C35.0093 27.7482 34.9912 27.884 34.9251 27.9983C34.8591 28.1127 34.7506 28.1963 34.6231 28.2309C34.4957 28.2655 34.3598 28.2483 34.245 28.183L33.125 27.537L33.361 28.42C33.3792 28.4838 33.3845 28.5506 33.3766 28.6165C33.3687 28.6824 33.3478 28.7461 33.3151 28.8038C33.2823 28.8615 33.2384 28.9122 33.1859 28.9527C33.1334 28.9933 33.0733 29.023 33.0092 29.0402C32.9451 29.0573 32.8782 29.0615 32.8124 29.0525C32.7467 29.0435 32.6834 29.0215 32.6262 28.9878C32.569 28.9541 32.5192 28.9093 32.4795 28.8561C32.4398 28.803 32.4111 28.7424 32.395 28.678L31.9 26.829L28.5 24.866V28.793L29.853 30.146C29.9469 30.2398 29.9997 30.367 29.9998 30.4996C29.9999 30.6323 29.9473 30.7596 29.8535 30.8535C29.7598 30.9474 29.6325 31.0002 29.4999 31.0003C29.3672 31.0004 29.2399 30.9478 29.146 30.854L28.499 30.207V31.5C28.499 31.6326 28.4463 31.7598 28.3526 31.8536C28.2588 31.9473 28.1316 32 27.999 32H28Z" fill="black"/>
<path d="M9.00001 43C8.8674 43 8.74022 42.9473 8.64646 42.8536C8.55269 42.7598 8.50001 42.6326 8.50001 42.5V41.207L7.85401 41.854C7.76012 41.9478 7.63284 42.0004 7.50015 42.0003C7.36747 42.0002 7.24026 41.9474 7.14651 41.8535C7.05275 41.7596 7.00014 41.6323 7.00023 41.4996C7.00032 41.367 7.05312 41.2398 7.14701 41.146L8.50001 39.793V35.866L5.10001 37.829L4.60401 39.679C4.56953 39.8071 4.48558 39.9163 4.37062 39.9825C4.25566 40.0487 4.11911 40.0665 3.99101 40.032C3.86291 39.9975 3.75375 39.9136 3.68755 39.7986C3.62135 39.6836 3.60353 39.5471 3.63801 39.419L3.87501 38.537L2.75501 39.183C2.64023 39.2483 2.5043 39.2655 2.37688 39.2309C2.24946 39.1963 2.14089 39.1127 2.07487 38.9983C2.00885 38.884 1.99074 38.7482 2.02449 38.6205C2.05824 38.4929 2.14111 38.3838 2.25501 38.317L3.37501 37.671L2.49101 37.434C2.42758 37.4169 2.36814 37.3875 2.31607 37.3475C2.264 37.3074 2.22033 37.2575 2.18755 37.2006C2.15477 37.1437 2.13353 37.0809 2.12503 37.0157C2.11653 36.9506 2.12094 36.8844 2.13801 36.821C2.15508 36.7576 2.18448 36.6981 2.22452 36.6461C2.26457 36.594 2.31448 36.5503 2.3714 36.5175C2.42832 36.4848 2.49114 36.4635 2.55628 36.455C2.62141 36.4465 2.68758 36.4509 2.75101 36.468L4.59901 36.963L8.00001 35L4.60001 33.037L2.75001 33.532C2.62274 33.5637 2.48811 33.5442 2.37513 33.4775C2.26215 33.4109 2.17987 33.3026 2.14602 33.1759C2.11218 33.0491 2.12948 32.9142 2.1942 32.8001C2.25892 32.686 2.36588 32.602 2.49201 32.566L3.37501 32.329L2.25501 31.683C2.19769 31.6504 2.14738 31.6068 2.10697 31.5547C2.06657 31.5026 2.03688 31.443 2.0196 31.3793C2.00233 31.3157 1.99781 31.2493 2.00631 31.1839C2.01481 31.1185 2.03616 31.0554 2.06913 30.9983C2.1021 30.9412 2.14604 30.8912 2.19842 30.8512C2.2508 30.8111 2.31059 30.7818 2.37434 30.765C2.43809 30.7481 2.50454 30.744 2.56987 30.753C2.6352 30.7619 2.69812 30.7837 2.75501 30.817L3.87501 31.463L3.63801 30.58C3.61981 30.5162 3.61451 30.4494 3.6224 30.3835C3.63028 30.3176 3.65121 30.2539 3.68396 30.1962C3.71671 30.1385 3.76062 30.0878 3.81313 30.0473C3.86565 30.0067 3.92571 29.977 3.98983 29.9598C4.05395 29.9427 4.12083 29.9385 4.18659 29.9475C4.25234 29.9565 4.31565 29.9785 4.37281 30.0122C4.42998 30.0459 4.47986 30.0907 4.51956 30.1439C4.55925 30.197 4.58796 30.2576 4.60401 30.322L5.09901 32.171L8.50001 34.134V30.207L7.14701 28.854C7.10052 28.8076 7.06363 28.7525 7.03845 28.6918C7.01326 28.6311 7.00028 28.5661 7.00023 28.5004C7.00018 28.4347 7.01308 28.3696 7.03818 28.3089C7.06327 28.2482 7.10009 28.193 7.14651 28.1465C7.19293 28.1 7.24806 28.0631 7.30873 28.0379C7.36941 28.0128 7.43446 27.9998 7.50015 27.9997C7.56585 27.9997 7.63092 28.0126 7.69163 28.0377C7.75234 28.0628 7.80752 28.0996 7.85401 28.146L8.50001 28.793V27.5C8.50001 27.3674 8.55269 27.2402 8.64646 27.1464C8.74022 27.0527 8.8674 27 9.00001 27C9.13262 27 9.25979 27.0527 9.35356 27.1464C9.44733 27.2402 9.50001 27.3674 9.50001 27.5V28.793L10.147 28.146C10.2409 28.0522 10.3682 27.9996 10.5009 27.9997C10.6335 27.9998 10.7608 28.0526 10.8545 28.1465C10.9483 28.2404 11.0009 28.3677 11.0008 28.5004C11.0007 28.633 10.9479 28.7602 10.854 28.854L9.50001 30.207V34.134L12.9 32.171L13.396 30.321C13.4305 30.1929 13.5144 30.0837 13.6294 30.0175C13.7444 29.9513 13.8809 29.9335 14.009 29.968C14.1371 30.0025 14.2463 30.0864 14.3125 30.2014C14.3787 30.3164 14.3965 30.4529 14.362 30.581L14.126 31.463L15.246 30.817C15.3608 30.7517 15.4967 30.7345 15.6241 30.7691C15.7516 30.8037 15.8601 30.8873 15.9261 31.0017C15.9922 31.116 16.0103 31.2518 15.9765 31.3795C15.9428 31.5071 15.8599 31.6162 15.746 31.683L14.626 32.329L15.509 32.566C15.6371 32.6005 15.7463 32.6844 15.8125 32.7994C15.8787 32.9144 15.8965 33.0509 15.862 33.179C15.8275 33.3071 15.7436 33.4163 15.6286 33.4825C15.5137 33.5487 15.3771 33.5665 15.249 33.532L13.401 33.037L10 35L13.4 36.963L15.249 36.468C15.3771 36.4337 15.5136 36.4516 15.6285 36.5179C15.7433 36.5842 15.8272 36.6934 15.8615 36.8215C15.8959 36.9496 15.8779 37.0861 15.8116 37.201C15.7453 37.3158 15.6361 37.3997 15.508 37.434L14.625 37.671L15.745 38.317C15.8589 38.3838 15.9418 38.4929 15.9755 38.6205C16.0093 38.7482 15.9912 38.884 15.9251 38.9983C15.8591 39.1127 15.7506 39.1963 15.6231 39.2309C15.4957 39.2655 15.3598 39.2483 15.245 39.183L14.125 38.537L14.361 39.42C14.3792 39.4838 14.3845 39.5506 14.3766 39.6165C14.3687 39.6824 14.3478 39.7461 14.3151 39.8038C14.2823 39.8615 14.2384 39.9122 14.1859 39.9527C14.1334 39.9933 14.0733 40.023 14.0092 40.0402C13.9451 40.0573 13.8782 40.0615 13.8124 40.0525C13.7467 40.0435 13.6834 40.0215 13.6262 39.9878C13.569 39.9541 13.5192 39.9093 13.4795 39.8561C13.4398 39.803 13.4111 39.7424 13.395 39.678L12.9 37.829L9.50001 35.866V39.793L10.853 41.146C10.9469 41.2398 10.9997 41.367 10.9998 41.4996C10.9999 41.6323 10.9473 41.7596 10.8535 41.8535C10.7598 41.9474 10.6325 42.0002 10.4999 42.0003C10.3672 42.0004 10.2399 41.9478 10.146 41.854L9.49901 41.207V42.5C9.49901 42.6326 9.44633 42.7598 9.35256 42.8536C9.25879 42.9473 9.13162 43 8.99901 43H9.00001Z" fill="black"/>
<path d="M33 53C32.8674 53 32.7402 52.9473 32.6465 52.8536C32.5527 52.7598 32.5 52.6326 32.5 52.5V51.207L31.854 51.854C31.7601 51.9478 31.6328 52.0004 31.5002 52.0003C31.3675 52.0002 31.2403 51.9474 31.1465 51.8535C31.0528 51.7596 31.0001 51.6323 31.0002 51.4996C31.0003 51.367 31.0531 51.2398 31.147 51.146L32.5 49.793V45.866L29.1 47.829L28.604 49.679C28.5695 49.8071 28.4856 49.9163 28.3706 49.9825C28.2557 50.0487 28.1191 50.0665 27.991 50.032C27.8629 49.9975 27.7538 49.9136 27.6876 49.7986C27.6214 49.6836 27.6035 49.5471 27.638 49.419L27.875 48.537L26.755 49.183C26.6402 49.2483 26.5043 49.2655 26.3769 49.2309C26.2495 49.1963 26.1409 49.1127 26.0749 48.9983C26.0089 48.884 25.9907 48.7482 26.0245 48.6205C26.0582 48.4929 26.1411 48.3838 26.255 48.317L27.375 47.671L26.491 47.434C26.4276 47.4169 26.3681 47.3875 26.3161 47.3475C26.264 47.3074 26.2203 47.2575 26.1876 47.2006C26.1548 47.1437 26.1335 47.0809 26.125 47.0157C26.1165 46.9506 26.1209 46.8844 26.138 46.821C26.1551 46.7576 26.1845 46.6981 26.2245 46.6461C26.2646 46.594 26.3145 46.5503 26.3714 46.5175C26.4283 46.4848 26.4911 46.4635 26.5563 46.455C26.6214 46.4465 26.6876 46.4509 26.751 46.468L28.599 46.963L32 45L28.6 43.037L26.75 43.532C26.6227 43.5637 26.4881 43.5442 26.3751 43.4775C26.2621 43.4109 26.1799 43.3026 26.146 43.1759C26.1122 43.0491 26.1295 42.9142 26.1942 42.8001C26.2589 42.686 26.3659 42.602 26.492 42.566L27.375 42.329L26.255 41.683C26.1977 41.6504 26.1474 41.6068 26.107 41.5547C26.0666 41.5026 26.0369 41.443 26.0196 41.3793C26.0023 41.3157 25.9978 41.2493 26.0063 41.1839C26.0148 41.1185 26.0362 41.0554 26.0691 40.9983C26.1021 40.9412 26.146 40.8912 26.1984 40.8512C26.2508 40.8111 26.3106 40.7818 26.3743 40.765C26.4381 40.7481 26.5045 40.744 26.5699 40.753C26.6352 40.7619 26.6981 40.7837 26.755 40.817L27.875 41.463L27.638 40.58C27.6198 40.5162 27.6145 40.4494 27.6224 40.3835C27.6303 40.3176 27.6512 40.2539 27.684 40.1962C27.7167 40.1385 27.7606 40.0878 27.8131 40.0473C27.8656 40.0067 27.9257 39.977 27.9898 39.9598C28.0539 39.9427 28.1208 39.9385 28.1866 39.9475C28.2523 39.9565 28.3156 39.9785 28.3728 40.0122C28.43 40.0459 28.4799 40.0907 28.5196 40.1439C28.5593 40.197 28.588 40.2576 28.604 40.322L29.099 42.171L32.5 44.134V40.207L31.147 38.854C31.1005 38.8076 31.0636 38.7525 31.0384 38.6918C31.0133 38.6311 31.0003 38.5661 31.0002 38.5004C31.0002 38.4347 31.0131 38.3696 31.0382 38.3089C31.0633 38.2482 31.1001 38.193 31.1465 38.1465C31.1929 38.1 31.2481 38.0631 31.3087 38.0379C31.3694 38.0128 31.4345 37.9998 31.5002 37.9997C31.5659 37.9997 31.6309 38.0126 31.6916 38.0377C31.7523 38.0628 31.8075 38.0996 31.854 38.146L32.5 38.793V37.5C32.5 37.3674 32.5527 37.2402 32.6465 37.1464C32.7402 37.0527 32.8674 37 33 37C33.1326 37 33.2598 37.0527 33.3536 37.1464C33.4473 37.2402 33.5 37.3674 33.5 37.5V38.793L34.147 38.146C34.2409 38.0522 34.3682 37.9996 34.5009 37.9997C34.6335 37.9998 34.7608 38.0526 34.8545 38.1465C34.9483 38.2404 35.0009 38.3677 35.0008 38.5004C35.0007 38.633 34.9479 38.7602 34.854 38.854L33.5 40.207V44.134L36.9 42.171L37.396 40.321C37.4305 40.1929 37.5144 40.0837 37.6294 40.0175C37.7444 39.9513 37.8809 39.9335 38.009 39.968C38.1371 40.0025 38.2463 40.0864 38.3125 40.2014C38.3787 40.3164 38.3965 40.4529 38.362 40.581L38.126 41.463L39.246 40.817C39.3608 40.7517 39.4967 40.7345 39.6241 40.7691C39.7516 40.8037 39.8601 40.8873 39.9261 41.0017C39.9922 41.116 40.0103 41.2518 39.9765 41.3795C39.9428 41.5071 39.8599 41.6162 39.746 41.683L38.626 42.329L39.509 42.566C39.6371 42.6005 39.7463 42.6844 39.8125 42.7994C39.8787 42.9144 39.8965 43.0509 39.862 43.179C39.8275 43.3071 39.7436 43.4163 39.6286 43.4825C39.5137 43.5487 39.3771 43.5665 39.249 43.532L37.401 43.037L34 45L37.4 46.963L39.249 46.468C39.3771 46.4337 39.5136 46.4516 39.6285 46.5179C39.7433 46.5842 39.8272 46.6934 39.8615 46.8215C39.8959 46.9496 39.8779 47.0861 39.8116 47.201C39.7453 47.3158 39.6361 47.3997 39.508 47.434L38.625 47.671L39.745 48.317C39.8589 48.3838 39.9418 48.4929 39.9755 48.6205C40.0093 48.7482 39.9912 48.884 39.9251 48.9983C39.8591 49.1127 39.7506 49.1963 39.6231 49.2309C39.4957 49.2655 39.3598 49.2483 39.245 49.183L38.125 48.537L38.361 49.42C38.3792 49.4838 38.3845 49.5506 38.3766 49.6165C38.3687 49.6824 38.3478 49.7461 38.3151 49.8038C38.2823 49.8615 38.2384 49.9122 38.1859 49.9527C38.1334 49.9933 38.0733 50.023 38.0092 50.0402C37.9451 50.0573 37.8782 50.0615 37.8124 50.0525C37.7467 50.0435 37.6834 50.0215 37.6262 49.9878C37.569 49.9541 37.5192 49.9093 37.4795 49.8561C37.4398 49.803 37.4111 49.7424 37.395 49.678L36.9 47.829L33.5 45.866V49.793L34.853 51.146C34.9469 51.2398 34.9997 51.367 34.9998 51.4996C34.9999 51.6323 34.9473 51.7596 34.8535 51.8535C34.7598 51.9474 34.6325 52.0002 34.4999 52.0003C34.3672 52.0004 34.2399 51.9478 34.146 51.854L33.499 51.207V52.5C33.499 52.6326 33.4463 52.7598 33.3526 52.8536C33.2588 52.9473 33.1316 53 32.999 53H33Z" fill="black"/>
<path d="M20 71C19.8674 71 19.7402 70.9473 19.6465 70.8536C19.5527 70.7598 19.5 70.6326 19.5 70.5V69.207L18.854 69.854C18.7601 69.9478 18.6328 70.0004 18.5002 70.0003C18.3675 70.0002 18.2403 69.9474 18.1465 69.8535C18.0528 69.7596 18.0001 69.6323 18.0002 69.4996C18.0003 69.367 18.0531 69.2398 18.147 69.146L19.5 67.793V63.866L16.1 65.829L15.604 67.679C15.5695 67.8071 15.4856 67.9163 15.3706 67.9825C15.2557 68.0487 15.1191 68.0665 14.991 68.032C14.8629 67.9975 14.7538 67.9136 14.6876 67.7986C14.6214 67.6836 14.6035 67.5471 14.638 67.419L14.875 66.537L13.755 67.183C13.6402 67.2483 13.5043 67.2655 13.3769 67.2309C13.2495 67.1963 13.1409 67.1127 13.0749 66.9983C13.0089 66.884 12.9907 66.7482 13.0245 66.6205C13.0582 66.4929 13.1411 66.3838 13.255 66.317L14.375 65.671L13.491 65.434C13.4276 65.4169 13.3681 65.3875 13.3161 65.3475C13.264 65.3074 13.2203 65.2575 13.1876 65.2006C13.1548 65.1437 13.1335 65.0809 13.125 65.0157C13.1165 64.9506 13.1209 64.8844 13.138 64.821C13.1551 64.7576 13.1845 64.6981 13.2245 64.6461C13.2646 64.594 13.3145 64.5503 13.3714 64.5175C13.4283 64.4848 13.4911 64.4635 13.5563 64.455C13.6214 64.4465 13.6876 64.4509 13.751 64.468L15.599 64.963L19 63L15.6 61.037L13.75 61.532C13.6227 61.5637 13.4881 61.5442 13.3751 61.4775C13.2621 61.4109 13.1799 61.3026 13.146 61.1759C13.1122 61.0491 13.1295 60.9142 13.1942 60.8001C13.2589 60.686 13.3659 60.602 13.492 60.566L14.375 60.329L13.255 59.683C13.1977 59.6504 13.1474 59.6068 13.107 59.5547C13.0666 59.5026 13.0369 59.443 13.0196 59.3793C13.0023 59.3157 12.9978 59.2493 13.0063 59.1839C13.0148 59.1185 13.0362 59.0554 13.0691 58.9983C13.1021 58.9412 13.146 58.8912 13.1984 58.8512C13.2508 58.8111 13.3106 58.7818 13.3743 58.765C13.4381 58.7481 13.5045 58.744 13.5699 58.753C13.6352 58.7619 13.6981 58.7837 13.755 58.817L14.875 59.463L14.638 58.58C14.6198 58.5162 14.6145 58.4494 14.6224 58.3835C14.6303 58.3176 14.6512 58.2539 14.684 58.1962C14.7167 58.1385 14.7606 58.0878 14.8131 58.0473C14.8656 58.0067 14.9257 57.977 14.9898 57.9598C15.0539 57.9427 15.1208 57.9385 15.1866 57.9475C15.2523 57.9565 15.3156 57.9785 15.3728 58.0122C15.43 58.0459 15.4799 58.0907 15.5196 58.1439C15.5593 58.197 15.588 58.2576 15.604 58.322L16.099 60.171L19.5 62.134V58.207L18.147 56.854C18.1005 56.8076 18.0636 56.7525 18.0384 56.6918C18.0133 56.6311 18.0003 56.5661 18.0002 56.5004C18.0002 56.4347 18.0131 56.3696 18.0382 56.3089C18.0633 56.2482 18.1001 56.193 18.1465 56.1465C18.1929 56.1 18.2481 56.0631 18.3087 56.0379C18.3694 56.0128 18.4345 55.9998 18.5002 55.9997C18.5659 55.9997 18.6309 56.0126 18.6916 56.0377C18.7523 56.0628 18.8075 56.0996 18.854 56.146L19.5 56.793V55.5C19.5 55.3674 19.5527 55.2402 19.6465 55.1464C19.7402 55.0527 19.8674 55 20 55C20.1326 55 20.2598 55.0527 20.3536 55.1464C20.4473 55.2402 20.5 55.3674 20.5 55.5V56.793L21.147 56.146C21.2409 56.0522 21.3682 55.9996 21.5009 55.9997C21.6335 55.9998 21.7608 56.0526 21.8545 56.1465C21.9483 56.2404 22.0009 56.3677 22.0008 56.5004C22.0007 56.633 21.9479 56.7602 21.854 56.854L20.5 58.207V62.134L23.9 60.171L24.396 58.321C24.4305 58.1929 24.5144 58.0837 24.6294 58.0175C24.7444 57.9513 24.8809 57.9335 25.009 57.968C25.1371 58.0025 25.2463 58.0864 25.3125 58.2014C25.3787 58.3164 25.3965 58.4529 25.362 58.581L25.126 59.463L26.246 58.817C26.3608 58.7517 26.4967 58.7345 26.6241 58.7691C26.7516 58.8037 26.8601 58.8873 26.9261 59.0017C26.9922 59.116 27.0103 59.2518 26.9765 59.3795C26.9428 59.5071 26.8599 59.6162 26.746 59.683L25.626 60.329L26.509 60.566C26.6371 60.6005 26.7463 60.6844 26.8125 60.7994C26.8787 60.9144 26.8965 61.0509 26.862 61.179C26.8275 61.3071 26.7436 61.4163 26.6286 61.4825C26.5137 61.5487 26.3771 61.5665 26.249 61.532L24.401 61.037L21 63L24.4 64.963L26.249 64.468C26.3771 64.4337 26.5136 64.4516 26.6285 64.5179C26.7433 64.5842 26.8272 64.6934 26.8615 64.8215C26.8959 64.9496 26.8779 65.0861 26.8116 65.201C26.7453 65.3158 26.6361 65.3997 26.508 65.434L25.625 65.671L26.745 66.317C26.8589 66.3838 26.9418 66.4929 26.9755 66.6205C27.0093 66.7482 26.9912 66.884 26.9251 66.9983C26.8591 67.1127 26.7506 67.1963 26.6231 67.2309C26.4957 67.2655 26.3598 67.2483 26.245 67.183L25.125 66.537L25.361 67.42C25.3792 67.4838 25.3845 67.5506 25.3766 67.6165C25.3687 67.6824 25.3478 67.7461 25.3151 67.8038C25.2823 67.8615 25.2384 67.9122 25.1859 67.9527C25.1334 67.9933 25.0733 68.023 25.0092 68.0402C24.9451 68.0573 24.8782 68.0615 24.8124 68.0525C24.7467 68.0435 24.6834 68.0215 24.6262 67.9878C24.569 67.9541 24.5192 67.9093 24.4795 67.8561C24.4398 67.803 24.4111 67.7424 24.395 67.678L23.9 65.829L20.5 63.866V67.793L21.853 69.146C21.9469 69.2398 21.9997 69.367 21.9998 69.4996C21.9999 69.6323 21.9473 69.7596 21.8535 69.8535C21.7598 69.9474 21.6325 70.0002 21.4999 70.0003C21.3672 70.0004 21.2399 69.9478 21.146 69.854L20.499 69.207V70.5C20.499 70.6326 20.4463 70.7598 20.3526 70.8536C20.2588 70.9473 20.1316 71 19.999 71H20Z" fill="black"/>
<path d="M44 79C43.8674 79 43.7402 78.9473 43.6465 78.8536C43.5527 78.7598 43.5 78.6326 43.5 78.5V77.207L42.854 77.854C42.7601 77.9478 42.6328 78.0004 42.5002 78.0003C42.3675 78.0002 42.2403 77.9474 42.1465 77.8535C42.0528 77.7596 42.0001 77.6323 42.0002 77.4996C42.0003 77.367 42.0531 77.2398 42.147 77.146L43.5 75.793V71.866L40.1 73.829L39.604 75.679C39.5695 75.8071 39.4856 75.9163 39.3706 75.9825C39.2557 76.0487 39.1191 76.0665 38.991 76.032C38.8629 75.9975 38.7538 75.9136 38.6876 75.7986C38.6214 75.6836 38.6035 75.5471 38.638 75.419L38.875 74.537L37.755 75.183C37.6402 75.2483 37.5043 75.2655 37.3769 75.2309C37.2495 75.1963 37.1409 75.1127 37.0749 74.9983C37.0089 74.884 36.9907 74.7482 37.0245 74.6205C37.0582 74.4929 37.1411 74.3838 37.255 74.317L38.375 73.671L37.491 73.434C37.4276 73.4169 37.3681 73.3875 37.3161 73.3475C37.264 73.3074 37.2203 73.2575 37.1876 73.2006C37.1548 73.1437 37.1335 73.0809 37.125 73.0157C37.1165 72.9506 37.1209 72.8844 37.138 72.821C37.1551 72.7576 37.1845 72.6981 37.2245 72.6461C37.2646 72.594 37.3145 72.5503 37.3714 72.5175C37.4283 72.4848 37.4911 72.4635 37.5563 72.455C37.6214 72.4465 37.6876 72.4509 37.751 72.468L39.599 72.963L43 71L39.6 69.037L37.75 69.532C37.6227 69.5637 37.4881 69.5442 37.3751 69.4775C37.2621 69.4109 37.1799 69.3026 37.146 69.1759C37.1122 69.0491 37.1295 68.9142 37.1942 68.8001C37.2589 68.686 37.3659 68.602 37.492 68.566L38.375 68.329L37.255 67.683C37.1977 67.6504 37.1474 67.6068 37.107 67.5547C37.0666 67.5026 37.0369 67.443 37.0196 67.3793C37.0023 67.3157 36.9978 67.2493 37.0063 67.1839C37.0148 67.1185 37.0362 67.0554 37.0691 66.9983C37.1021 66.9412 37.146 66.8912 37.1984 66.8512C37.2508 66.8111 37.3106 66.7818 37.3743 66.765C37.4381 66.7481 37.5045 66.744 37.5699 66.753C37.6352 66.7619 37.6981 66.7837 37.755 66.817L38.875 67.463L38.638 66.58C38.6198 66.5162 38.6145 66.4494 38.6224 66.3835C38.6303 66.3176 38.6512 66.2539 38.684 66.1962C38.7167 66.1385 38.7606 66.0878 38.8131 66.0473C38.8656 66.0067 38.9257 65.977 38.9898 65.9598C39.0539 65.9427 39.1208 65.9385 39.1866 65.9475C39.2523 65.9565 39.3156 65.9785 39.3728 66.0122C39.43 66.0459 39.4799 66.0907 39.5196 66.1439C39.5593 66.197 39.588 66.2576 39.604 66.322L40.099 68.171L43.5 70.134V66.207L42.147 64.854C42.1005 64.8076 42.0636 64.7525 42.0384 64.6918C42.0133 64.6311 42.0003 64.5661 42.0002 64.5004C42.0002 64.4347 42.0131 64.3696 42.0382 64.3089C42.0633 64.2482 42.1001 64.193 42.1465 64.1465C42.1929 64.1 42.2481 64.0631 42.3087 64.0379C42.3694 64.0128 42.4345 63.9998 42.5002 63.9997C42.5659 63.9997 42.6309 64.0126 42.6916 64.0377C42.7523 64.0628 42.8075 64.0996 42.854 64.146L43.5 64.793V63.5C43.5 63.3674 43.5527 63.2402 43.6465 63.1464C43.7402 63.0527 43.8674 63 44 63C44.1326 63 44.2598 63.0527 44.3536 63.1464C44.4473 63.2402 44.5 63.3674 44.5 63.5V64.793L45.147 64.146C45.2409 64.0522 45.3682 63.9996 45.5009 63.9997C45.6335 63.9998 45.7608 64.0526 45.8545 64.1465C45.9483 64.2404 46.0009 64.3677 46.0008 64.5004C46.0007 64.633 45.9479 64.7602 45.854 64.854L44.5 66.207V70.134L47.9 68.171L48.396 66.321C48.4305 66.1929 48.5144 66.0837 48.6294 66.0175C48.7444 65.9513 48.8809 65.9335 49.009 65.968C49.1371 66.0025 49.2463 66.0864 49.3125 66.2014C49.3787 66.3164 49.3965 66.4529 49.362 66.581L49.126 67.463L50.246 66.817C50.3608 66.7517 50.4967 66.7345 50.6241 66.7691C50.7516 66.8037 50.8601 66.8873 50.9261 67.0017C50.9922 67.116 51.0103 67.2518 50.9765 67.3795C50.9428 67.5071 50.8599 67.6162 50.746 67.683L49.626 68.329L50.509 68.566C50.6371 68.6005 50.7463 68.6844 50.8125 68.7994C50.8787 68.9144 50.8965 69.0509 50.862 69.179C50.8275 69.3071 50.7436 69.4163 50.6286 69.4825C50.5137 69.5487 50.3771 69.5665 50.249 69.532L48.401 69.037L45 71L48.4 72.963L50.249 72.468C50.3771 72.4337 50.5136 72.4516 50.6285 72.5179C50.7433 72.5842 50.8272 72.6934 50.8615 72.8215C50.8959 72.9496 50.8779 73.0861 50.8116 73.201C50.7453 73.3158 50.6361 73.3997 50.508 73.434L49.625 73.671L50.745 74.317C50.8589 74.3838 50.9418 74.4929 50.9755 74.6205C51.0093 74.7482 50.9912 74.884 50.9251 74.9983C50.8591 75.1127 50.7506 75.1963 50.6231 75.2309C50.4957 75.2655 50.3598 75.2483 50.245 75.183L49.125 74.537L49.361 75.42C49.3792 75.4838 49.3845 75.5506 49.3766 75.6165C49.3687 75.6824 49.3478 75.7461 49.3151 75.8038C49.2823 75.8615 49.2384 75.9122 49.1859 75.9527C49.1334 75.9933 49.0733 76.023 49.0092 76.0402C48.9451 76.0573 48.8782 76.0615 48.8124 76.0525C48.7467 76.0435 48.6834 76.0215 48.6262 75.9878C48.569 75.9541 48.5192 75.9093 48.4795 75.8561C48.4398 75.803 48.4111 75.7424 48.395 75.678L47.9 73.829L44.5 71.866V75.793L45.853 77.146C45.9469 77.2398 45.9997 77.367 45.9998 77.4996C45.9999 77.6323 45.9473 77.7596 45.8535 77.8535C45.7598 77.9474 45.6325 78.0002 45.4999 78.0003C45.3672 78.0004 45.2399 77.9478 45.146 77.854L44.499 77.207V78.5C44.499 78.6326 44.4463 78.7598 44.3526 78.8536C44.2588 78.9473 44.1316 79 43.999 79H44Z" fill="black"/>
<path d="M48 16C47.8674 16 47.7402 15.9473 47.6465 15.8536C47.5527 15.7598 47.5 15.6326 47.5 15.5V14.207L46.854 14.854C46.7601 14.9478 46.6328 15.0004 46.5002 15.0003C46.3675 15.0002 46.2403 14.9474 46.1465 14.8535C46.0528 14.7596 46.0001 14.6323 46.0002 14.4996C46.0003 14.367 46.0531 14.2398 46.147 14.146L47.5 12.793V8.866L44.1 10.829L43.604 12.679C43.5695 12.8071 43.4856 12.9163 43.3706 12.9825C43.2557 13.0487 43.1191 13.0665 42.991 13.032C42.8629 12.9975 42.7538 12.9136 42.6876 12.7986C42.6214 12.6836 42.6035 12.5471 42.638 12.419L42.875 11.537L41.755 12.183C41.6402 12.2483 41.5043 12.2655 41.3769 12.2309C41.2495 12.1963 41.1409 12.1127 41.0749 11.9983C41.0089 11.884 40.9907 11.7482 41.0245 11.6205C41.0582 11.4929 41.1411 11.3838 41.255 11.317L42.375 10.671L41.491 10.434C41.4276 10.4169 41.3681 10.3875 41.3161 10.3475C41.264 10.3074 41.2203 10.2575 41.1876 10.2006C41.1548 10.1437 41.1335 10.0809 41.125 10.0157C41.1165 9.9506 41.1209 9.88443 41.138 9.821C41.1551 9.75757 41.1845 9.69813 41.2245 9.64606C41.2646 9.59399 41.3145 9.55032 41.3714 9.51754C41.4283 9.48476 41.4911 9.46352 41.5563 9.45502C41.6214 9.44652 41.6876 9.45093 41.751 9.468L43.599 9.963L47 8L43.6 6.037L41.75 6.532C41.6227 6.56372 41.4881 6.54416 41.3751 6.47754C41.2621 6.41092 41.1799 6.30258 41.146 6.17586C41.1122 6.04914 41.1295 5.9142 41.1942 5.80012C41.2589 5.68604 41.3659 5.60196 41.492 5.566L42.375 5.329L41.255 4.683C41.1977 4.65041 41.1474 4.6068 41.107 4.55469C41.0666 4.50257 41.0369 4.44298 41.0196 4.37935C41.0023 4.31571 40.9978 4.24928 41.0063 4.18389C41.0148 4.1185 41.0362 4.05544 41.0691 3.99834C41.1021 3.94123 41.146 3.89121 41.1984 3.85116C41.2508 3.8111 41.3106 3.7818 41.3743 3.76495C41.4381 3.7481 41.5045 3.74402 41.5699 3.75295C41.6352 3.76188 41.6981 3.78365 41.755 3.817L42.875 4.463L42.638 3.58C42.6198 3.51618 42.6145 3.44937 42.6224 3.38348C42.6303 3.31758 42.6512 3.25392 42.684 3.1962C42.7167 3.13847 42.7606 3.08785 42.8131 3.04727C42.8656 3.00669 42.9257 2.97697 42.9898 2.95985C43.0539 2.94272 43.1208 2.93854 43.1866 2.94753C43.2523 2.95652 43.3156 2.97851 43.3728 3.01222C43.43 3.04593 43.4799 3.09068 43.5196 3.14386C43.5593 3.19705 43.588 3.2576 43.604 3.322L44.099 5.171L47.5 7.134V3.207L46.147 1.854C46.1005 1.80758 46.0636 1.75245 46.0384 1.69177C46.0133 1.6311 46.0003 1.56605 46.0002 1.50035C46.0002 1.43466 46.0131 1.36959 46.0382 1.30888C46.0633 1.24816 46.1001 1.19299 46.1465 1.1465C46.1929 1.10001 46.2481 1.06312 46.3087 1.03794C46.3694 1.01275 46.4345 0.999768 46.5002 0.999722C46.5659 0.999676 46.6309 1.01257 46.6916 1.03767C46.7523 1.06277 46.8075 1.09958 46.854 1.146L47.5 1.793V0.5C47.5 0.367392 47.5527 0.240215 47.6465 0.146447C47.7402 0.0526784 47.8674 0 48 0C48.1326 0 48.2598 0.0526784 48.3536 0.146447C48.4473 0.240215 48.5 0.367392 48.5 0.5V1.793L49.147 1.146C49.2409 1.05225 49.3682 0.999628 49.5009 0.999722C49.6335 0.999816 49.7608 1.05261 49.8545 1.1465C49.9483 1.24039 50.0009 1.36767 50.0008 1.50035C50.0007 1.63304 49.9479 1.76025 49.854 1.854L48.5 3.207V7.134L51.9 5.171L52.396 3.321C52.4305 3.1929 52.5144 3.08374 52.6294 3.01754C52.7444 2.95134 52.8809 2.93352 53.009 2.968C53.1371 3.00248 53.2463 3.08643 53.3125 3.20139C53.3787 3.31635 53.3965 3.4529 53.362 3.581L53.126 4.463L54.246 3.817C54.3608 3.75174 54.4967 3.73453 54.6241 3.76913C54.7516 3.80372 54.8601 3.88731 54.9261 4.00165C54.9922 4.116 55.0103 4.25181 54.9765 4.37946C54.9428 4.50711 54.8599 4.61622 54.746 4.683L53.626 5.329L54.509 5.566C54.6371 5.60048 54.7463 5.68443 54.8125 5.79939C54.8787 5.91435 54.8965 6.0509 54.862 6.179C54.8275 6.3071 54.7436 6.41626 54.6286 6.48246C54.5137 6.54866 54.3771 6.56648 54.249 6.532L52.401 6.037L49 8L52.4 9.963L54.249 9.468C54.3771 9.43365 54.5136 9.4516 54.6285 9.5179C54.7433 9.58419 54.8272 9.6934 54.8615 9.8215C54.8959 9.9496 54.8779 10.0861 54.8116 10.201C54.7453 10.3158 54.6361 10.3997 54.508 10.434L53.625 10.671L54.745 11.317C54.8589 11.3838 54.9418 11.4929 54.9755 11.6205C55.0093 11.7482 54.9912 11.884 54.9251 11.9983C54.8591 12.1127 54.7506 12.1963 54.6231 12.2309C54.4957 12.2655 54.3598 12.2483 54.245 12.183L53.125 11.537L53.361 12.42C53.3792 12.4838 53.3845 12.5506 53.3766 12.6165C53.3687 12.6824 53.3478 12.7461 53.3151 12.8038C53.2823 12.8615 53.2384 12.9122 53.1859 12.9527C53.1334 12.9933 53.0733 13.023 53.0092 13.0402C52.9451 13.0573 52.8782 13.0615 52.8124 13.0525C52.7467 13.0435 52.6834 13.0215 52.6262 12.9878C52.569 12.9541 52.5192 12.9093 52.4795 12.8561C52.4398 12.803 52.4111 12.7424 52.395 12.678L51.9 10.829L48.5 8.866V12.793L49.853 14.146C49.9469 14.2398 49.9997 14.367 49.9998 14.4996C49.9999 14.6323 49.9473 14.7596 49.8535 14.8535C49.7598 14.9474 49.6325 15.0002 49.4999 15.0003C49.3672 15.0004 49.2399 14.9478 49.146 14.854L48.499 14.207V15.5C48.499 15.6326 48.4463 15.7598 48.3526 15.8536C48.2588 15.9473 48.1316 16 47.999 16H48Z" fill="black"/>
<path d="M52 41C51.8674 41 51.7402 40.9473 51.6465 40.8536C51.5527 40.7598 51.5 40.6326 51.5 40.5V39.207L50.854 39.854C50.7601 39.9478 50.6328 40.0004 50.5002 40.0003C50.3675 40.0002 50.2403 39.9474 50.1465 39.8535C50.0528 39.7596 50.0001 39.6323 50.0002 39.4996C50.0003 39.367 50.0531 39.2398 50.147 39.146L51.5 37.793V33.866L48.1 35.829L47.604 37.679C47.5695 37.8071 47.4856 37.9163 47.3706 37.9825C47.2557 38.0487 47.1191 38.0665 46.991 38.032C46.8629 37.9975 46.7538 37.9136 46.6876 37.7986C46.6214 37.6836 46.6035 37.5471 46.638 37.419L46.875 36.537L45.755 37.183C45.6402 37.2483 45.5043 37.2655 45.3769 37.2309C45.2495 37.1963 45.1409 37.1127 45.0749 36.9983C45.0089 36.884 44.9907 36.7482 45.0245 36.6205C45.0582 36.4929 45.1411 36.3838 45.255 36.317L46.375 35.671L45.491 35.434C45.4276 35.4169 45.3681 35.3875 45.3161 35.3475C45.264 35.3074 45.2203 35.2575 45.1876 35.2006C45.1548 35.1437 45.1335 35.0809 45.125 35.0157C45.1165 34.9506 45.1209 34.8844 45.138 34.821C45.1551 34.7576 45.1845 34.6981 45.2245 34.6461C45.2646 34.594 45.3145 34.5503 45.3714 34.5175C45.4283 34.4848 45.4911 34.4635 45.5563 34.455C45.6214 34.4465 45.6876 34.4509 45.751 34.468L47.599 34.963L51 33L47.6 31.037L45.75 31.532C45.6227 31.5637 45.4881 31.5442 45.3751 31.4775C45.2621 31.4109 45.1799 31.3026 45.146 31.1759C45.1122 31.0491 45.1295 30.9142 45.1942 30.8001C45.2589 30.686 45.3659 30.602 45.492 30.566L46.375 30.329L45.255 29.683C45.1977 29.6504 45.1474 29.6068 45.107 29.5547C45.0666 29.5026 45.0369 29.443 45.0196 29.3793C45.0023 29.3157 44.9978 29.2493 45.0063 29.1839C45.0148 29.1185 45.0362 29.0554 45.0691 28.9983C45.1021 28.9412 45.146 28.8912 45.1984 28.8512C45.2508 28.8111 45.3106 28.7818 45.3743 28.765C45.4381 28.7481 45.5045 28.744 45.5699 28.753C45.6352 28.7619 45.6981 28.7837 45.755 28.817L46.875 29.463L46.638 28.58C46.6198 28.5162 46.6145 28.4494 46.6224 28.3835C46.6303 28.3176 46.6512 28.2539 46.684 28.1962C46.7167 28.1385 46.7606 28.0878 46.8131 28.0473C46.8656 28.0067 46.9257 27.977 46.9898 27.9598C47.0539 27.9427 47.1208 27.9385 47.1866 27.9475C47.2523 27.9565 47.3156 27.9785 47.3728 28.0122C47.43 28.0459 47.4799 28.0907 47.5196 28.1439C47.5593 28.197 47.588 28.2576 47.604 28.322L48.099 30.171L51.5 32.134V28.207L50.147 26.854C50.1005 26.8076 50.0636 26.7525 50.0384 26.6918C50.0133 26.6311 50.0003 26.5661 50.0002 26.5004C50.0002 26.4347 50.0131 26.3696 50.0382 26.3089C50.0633 26.2482 50.1001 26.193 50.1465 26.1465C50.1929 26.1 50.2481 26.0631 50.3087 26.0379C50.3694 26.0128 50.4345 25.9998 50.5002 25.9997C50.5659 25.9997 50.6309 26.0126 50.6916 26.0377C50.7523 26.0628 50.8075 26.0996 50.854 26.146L51.5 26.793V25.5C51.5 25.3674 51.5527 25.2402 51.6465 25.1464C51.7402 25.0527 51.8674 25 52 25C52.1326 25 52.2598 25.0527 52.3536 25.1464C52.4473 25.2402 52.5 25.3674 52.5 25.5V26.793L53.147 26.146C53.2409 26.0522 53.3682 25.9996 53.5009 25.9997C53.6335 25.9998 53.7608 26.0526 53.8545 26.1465C53.9483 26.2404 54.0009 26.3677 54.0008 26.5004C54.0007 26.633 53.9479 26.7602 53.854 26.854L52.5 28.207V32.134L55.9 30.171L56.396 28.321C56.4305 28.1929 56.5144 28.0837 56.6294 28.0175C56.7444 27.9513 56.8809 27.9335 57.009 27.968C57.1371 28.0025 57.2463 28.0864 57.3125 28.2014C57.3787 28.3164 57.3965 28.4529 57.362 28.581L57.126 29.463L58.246 28.817C58.3608 28.7517 58.4967 28.7345 58.6241 28.7691C58.7516 28.8037 58.8601 28.8873 58.9261 29.0017C58.9922 29.116 59.0103 29.2518 58.9765 29.3795C58.9428 29.5071 58.8599 29.6162 58.746 29.683L57.626 30.329L58.509 30.566C58.6371 30.6005 58.7463 30.6844 58.8125 30.7994C58.8787 30.9144 58.8965 31.0509 58.862 31.179C58.8275 31.3071 58.7436 31.4163 58.6286 31.4825C58.5137 31.5487 58.3771 31.5665 58.249 31.532L56.401 31.037L53 33L56.4 34.963L58.249 34.468C58.3771 34.4337 58.5136 34.4516 58.6285 34.5179C58.7433 34.5842 58.8272 34.6934 58.8615 34.8215C58.8959 34.9496 58.8779 35.0861 58.8116 35.201C58.7453 35.3158 58.6361 35.3997 58.508 35.434L57.625 35.671L58.745 36.317C58.8589 36.3838 58.9418 36.4929 58.9755 36.6205C59.0093 36.7482 58.9912 36.884 58.9251 36.9983C58.8591 37.1127 58.7506 37.1963 58.6231 37.2309C58.4957 37.2655 58.3598 37.2483 58.245 37.183L57.125 36.537L57.361 37.42C57.3792 37.4838 57.3845 37.5506 57.3766 37.6165C57.3687 37.6824 57.3478 37.7461 57.3151 37.8038C57.2823 37.8615 57.2384 37.9122 57.1859 37.9527C57.1334 37.9933 57.0733 38.023 57.0092 38.0402C56.9451 38.0573 56.8782 38.0615 56.8124 38.0525C56.7467 38.0435 56.6834 38.0215 56.6262 37.9878C56.569 37.9541 56.5192 37.9093 56.4795 37.8561C56.4398 37.803 56.4111 37.7424 56.395 37.678L55.9 35.829L52.5 33.866V37.793L53.853 39.146C53.9469 39.2398 53.9997 39.367 53.9998 39.4996C53.9999 39.6323 53.9473 39.7596 53.8535 39.8535C53.7598 39.9474 53.6325 40.0002 53.4999 40.0003C53.3672 40.0004 53.2399 39.9478 53.146 39.854L52.499 39.207V40.5C52.499 40.6326 52.4463 40.7598 52.3526 40.8536C52.2588 40.9473 52.1316 41 51.999 41H52Z" fill="black"/>
</svg>
